{
	"patcher" : 	{
		"fileversion" : 1,
		"appversion" : 		{
			"major" : 6,
			"minor" : 1,
			"revision" : 3,
			"architecture" : "x86"
		}
,
		"rect" : [ 100.0, 100.0, 766.0, 407.0 ],
		"bgcolor" : [ 0.937255, 0.92549, 0.792157, 1.0 ],
		"bglocked" : 0,
		"openinpresentation" : 0,
		"default_fontsize" : 10.0,
		"default_fontface" : 0,
		"default_fontname" : "Arial",
		"gridonopen" : 0,
		"gridsize" : [ 15.0, 15.0 ],
		"gridsnaponopen" : 0,
		"statusbarvisible" : 2,
		"toolbarvisible" : 1,
		"boxanimatetime" : 200,
		"imprint" : 1,
		"enablehscroll" : 1,
		"enablevscroll" : 1,
		"devicewidth" : 0.0,
		"description" : "",
		"digest" : "",
		"tags" : "",
		"boxes" : [ 			{
				"box" : 				{
					"background" : 0,
					"bgcolor" : [ 1.0, 1.0, 1.0, 1.0 ],
					"color" : [ 0.8, 0.84, 0.71, 1.0 ],
					"fontface" : 0,
					"fontname" : "Arial",
					"fontsize" : 12.0,
					"hidden" : 0,
					"id" : "obj-5",
					"ignoreclick" : 0,
					"maxclass" : "newobj",
					"numinlets" : 0,
					"numoutlets" : 0,
					"patcher" : 					{
						"fileversion" : 1,
						"appversion" : 						{
							"major" : 6,
							"minor" : 1,
							"revision" : 3,
							"architecture" : "x86"
						}
,
						"rect" : [ 571.0, 264.0, 346.0, 333.0 ],
						"bgcolor" : [ 0.937255, 0.92549, 0.792157, 1.0 ],
						"bglocked" : 0,
						"openinpresentation" : 1,
						"default_fontsize" : 10.0,
						"default_fontface" : 0,
						"default_fontname" : "Arial",
						"gridonopen" : 0,
						"gridsize" : [ 15.0, 15.0 ],
						"gridsnaponopen" : 0,
						"statusbarvisible" : 2,
						"toolbarvisible" : 1,
						"boxanimatetime" : 200,
						"imprint" : 0,
						"enablehscroll" : 1,
						"enablevscroll" : 1,
						"devicewidth" : 0.0,
						"description" : "",
						"digest" : "",
						"tags" : "",
						"boxes" : [ 							{
								"box" : 								{
									"fontname" : "Arial",
									"fontsize" : 10.0,
									"id" : "obj-21",
									"maxclass" : "newobj",
									"numinlets" : 1,
									"numoutlets" : 1,
									"outlettype" : [ "" ],
									"patching_rect" : [ 312.5, 582.5, 62.0, 18.0 ],
									"text" : "loadmess 0"
								}

							}
, 							{
								"box" : 								{
									"fontname" : "Arial",
									"fontsize" : 10.0,
									"id" : "obj-42",
									"maxclass" : "message",
									"numinlets" : 2,
									"numoutlets" : 1,
									"outlettype" : [ "" ],
									"patching_rect" : [ 285.0, 724.0, 54.0, 16.0 ],
									"text" : "hidden $1"
								}

							}
, 							{
								"box" : 								{
									"fontname" : "Arial",
									"fontsize" : 10.0,
									"id" : "obj-35",
									"maxclass" : "newobj",
									"numinlets" : 1,
									"numoutlets" : 2,
									"outlettype" : [ "int", "stop" ],
									"patching_rect" : [ 266.0, 660.0, 43.0, 18.0 ],
									"text" : "t 1 stop"
								}

							}
, 							{
								"box" : 								{
									"fontname" : "Arial",
									"fontsize" : 10.0,
									"id" : "obj-33",
									"maxclass" : "newobj",
									"numinlets" : 2,
									"numoutlets" : 1,
									"outlettype" : [ "float" ],
									"patching_rect" : [ 329.0, 731.0, 32.5, 18.0 ],
									"text" : "* 1."
								}

							}
, 							{
								"box" : 								{
									"id" : "obj-29",
									"maxclass" : "toggle",
									"numinlets" : 1,
									"numoutlets" : 1,
									"outlettype" : [ "int" ],
									"parameter_enable" : 1,
									"patching_rect" : [ 329.0, 630.0, 20.0, 20.0 ],
									"saved_attribute_attributes" : 									{
										"valueof" : 										{
											"parameter_longname" : "toggle",
											"parameter_shortname" : "toggle",
											"parameter_type" : 3,
											"parameter_invisible" : 1
										}

									}
,
									"varname" : "toggle"
								}

							}
, 							{
								"box" : 								{
									"fontname" : "Arial",
									"fontsize" : 10.0,
									"id" : "obj-24",
									"maxclass" : "message",
									"numinlets" : 2,
									"numoutlets" : 1,
									"outlettype" : [ "" ],
									"patching_rect" : [ 329.0, 658.0, 47.0, 16.0 ],
									"text" : "$1 1000"
								}

							}
, 							{
								"box" : 								{
									"fontname" : "Arial",
									"fontsize" : 10.0,
									"id" : "obj-22",
									"maxclass" : "message",
									"numinlets" : 2,
									"numoutlets" : 1,
									"outlettype" : [ "" ],
									"patching_rect" : [ 329.0, 762.0, 96.0, 16.0 ],
									"text" : "textcolor 1. 0. 0. $1"
								}

							}
, 							{
								"box" : 								{
									"fontname" : "Arial",
									"fontsize" : 10.0,
									"id" : "obj-19",
									"maxclass" : "newobj",
									"numinlets" : 3,
									"numoutlets" : 2,
									"outlettype" : [ "", "" ],
									"patching_rect" : [ 329.0, 687.0, 46.0, 18.0 ],
									"text" : "line 0."
								}

							}
, 							{
								"box" : 								{
									"bubble" : 1,
									"bubbleside" : 0,
									"fontname" : "Arial",
									"fontsize" : 12.0,
									"frgb" : 0.0,
									"hidden" : 1,
									"id" : "obj-16",
									"maxclass" : "comment",
									"numinlets" : 1,
									"numoutlets" : 0,
									"patching_rect" : [ 329.0, 787.0, 178.0, 39.0 ],
									"presentation" : 1,
									"presentation_rect" : [ 65.0, 281.959381, 131.0, 39.0 ],
									"text" : "and increase the level!",
									"textcolor" : [ 1.0, 0.0, 0.0, 0.9216 ]
								}

							}
, 							{
								"box" : 								{
									"id" : "obj-15",
									"maxclass" : "gain~",
									"numinlets" : 2,
									"numoutlets" : 2,
									"outlettype" : [ "signal", "int" ],
									"parameter_enable" : 1,
									"patching_rect" : [ 237.5, 567.0, 24.0, 89.5 ],
									"presentation" : 1,
									"presentation_rect" : [ 31.0, 259.959381, 199.0, 19.0 ],
									"saved_attribute_attributes" : 									{
										"valueof" : 										{
											"parameter_longname" : "gain~",
											"parameter_shortname" : "gain~",
											"parameter_type" : 3,
											"parameter_invisible" : 1
										}

									}
,
									"varname" : "gain~"
								}

							}
, 							{
								"box" : 								{
									"id" : "obj-40",
									"maxclass" : "ezdac~",
									"numinlets" : 2,
									"numoutlets" : 0,
									"patching_rect" : [ 165.0, 351.0, 45.0, 45.0 ],
									"presentation" : 1,
									"presentation_rect" : [ 277.0, 9.5, 45.0, 45.0 ]
								}

							}
, 							{
								"box" : 								{
									"fontname" : "Arial",
									"fontsize" : 12.0,
									"id" : "obj-39",
									"maxclass" : "newobj",
									"numinlets" : 1,
									"numoutlets" : 1,
									"outlettype" : [ "bang" ],
									"patching_rect" : [ 131.0, 455.0, 61.0, 20.0 ],
									"text" : "loadbang"
								}

							}
, 							{
								"box" : 								{
									"id" : "obj-38",
									"maxclass" : "meter~",
									"numinlets" : 1,
									"numoutlets" : 1,
									"outlettype" : [ "float" ],
									"patching_rect" : [ 138.5, 589.5, 80.0, 13.0 ],
									"presentation" : 1,
									"presentation_rect" : [ 242.0, 265.959381, 80.0, 13.0 ]
								}

							}
, 							{
								"box" : 								{
									"bgcolor" : [ 1.0, 1.0, 1.0, 0.0 ],
									"border_bottom" : 0,
									"border_left" : 0,
									"border_right" : 0,
									"border_top" : 0,
									"bordercolor" : [ 1.0, 1.0, 1.0, 0.0 ],
									"id" : "obj-37",
									"ignoreclick" : 1,
									"maxclass" : "multislider",
									"numinlets" : 1,
									"numoutlets" : 2,
									"orientation" : 0,
									"outlettype" : [ "", "" ],
									"parameter_enable" : 1,
									"patching_rect" : [ 389.0, 664.5, 140.0, 48.0 ],
									"presentation" : 1,
									"presentation_rect" : [ 31.0, 75.0, 291.0, 43.0 ],
									"saved_attribute_attributes" : 									{
										"valueof" : 										{
											"parameter_longname" : "multislider[15]",
											"parameter_shortname" : "multislider[15]",
											"parameter_type" : 3,
											"parameter_invisible" : 1
										}

									}
,
									"setminmax" : [ 0.0, 1.0 ],
									"slidercolor" : [ 1.0, 0.011765, 0.0, 0.45 ],
									"varname" : "multislider[5]"
								}

							}
, 							{
								"box" : 								{
									"fontname" : "Arial",
									"fontsize" : 12.0,
									"id" : "obj-36",
									"maxclass" : "newobj",
									"numinlets" : 1,
									"numoutlets" : 1,
									"outlettype" : [ "bang" ],
									"patching_rect" : [ 523.0, 432.0, 61.0, 20.0 ],
									"text" : "loadbang"
								}

							}
, 							{
								"box" : 								{
									"fontname" : "Arial",
									"fontsize" : 12.0,
									"id" : "obj-32",
									"maxclass" : "newobj",
									"numinlets" : 2,
									"numoutlets" : 1,
									"outlettype" : [ "float" ],
									"patching_rect" : [ 389.0, 636.5, 118.0, 20.0 ],
									"text" : "/ 1."
								}

							}
, 							{
								"box" : 								{
									"fontname" : "Arial",
									"fontsize" : 12.0,
									"id" : "obj-30",
									"maxclass" : "newobj",
									"numinlets" : 6,
									"numoutlets" : 1,
									"outlettype" : [ "" ],
									"patching_rect" : [ 389.0, 607.5, 104.0, 20.0 ],
									"text" : "scale 0. 1. 0. 1."
								}

							}
, 							{
								"box" : 								{
									"fontname" : "Arial",
									"fontsize" : 12.0,
									"id" : "obj-25",
									"maxclass" : "newobj",
									"numinlets" : 2,
									"numoutlets" : 1,
									"outlettype" : [ "float" ],
									"patching_rect" : [ 388.0, 582.5, 84.0, 20.0 ],
									"text" : "snapshot~ 30"
								}

							}
, 							{
								"box" : 								{
									"fontname" : "Arial",
									"fontsize" : 12.0,
									"id" : "obj-20",
									"maxclass" : "message",
									"numinlets" : 2,
									"numoutlets" : 1,
									"outlettype" : [ "" ],
									"patching_rect" : [ 130.0, 480.0, 97.0, 18.0 ],
									"text" : "startloop, loop 1"
								}

							}
, 							{
								"box" : 								{
									"fontname" : "Arial",
									"fontsize" : 12.0,
									"id" : "obj-17",
									"maxclass" : "newobj",
									"numinlets" : 1,
									"numoutlets" : 1,
									"outlettype" : [ "signal" ],
									"patching_rect" : [ 237.0, 480.0, 44.0, 20.0 ],
									"text" : "sig~ 1"
								}

							}
, 							{
								"box" : 								{
									"fontname" : "Arial",
									"fontsize" : 12.0,
									"id" : "obj-14",
									"maxclass" : "newobj",
									"numinlets" : 1,
									"numoutlets" : 9,
									"outlettype" : [ "float", "list", "float", "float", "float", "float", "float", "", "int" ],
									"patching_rect" : [ 510.0, 496.0, 148.0, 20.0 ],
									"text" : "info~ tata"
								}

							}
, 							{
								"box" : 								{
									"fontname" : "Arial",
									"fontsize" : 12.0,
									"id" : "obj-12",
									"maxclass" : "newobj",
									"numinlets" : 1,
									"numoutlets" : 2,
									"outlettype" : [ "float", "float" ],
									"patching_rect" : [ 312.5, 505.0, 105.0, 20.0 ],
									"text" : "unpack 0. 0."
								}

							}
, 							{
								"box" : 								{
									"fontname" : "Arial",
									"fontsize" : 12.0,
									"id" : "obj-8",
									"maxclass" : "newobj",
									"numinlets" : 2,
									"numoutlets" : 1,
									"outlettype" : [ "" ],
									"patching_rect" : [ 312.5, 471.0, 170.0, 20.0 ],
									"text" : "vexpr $f1*$f2 @scalarmode 1"
								}

							}
, 							{
								"box" : 								{
									"fontname" : "Arial",
									"fontsize" : 12.0,
									"id" : "obj-7",
									"maxclass" : "newobj",
									"numinlets" : 2,
									"numoutlets" : 0,
									"patching_rect" : [ 237.0, 687.0, 39.0, 20.0 ],
									"text" : "dac~"
								}

							}
, 							{
								"box" : 								{
									"fontname" : "Arial",
									"fontsize" : 12.0,
									"id" : "obj-5",
									"maxclass" : "newobj",
									"numinlets" : 3,
									"numoutlets" : 2,
									"outlettype" : [ "signal", "signal" ],
									"patching_rect" : [ 237.0, 538.0, 170.0, 20.0 ],
									"text" : "groove~ tata"
								}

							}
, 							{
								"box" : 								{
									"fontname" : "Arial",
									"fontsize" : 12.0,
									"id" : "obj-9",
									"maxclass" : "newobj",
									"numinlets" : 2,
									"numoutlets" : 1,
									"outlettype" : [ "" ],
									"patching_rect" : [ 590.0, 263.0, 107.0, 20.0 ],
									"text" : "vexpr $f1 + $f2*-1"
								}

							}
, 							{
								"box" : 								{
									"fontname" : "Arial",
									"fontsize" : 12.0,
									"id" : "obj-6",
									"maxclass" : "newobj",
									"numinlets" : 1,
									"numoutlets" : 1,
									"outlettype" : [ "" ],
									"patching_rect" : [ 590.0, 76.0, 82.0, 20.0 ],
									"text" : "loadmess 0 1"
								}

							}
, 							{
								"box" : 								{
									"fontname" : "Arial",
									"fontsize" : 12.0,
									"id" : "obj-13",
									"maxclass" : "message",
									"numinlets" : 2,
									"numoutlets" : 1,
									"outlettype" : [ "" ],
									"patching_rect" : [ 590.0, 185.0, 107.0, 18.0 ],
									"text" : "zoom $1 $2, bang"
								}

							}
, 							{
								"box" : 								{
									"bgcolor" : [ 1.0, 1.0, 1.0, 0.0 ],
									"drawline" : 0,
									"fgcolor" : [ 0.185124, 0.552907, 0.65098, 0.54 ],
									"floatoutput" : 1,
									"id" : "obj-11",
									"listmode" : 1,
									"maxclass" : "rslider",
									"numinlets" : 2,
									"numoutlets" : 2,
									"outlettype" : [ "", "" ],
									"parameter_enable" : 1,
									"patching_rect" : [ 590.0, 113.0, 186.0, 50.0 ],
									"presentation" : 1,
									"presentation_rect" : [ 31.0, 75.0, 291.0, 43.0 ],
									"saved_attribute_attributes" : 									{
										"valueof" : 										{
											"parameter_longname" : "rslider[1]",
											"parameter_shortname" : "rslider",
											"parameter_type" : 3,
											"parameter_invisible" : 1
										}

									}
,
									"size" : 1.0,
									"varname" : "rslider"
								}

							}
, 							{
								"box" : 								{
									"fontname" : "Arial",
									"fontsize" : 12.0,
									"id" : "obj-34",
									"maxclass" : "newobj",
									"numinlets" : 1,
									"numoutlets" : 4,
									"outlettype" : [ "", "", "", "" ],
									"patching_rect" : [ 590.0, 225.0, 283.0, 20.0 ],
									"text" : "mxj ej.buffer2l @buf_name tata @grain 512"
								}

							}
, 							{
								"box" : 								{
									"id" : "obj-31",
									"ignoreclick" : 1,
									"maxclass" : "multislider",
									"numinlets" : 1,
									"numoutlets" : 2,
									"outlettype" : [ "", "" ],
									"parameter_enable" : 1,
									"patching_rect" : [ 590.0, 347.959381, 291.0, 119.0 ],
									"presentation" : 1,
									"presentation_rect" : [ 31.0, 121.959381, 291.0, 137.0 ],
									"saved_attribute_attributes" : 									{
										"valueof" : 										{
											"parameter_longname" : "multislider[10]",
											"parameter_shortname" : "multislider[4]",
											"parameter_type" : 3,
											"parameter_invisible" : 1
										}

									}
,
									"setminmax" : [ 0.0, 2.0 ],
									"setstyle" : 1,
									"size" : 512,
									"varname" : "multislider[4]"
								}

							}
, 							{
								"box" : 								{
									"bgcolor" : [ 1.0, 1.0, 1.0, 0.0 ],
									"bordercolor" : [ 0.0, 0.0, 0.0, 0.0 ],
									"id" : "obj-27",
									"ignoreclick" : 1,
									"maxclass" : "multislider",
									"numinlets" : 1,
									"numoutlets" : 2,
									"outlettype" : [ "", "" ],
									"parameter_enable" : 1,
									"patching_rect" : [ 420.0, 248.0, 94.0, 22.0 ],
									"presentation" : 1,
									"presentation_rect" : [ 31.0, 96.0, 291.0, 22.0 ],
									"saved_attribute_attributes" : 									{
										"valueof" : 										{
											"parameter_longname" : "multislider[11]",
											"parameter_shortname" : "multislider[1]",
											"parameter_type" : 3,
											"parameter_invisible" : 1
										}

									}
,
									"setminmax" : [ -1.0, 0.0 ],
									"setstyle" : 1,
									"signed" : 1,
									"size" : 512,
									"slidercolor" : [ 0.294118, 0.415686, 0.717647, 1.0 ],
									"varname" : "multislider[2]"
								}

							}
, 							{
								"box" : 								{
									"bgcolor" : [ 1.0, 1.0, 1.0, 0.0 ],
									"bordercolor" : [ 0.0, 0.0, 0.0, 0.0 ],
									"id" : "obj-28",
									"ignoreclick" : 1,
									"maxclass" : "multislider",
									"numinlets" : 1,
									"numoutlets" : 2,
									"outlettype" : [ "", "" ],
									"parameter_enable" : 1,
									"patching_rect" : [ 345.333344, 282.0, 94.0, 22.0 ],
									"presentation" : 1,
									"presentation_rect" : [ 31.0, 75.0, 291.0, 22.0 ],
									"saved_attribute_attributes" : 									{
										"valueof" : 										{
											"parameter_longname" : "multislider[12]",
											"parameter_shortname" : "multislider",
											"parameter_type" : 3,
											"parameter_invisible" : 1
										}

									}
,
									"setminmax" : [ 0.0, 1.0 ],
									"setstyle" : 1,
									"size" : 512,
									"slidercolor" : [ 0.294118, 0.415686, 0.717647, 1.0 ],
									"varname" : "multislider[3]"
								}

							}
, 							{
								"box" : 								{
									"bgcolor" : [ 1.0, 1.0, 1.0, 0.0 ],
									"bordercolor" : [ 0.0, 0.0, 0.0, 0.0 ],
									"id" : "obj-10",
									"ignoreclick" : 1,
									"maxclass" : "multislider",
									"numinlets" : 1,
									"numoutlets" : 2,
									"outlettype" : [ "", "" ],
									"parameter_enable" : 1,
									"patching_rect" : [ 270.666687, 248.0, 94.0, 22.0 ],
									"presentation" : 1,
									"presentation_rect" : [ 31.0, 96.0, 291.0, 22.0 ],
									"saved_attribute_attributes" : 									{
										"valueof" : 										{
											"parameter_longname" : "multislider[13]",
											"parameter_shortname" : "multislider[1]",
											"parameter_type" : 3,
											"parameter_invisible" : 1
										}

									}
,
									"setminmax" : [ -1.0, 0.0 ],
									"setstyle" : 1,
									"signed" : 1,
									"size" : 512,
									"varname" : "multislider[1]"
								}

							}
, 							{
								"box" : 								{
									"bgcolor" : [ 1.0, 1.0, 1.0, 0.0 ],
									"bordercolor" : [ 0.0, 0.0, 0.0, 0.0 ],
									"id" : "obj-3",
									"ignoreclick" : 1,
									"maxclass" : "multislider",
									"numinlets" : 1,
									"numoutlets" : 2,
									"outlettype" : [ "", "" ],
									"parameter_enable" : 1,
									"patching_rect" : [ 196.0, 276.540619, 94.0, 22.0 ],
									"presentation" : 1,
									"presentation_rect" : [ 31.0, 75.0, 291.0, 22.0 ],
									"saved_attribute_attributes" : 									{
										"valueof" : 										{
											"parameter_longname" : "multislider[14]",
											"parameter_shortname" : "multislider",
											"parameter_type" : 3,
											"parameter_invisible" : 1
										}

									}
,
									"setminmax" : [ 0.0, 1.0 ],
									"setstyle" : 1,
									"size" : 512,
									"varname" : "multislider"
								}

							}
, 							{
								"box" : 								{
									"fontname" : "Arial",
									"fontsize" : 12.0,
									"id" : "obj-1",
									"maxclass" : "newobj",
									"numinlets" : 1,
									"numoutlets" : 2,
									"outlettype" : [ "float", "bang" ],
									"patching_rect" : [ 67.0, 128.0, 145.0, 20.0 ],
									"text" : "buffer~ tata drumLoop.aif"
								}

							}
, 							{
								"box" : 								{
									"fontname" : "Arial",
									"fontsize" : 12.0,
									"id" : "obj-4",
									"maxclass" : "newobj",
									"numinlets" : 1,
									"numoutlets" : 4,
									"outlettype" : [ "", "", "", "" ],
									"patching_rect" : [ 196.0, 205.0, 243.0, 20.0 ],
									"text" : "mxj ej.buffer2l @buf_name tata @grain 512"
								}

							}
, 							{
								"box" : 								{
									"fontname" : "Arial",
									"fontsize" : 12.0,
									"frgb" : 0.0,
									"id" : "obj-2",
									"linecount" : 2,
									"maxclass" : "comment",
									"numinlets" : 1,
									"numoutlets" : 0,
									"patching_rect" : [ 111.0, 36.0, 178.0, 33.0 ],
									"presentation" : 1,
									"presentation_rect" : [ 54.0, 22.0, 223.0, 20.0 ],
									"text" : "look at this patch in presentation in Mira"
								}

							}
, 							{
								"box" : 								{
									"background" : 1,
									"id" : "obj-18",
									"ignoreclick" : 1,
									"maxclass" : "mira.frame",
									"numinlets" : 0,
									"numoutlets" : 0,
									"patching_rect" : [ 183.0, 225.0, 310.799988, 220.959366 ],
									"presentation" : 1,
									"presentation_rect" : [ 18.0, 61.0, 310.799988, 220.959366 ]
								}

							}
 ],
						"lines" : [ 							{
								"patchline" : 								{
									"destination" : [ "obj-14", 0 ],
									"disabled" : 0,
									"hidden" : 0,
									"source" : [ "obj-1", 1 ]
								}

							}
, 							{
								"patchline" : 								{
									"destination" : [ "obj-34", 0 ],
									"disabled" : 0,
									"hidden" : 0,
									"source" : [ "obj-1", 1 ]
								}

							}
, 							{
								"patchline" : 								{
									"destination" : [ "obj-4", 0 ],
									"disabled" : 0,
									"hidden" : 0,
									"source" : [ "obj-1", 1 ]
								}

							}
, 							{
								"patchline" : 								{
									"destination" : [ "obj-13", 0 ],
									"disabled" : 0,
									"hidden" : 0,
									"source" : [ "obj-11", 0 ]
								}

							}
, 							{
								"patchline" : 								{
									"destination" : [ "obj-8", 0 ],
									"disabled" : 0,
									"hidden" : 0,
									"source" : [ "obj-11", 0 ]
								}

							}
, 							{
								"patchline" : 								{
									"destination" : [ "obj-30", 4 ],
									"disabled" : 0,
									"hidden" : 0,
									"source" : [ "obj-12", 1 ]
								}

							}
, 							{
								"patchline" : 								{
									"destination" : [ "obj-30", 3 ],
									"disabled" : 0,
									"hidden" : 0,
									"source" : [ "obj-12", 0 ]
								}

							}
, 							{
								"patchline" : 								{
									"destination" : [ "obj-5", 2 ],
									"disabled" : 0,
									"hidden" : 0,
									"source" : [ "obj-12", 1 ]
								}

							}
, 							{
								"patchline" : 								{
									"destination" : [ "obj-5", 1 ],
									"disabled" : 0,
									"hidden" : 0,
									"source" : [ "obj-12", 0 ]
								}

							}
, 							{
								"patchline" : 								{
									"destination" : [ "obj-34", 0 ],
									"disabled" : 0,
									"hidden" : 0,
									"source" : [ "obj-13", 0 ]
								}

							}
, 							{
								"patchline" : 								{
									"destination" : [ "obj-32", 1 ],
									"disabled" : 0,
									"hidden" : 0,
									"source" : [ "obj-14", 6 ]
								}

							}
, 							{
								"patchline" : 								{
									"destination" : [ "obj-8", 1 ],
									"disabled" : 0,
									"hidden" : 0,
									"source" : [ "obj-14", 6 ]
								}

							}
, 							{
								"patchline" : 								{
									"destination" : [ "obj-35", 0 ],
									"disabled" : 0,
									"hidden" : 0,
									"source" : [ "obj-15", 1 ]
								}

							}
, 							{
								"patchline" : 								{
									"destination" : [ "obj-38", 0 ],
									"disabled" : 0,
									"hidden" : 0,
									"source" : [ "obj-15", 0 ]
								}

							}
, 							{
								"patchline" : 								{
									"destination" : [ "obj-7", 1 ],
									"disabled" : 0,
									"hidden" : 0,
									"source" : [ "obj-15", 0 ]
								}

							}
, 							{
								"patchline" : 								{
									"destination" : [ "obj-7", 0 ],
									"disabled" : 0,
									"hidden" : 0,
									"source" : [ "obj-15", 0 ]
								}

							}
, 							{
								"patchline" : 								{
									"destination" : [ "obj-5", 0 ],
									"disabled" : 0,
									"hidden" : 0,
									"source" : [ "obj-17", 0 ]
								}

							}
, 							{
								"patchline" : 								{
									"destination" : [ "obj-29", 0 ],
									"disabled" : 0,
									"hidden" : 0,
									"source" : [ "obj-19", 1 ]
								}

							}
, 							{
								"patchline" : 								{
									"destination" : [ "obj-33", 1 ],
									"disabled" : 0,
									"hidden" : 0,
									"source" : [ "obj-19", 0 ]
								}

							}
, 							{
								"patchline" : 								{
									"destination" : [ "obj-33", 0 ],
									"disabled" : 0,
									"hidden" : 0,
									"source" : [ "obj-19", 0 ]
								}

							}
, 							{
								"patchline" : 								{
									"destination" : [ "obj-5", 0 ],
									"disabled" : 0,
									"hidden" : 0,
									"source" : [ "obj-20", 0 ]
								}

							}
, 							{
								"patchline" : 								{
									"destination" : [ "obj-29", 0 ],
									"disabled" : 0,
									"hidden" : 0,
									"source" : [ "obj-21", 0 ]
								}

							}
, 							{
								"patchline" : 								{
									"destination" : [ "obj-42", 0 ],
									"disabled" : 0,
									"hidden" : 0,
									"source" : [ "obj-21", 0 ]
								}

							}
, 							{
								"patchline" : 								{
									"destination" : [ "obj-16", 0 ],
									"disabled" : 0,
									"hidden" : 0,
									"source" : [ "obj-22", 0 ]
								}

							}
, 							{
								"patchline" : 								{
									"destination" : [ "obj-19", 0 ],
									"disabled" : 0,
									"hidden" : 0,
									"source" : [ "obj-24", 0 ]
								}

							}
, 							{
								"patchline" : 								{
									"destination" : [ "obj-30", 0 ],
									"disabled" : 0,
									"hidden" : 0,
									"source" : [ "obj-25", 0 ]
								}

							}
, 							{
								"patchline" : 								{
									"destination" : [ "obj-24", 0 ],
									"disabled" : 0,
									"hidden" : 0,
									"source" : [ "obj-29", 0 ]
								}

							}
, 							{
								"patchline" : 								{
									"destination" : [ "obj-32", 0 ],
									"disabled" : 0,
									"hidden" : 0,
									"source" : [ "obj-30", 0 ]
								}

							}
, 							{
								"patchline" : 								{
									"destination" : [ "obj-37", 0 ],
									"disabled" : 0,
									"hidden" : 0,
									"source" : [ "obj-32", 0 ]
								}

							}
, 							{
								"patchline" : 								{
									"destination" : [ "obj-22", 0 ],
									"disabled" : 0,
									"hidden" : 0,
									"source" : [ "obj-33", 0 ]
								}

							}
, 							{
								"patchline" : 								{
									"destination" : [ "obj-9", 1 ],
									"disabled" : 0,
									"hidden" : 0,
									"source" : [ "obj-34", 1 ]
								}

							}
, 							{
								"patchline" : 								{
									"destination" : [ "obj-9", 0 ],
									"disabled" : 0,
									"hidden" : 0,
									"source" : [ "obj-34", 0 ]
								}

							}
, 							{
								"patchline" : 								{
									"destination" : [ "obj-19", 0 ],
									"disabled" : 0,
									"hidden" : 0,
									"source" : [ "obj-35", 1 ]
								}

							}
, 							{
								"patchline" : 								{
									"destination" : [ "obj-42", 0 ],
									"disabled" : 0,
									"hidden" : 0,
									"source" : [ "obj-35", 0 ]
								}

							}
, 							{
								"patchline" : 								{
									"destination" : [ "obj-14", 0 ],
									"disabled" : 0,
									"hidden" : 0,
									"source" : [ "obj-36", 0 ]
								}

							}
, 							{
								"patchline" : 								{
									"destination" : [ "obj-8", 0 ],
									"disabled" : 0,
									"hidden" : 0,
									"source" : [ "obj-36", 0 ]
								}

							}
, 							{
								"patchline" : 								{
									"destination" : [ "obj-20", 0 ],
									"disabled" : 0,
									"hidden" : 0,
									"source" : [ "obj-39", 0 ]
								}

							}
, 							{
								"patchline" : 								{
									"destination" : [ "obj-10", 0 ],
									"disabled" : 0,
									"hidden" : 0,
									"source" : [ "obj-4", 1 ]
								}

							}
, 							{
								"patchline" : 								{
									"destination" : [ "obj-27", 0 ],
									"disabled" : 0,
									"hidden" : 0,
									"source" : [ "obj-4", 3 ]
								}

							}
, 							{
								"patchline" : 								{
									"destination" : [ "obj-28", 0 ],
									"disabled" : 0,
									"hidden" : 0,
									"source" : [ "obj-4", 2 ]
								}

							}
, 							{
								"patchline" : 								{
									"destination" : [ "obj-3", 0 ],
									"disabled" : 0,
									"hidden" : 0,
									"source" : [ "obj-4", 0 ]
								}

							}
, 							{
								"patchline" : 								{
									"destination" : [ "obj-16", 0 ],
									"disabled" : 0,
									"hidden" : 0,
									"source" : [ "obj-42", 0 ]
								}

							}
, 							{
								"patchline" : 								{
									"destination" : [ "obj-15", 0 ],
									"disabled" : 0,
									"hidden" : 0,
									"source" : [ "obj-5", 0 ]
								}

							}
, 							{
								"patchline" : 								{
									"destination" : [ "obj-25", 0 ],
									"disabled" : 0,
									"hidden" : 0,
									"source" : [ "obj-5", 1 ]
								}

							}
, 							{
								"patchline" : 								{
									"destination" : [ "obj-11", 0 ],
									"disabled" : 0,
									"hidden" : 0,
									"source" : [ "obj-6", 0 ]
								}

							}
, 							{
								"patchline" : 								{
									"destination" : [ "obj-12", 0 ],
									"disabled" : 0,
									"hidden" : 0,
									"source" : [ "obj-8", 0 ]
								}

							}
, 							{
								"patchline" : 								{
									"destination" : [ "obj-31", 0 ],
									"disabled" : 0,
									"hidden" : 0,
									"source" : [ "obj-9", 0 ]
								}

							}
 ]
					}
,
					"patching_rect" : [ 417.0, 316.806183, 89.0, 20.0 ],
					"presentation" : 0,
					"presentation_rect" : [ 0.0, 0.0, 0.0, 0.0 ],
					"saved_object_attributes" : 					{
						"default_fontface" : 0,
						"default_fontname" : "Arial",
						"default_fontsize" : 10.0,
						"description" : "",
						"digest" : "",
						"fontface" : 0,
						"fontname" : "Arial",
						"fontsize" : 10.0,
						"globalpatchername" : "",
						"tags" : ""
					}
,
					"text" : "p mira",
					"textcolor" : [ 0.0, 0.0, 0.0, 1.0 ],
					"textjustification" : 0
				}

			}
, 			{
				"box" : 				{
					"background" : 0,
					"bgcolor" : [ 1.0, 1.0, 1.0, 0.0 ],
					"bubble" : 0,
					"bubblepoint" : 0.5,
					"bubbleside" : 1,
					"bubbletextmargin" : 5,
					"fontface" : 0,
					"fontname" : "Arial",
					"fontsize" : 12.0,
					"frgb" : 0.0,
					"hidden" : 0,
					"id" : "obj-19",
					"ignoreclick" : 1,
					"maxclass" : "comment",
					"numinlets" : 1,
					"numoutlets" : 0,
					"patching_rect" : [ 120.0, 287.806183, 40.0, 20.0 ],
					"presentation" : 0,
					"presentation_rect" : [ 0.0, 0.0, 0.0, 0.0 ],
					"text" : "zoom",
					"textcolor" : [ 0.0, 0.0, 0.0, 1.0 ],
					"textjustification" : 0,
					"underline" : 0
				}

			}
, 			{
				"box" : 				{
					"background" : 0,
					"bgcolor" : [ 1.0, 1.0, 1.0, 1.0 ],
					"color" : [ 0.8, 0.84, 0.71, 1.0 ],
					"fontface" : 0,
					"fontname" : "Arial",
					"fontsize" : 10.0,
					"hidden" : 1,
					"id" : "obj-2",
					"ignoreclick" : 0,
					"maxclass" : "newobj",
					"numinlets" : 1,
					"numoutlets" : 1,
					"outlettype" : [ "" ],
					"patching_rect" : [ 229.0, 229.0, 70.0, 18.0 ],
					"presentation" : 0,
					"presentation_rect" : [ 0.0, 0.0, 0.0, 0.0 ],
					"text" : "loadmess 0 1",
					"textcolor" : [ 0.0, 0.0, 0.0, 1.0 ],
					"textjustification" : 0
				}

			}
, 			{
				"box" : 				{
					"background" : 0,
					"bgcolor" : [ 1.0, 1.0, 1.0, 1.0 ],
					"bordercolor" : [ 0.5, 0.5, 0.5, 1.0 ],
					"drawline" : 1,
					"fgcolor" : [ 0.65, 0.65, 0.65, 1.0 ],
					"floatoutput" : 1,
					"hidden" : 0,
					"id" : "obj-1",
					"ignoreclick" : 0,
					"listmode" : 1,
					"maxclass" : "rslider",
					"min" : 0,
					"mult" : 1.0,
					"numinlets" : 2,
					"numoutlets" : 2,
					"orientation" : 0,
					"outlettype" : [ "", "" ],
					"parameter_enable" : 1,
					"patching_rect" : [ 34.0, 287.806183, 212.0, 21.0 ],
					"presentation" : 0,
					"presentation_rect" : [ 0.0, 0.0, 0.0, 0.0 ],
					"saved_attribute_attributes" : 					{
						"valueof" : 						{
							"parameter_longname" : "rslider",
							"parameter_shortname" : "rslider",
							"parameter_type" : 3,
							"parameter_invisible" : 1
						}

					}
,
					"size" : 1.0,
					"varname" : "rslider"
				}

			}
, 			{
				"box" : 				{
					"background" : 0,
					"bgcolor" : [ 0.867, 0.867, 0.867, 1.0 ],
					"bgcolor2" : [ 0.867, 0.867, 0.867, 1.0 ],
					"fontface" : 0,
					"fontname" : "Arial",
					"fontsize" : 12.0,
					"gradient" : 0,
					"hidden" : 0,
					"id" : "obj-3",
					"ignoreclick" : 0,
					"maxclass" : "message",
					"numinlets" : 2,
					"numoutlets" : 1,
					"outlettype" : [ "" ],
					"patching_rect" : [ 82.0, 228.870789, 108.0, 18.0 ],
					"presentation" : 0,
					"presentation_rect" : [ 0.0, 0.0, 0.0, 0.0 ],
					"text" : "zoom $1 $2, bang",
					"textcolor" : [ 0.0, 0.0, 0.0, 1.0 ],
					"textjustification" : 0
				}

			}
, 			{
				"box" : 				{
					"background" : 0,
					"bgcolor" : [ 1.0, 1.0, 1.0, 0.0 ],
					"bubble" : 0,
					"bubblepoint" : 0.5,
					"bubbleside" : 1,
					"bubbletextmargin" : 5,
					"fontface" : 0,
					"fontname" : "Arial",
					"fontsize" : 12.0,
					"frgb" : 0.0,
					"hidden" : 0,
					"id" : "obj-23",
					"ignoreclick" : 1,
					"maxclass" : "comment",
					"numinlets" : 1,
					"numoutlets" : 0,
					"patching_rect" : [ 358.0, 197.870789, 63.0, 20.0 ],
					"presentation" : 0,
					"presentation_rect" : [ 0.0, 0.0, 0.0, 0.0 ],
					"text" : "with RMS",
					"textcolor" : [ 0.0, 0.0, 0.0, 1.0 ],
					"textjustification" : 0,
					"underline" : 0
				}

			}
, 			{
				"box" : 				{
					"background" : 0,
					"bgcolor" : [ 1.0, 1.0, 1.0, 1.0 ],
					"color" : [ 0.8, 0.84, 0.71, 1.0 ],
					"fontface" : 0,
					"fontname" : "Arial",
					"fontsize" : 12.0,
					"hidden" : 0,
					"id" : "obj-17",
					"ignoreclick" : 0,
					"maxclass" : "newobj",
					"numinlets" : 1,
					"numoutlets" : 1,
					"outlettype" : [ "bang" ],
					"patching_rect" : [ 417.0, 97.870789, 60.0, 20.0 ],
					"presentation" : 0,
					"presentation_rect" : [ 0.0, 0.0, 0.0, 0.0 ],
					"text" : "loadbang",
					"textcolor" : [ 0.0, 0.0, 0.0, 1.0 ],
					"textjustification" : 0
				}

			}
, 			{
				"box" : 				{
					"background" : 0,
					"bgcolor" : [ 1.0, 1.0, 1.0, 1.0 ],
					"color" : [ 0.8, 0.84, 0.71, 1.0 ],
					"fontface" : 0,
					"fontname" : "Arial",
					"fontsize" : 12.0,
					"hidden" : 0,
					"id" : "obj-16",
					"ignoreclick" : 0,
					"maxclass" : "newobj",
					"numinlets" : 1,
					"numoutlets" : 2,
					"outlettype" : [ "float", "bang" ],
					"patching_rect" : [ 547.0, 97.870789, 113.0, 20.0 ],
					"presentation" : 0,
					"presentation_rect" : [ 0.0, 0.0, 0.0, 0.0 ],
					"text" : "buffer~ titi anton.aif",
					"textcolor" : [ 0.0, 0.0, 0.0, 1.0 ],
					"textjustification" : 0
				}

			}
, 			{
				"box" : 				{
					"background" : 0,
					"bgcolor" : [ 0.937255, 0.92549, 0.792157, 0.0 ],
					"border_bottom" : 1,
					"border_left" : 1,
					"border_right" : 1,
					"border_top" : 1,
					"bordercolor" : [ 0.0, 0.0, 0.0, 0.0 ],
					"candicane2" : [ 0.14696, 0.2072, 0.35792, 1.0 ],
					"candicane3" : [ 0.29392, 0.41441, 0.71583, 1.0 ],
					"candicane4" : [ 0.44088, 0.62161, 0.07375, 1.0 ],
					"candicane5" : [ 0.58784, 0.82881, 0.43166, 1.0 ],
					"candicane6" : [ 0.7348, 0.03601, 0.78958, 1.0 ],
					"candicane7" : [ 0.88176, 0.24321, 0.14749, 1.0 ],
					"candicane8" : [ 0.02872, 0.45042, 0.50541, 1.0 ],
					"candycane" : 1,
					"compatibility" : 0,
					"contdata" : 0,
					"drawpeaks" : 0,
					"ghostbar" : 0,
					"hidden" : 0,
					"id" : "obj-14",
					"ignoreclick" : 0,
					"maxclass" : "multislider",
					"numinlets" : 1,
					"numoutlets" : 2,
					"orientation" : 1,
					"outlettype" : [ "", "" ],
					"parameter_enable" : 1,
					"patching_rect" : [ 417.0, 205.935394, 212.0, 49.0 ],
					"peakcolor" : [ 0.5, 0.5, 0.5, 1.0 ],
					"presentation" : 0,
					"presentation_rect" : [ 0.0, 0.0, 0.0, 0.0 ],
					"saved_attribute_attributes" : 					{
						"valueof" : 						{
							"parameter_longname" : "multislider[4]",
							"parameter_shortname" : "multislider[1]",
							"parameter_type" : 3,
							"parameter_invisible" : 1
						}

					}
,
					"setminmax" : [ -1.0, 0.0 ],
					"setstyle" : 1,
					"settype" : 1,
					"signed" : 1,
					"size" : 256,
					"slidercolor" : [ 0.042096, 0.31643, 0.389776, 1.0 ],
					"spacing" : 0,
					"thickness" : 2,
					"varname" : "multislider[4]"
				}

			}
, 			{
				"box" : 				{
					"background" : 0,
					"bgcolor" : [ 0.937255, 0.92549, 0.792157, 0.0 ],
					"border_bottom" : 1,
					"border_left" : 1,
					"border_right" : 1,
					"border_top" : 1,
					"bordercolor" : [ 0.0, 0.0, 0.0, 0.0 ],
					"candicane2" : [ 0.14696, 0.2072, 0.35792, 1.0 ],
					"candicane3" : [ 0.29392, 0.41441, 0.71583, 1.0 ],
					"candicane4" : [ 0.44088, 0.62161, 0.07375, 1.0 ],
					"candicane5" : [ 0.58784, 0.82881, 0.43166, 1.0 ],
					"candicane6" : [ 0.7348, 0.03601, 0.78958, 1.0 ],
					"candicane7" : [ 0.88176, 0.24321, 0.14749, 1.0 ],
					"candicane8" : [ 0.02872, 0.45042, 0.50541, 1.0 ],
					"candycane" : 1,
					"compatibility" : 0,
					"contdata" : 0,
					"drawpeaks" : 0,
					"ghostbar" : 0,
					"hidden" : 0,
					"id" : "obj-15",
					"ignoreclick" : 0,
					"maxclass" : "multislider",
					"numinlets" : 1,
					"numoutlets" : 2,
					"orientation" : 1,
					"outlettype" : [ "", "" ],
					"parameter_enable" : 1,
					"patching_rect" : [ 417.0, 157.870789, 212.0, 49.0 ],
					"peakcolor" : [ 0.5, 0.5, 0.5, 1.0 ],
					"presentation" : 0,
					"presentation_rect" : [ 0.0, 0.0, 0.0, 0.0 ],
					"saved_attribute_attributes" : 					{
						"valueof" : 						{
							"parameter_longname" : "multislider[5]",
							"parameter_shortname" : "multislider",
							"parameter_type" : 3,
							"parameter_invisible" : 1
						}

					}
,
					"setminmax" : [ 0.0, 1.0 ],
					"setstyle" : 1,
					"settype" : 1,
					"signed" : 0,
					"size" : 256,
					"slidercolor" : [ 0.042096, 0.31643, 0.389776, 1.0 ],
					"spacing" : 0,
					"thickness" : 2,
					"varname" : "multislider[5]"
				}

			}
, 			{
				"box" : 				{
					"background" : 0,
					"bgcolor" : [ 0.937255, 0.92549, 0.792157, 1.0 ],
					"border_bottom" : 1,
					"border_left" : 1,
					"border_right" : 1,
					"border_top" : 1,
					"bordercolor" : [ 0.0, 0.0, 0.0, 0.0 ],
					"candicane2" : [ 0.14696, 0.2072, 0.35792, 1.0 ],
					"candicane3" : [ 0.29392, 0.41441, 0.71583, 1.0 ],
					"candicane4" : [ 0.44088, 0.62161, 0.07375, 1.0 ],
					"candicane5" : [ 0.58784, 0.82881, 0.43166, 1.0 ],
					"candicane6" : [ 0.7348, 0.03601, 0.78958, 1.0 ],
					"candicane7" : [ 0.88176, 0.24321, 0.14749, 1.0 ],
					"candicane8" : [ 0.02872, 0.45042, 0.50541, 1.0 ],
					"candycane" : 1,
					"compatibility" : 0,
					"contdata" : 0,
					"drawpeaks" : 0,
					"ghostbar" : 0,
					"hidden" : 0,
					"id" : "obj-11",
					"ignoreclick" : 0,
					"maxclass" : "multislider",
					"numinlets" : 1,
					"numoutlets" : 2,
					"orientation" : 1,
					"outlettype" : [ "", "" ],
					"parameter_enable" : 1,
					"patching_rect" : [ 417.0, 205.935394, 212.0, 49.0 ],
					"peakcolor" : [ 0.5, 0.5, 0.5, 1.0 ],
					"presentation" : 0,
					"presentation_rect" : [ 0.0, 0.0, 0.0, 0.0 ],
					"saved_attribute_attributes" : 					{
						"valueof" : 						{
							"parameter_longname" : "multislider[2]",
							"parameter_shortname" : "multislider[1]",
							"parameter_type" : 3,
							"parameter_invisible" : 1
						}

					}
,
					"setminmax" : [ -1.0, 0.0 ],
					"setstyle" : 1,
					"settype" : 1,
					"signed" : 1,
					"size" : 256,
					"slidercolor" : [ 0.054902, 0.47451, 0.6, 1.0 ],
					"spacing" : 0,
					"thickness" : 2,
					"varname" : "multislider[2]"
				}

			}
, 			{
				"box" : 				{
					"background" : 0,
					"bgcolor" : [ 0.937255, 0.92549, 0.792157, 1.0 ],
					"border_bottom" : 1,
					"border_left" : 1,
					"border_right" : 1,
					"border_top" : 1,
					"bordercolor" : [ 0.0, 0.0, 0.0, 0.0 ],
					"candicane2" : [ 0.14696, 0.2072, 0.35792, 1.0 ],
					"candicane3" : [ 0.29392, 0.41441, 0.71583, 1.0 ],
					"candicane4" : [ 0.44088, 0.62161, 0.07375, 1.0 ],
					"candicane5" : [ 0.58784, 0.82881, 0.43166, 1.0 ],
					"candicane6" : [ 0.7348, 0.03601, 0.78958, 1.0 ],
					"candicane7" : [ 0.88176, 0.24321, 0.14749, 1.0 ],
					"candicane8" : [ 0.02872, 0.45042, 0.50541, 1.0 ],
					"candycane" : 1,
					"compatibility" : 0,
					"contdata" : 0,
					"drawpeaks" : 0,
					"ghostbar" : 0,
					"hidden" : 0,
					"id" : "obj-12",
					"ignoreclick" : 0,
					"maxclass" : "multislider",
					"numinlets" : 1,
					"numoutlets" : 2,
					"orientation" : 1,
					"outlettype" : [ "", "" ],
					"parameter_enable" : 1,
					"patching_rect" : [ 417.0, 157.870789, 212.0, 49.0 ],
					"peakcolor" : [ 0.5, 0.5, 0.5, 1.0 ],
					"presentation" : 0,
					"presentation_rect" : [ 0.0, 0.0, 0.0, 0.0 ],
					"saved_attribute_attributes" : 					{
						"valueof" : 						{
							"parameter_longname" : "multislider[3]",
							"parameter_shortname" : "multislider",
							"parameter_type" : 3,
							"parameter_invisible" : 1
						}

					}
,
					"setminmax" : [ 0.0, 1.0 ],
					"setstyle" : 1,
					"settype" : 1,
					"signed" : 0,
					"size" : 256,
					"slidercolor" : [ 0.054902, 0.47451, 0.6, 1.0 ],
					"spacing" : 0,
					"thickness" : 2,
					"varname" : "multislider[3]"
				}

			}
, 			{
				"box" : 				{
					"background" : 0,
					"bgcolor" : [ 1.0, 1.0, 1.0, 1.0 ],
					"color" : [ 0.8, 0.84, 0.71, 1.0 ],
					"fontface" : 0,
					"fontname" : "Arial",
					"fontsize" : 12.0,
					"hidden" : 0,
					"id" : "obj-13",
					"ignoreclick" : 0,
					"maxclass" : "newobj",
					"numinlets" : 1,
					"numoutlets" : 4,
					"outlettype" : [ "", "", "", "" ],
					"patching_rect" : [ 417.0, 129.870789, 243.0, 20.0 ],
					"presentation" : 0,
					"presentation_rect" : [ 0.0, 0.0, 0.0, 0.0 ],
					"text" : "mxj ej.buffer2l @buf_name titi @grain 256",
					"textcolor" : [ 0.0, 0.0, 0.0, 1.0 ],
					"textjustification" : 0
				}

			}
, 			{
				"box" : 				{
					"background" : 0,
					"bgcolor" : [ 0.867, 0.867, 0.867, 1.0 ],
					"bgcolor2" : [ 0.867, 0.867, 0.867, 1.0 ],
					"fontface" : 0,
					"fontname" : "Arial",
					"fontsize" : 12.0,
					"gradient" : 0,
					"hidden" : 0,
					"id" : "obj-4",
					"ignoreclick" : 0,
					"maxclass" : "message",
					"numinlets" : 2,
					"numoutlets" : 1,
					"outlettype" : [ "" ],
					"patching_rect" : [ 62.0, 133.870789, 110.0, 18.0 ],
					"presentation" : 0,
					"presentation_rect" : [ 0.0, 0.0, 0.0, 0.0 ],
					"text" : "replace X.pulse.aif",
					"textcolor" : [ 0.0, 0.0, 0.0, 1.0 ],
					"textjustification" : 0
				}

			}
, 			{
				"box" : 				{
					"background" : 0,
					"bgcolor" : [ 0.867, 0.867, 0.867, 1.0 ],
					"bgcolor2" : [ 0.867, 0.867, 0.867, 1.0 ],
					"fontface" : 0,
					"fontname" : "Arial",
					"fontsize" : 12.0,
					"gradient" : 0,
					"hidden" : 0,
					"id" : "obj-30",
					"ignoreclick" : 0,
					"maxclass" : "message",
					"numinlets" : 2,
					"numoutlets" : 1,
					"outlettype" : [ "" ],
					"patching_rect" : [ 50.0, 109.870789, 124.0, 18.0 ],
					"presentation" : 0,
					"presentation_rect" : [ 0.0, 0.0, 0.0, 0.0 ],
					"text" : "replace drumLoop.aif",
					"textcolor" : [ 0.0, 0.0, 0.0, 1.0 ],
					"textjustification" : 0
				}

			}
, 			{
				"box" : 				{
					"background" : 0,
					"bgcolor" : [ 0.867, 0.867, 0.867, 1.0 ],
					"bgcolor2" : [ 0.867, 0.867, 0.867, 1.0 ],
					"fontface" : 0,
					"fontname" : "Arial",
					"fontsize" : 12.0,
					"gradient" : 0,
					"hidden" : 0,
					"id" : "obj-29",
					"ignoreclick" : 0,
					"maxclass" : "message",
					"numinlets" : 2,
					"numoutlets" : 1,
					"outlettype" : [ "" ],
					"patching_rect" : [ 82.0, 157.870789, 113.0, 18.0 ],
					"presentation" : 0,
					"presentation_rect" : [ 0.0, 0.0, 0.0, 0.0 ],
					"text" : "replace anton.aif",
					"textcolor" : [ 0.0, 0.0, 0.0, 1.0 ],
					"textjustification" : 0
				}

			}
, 			{
				"box" : 				{
					"background" : 0,
					"bgcolor" : [ 0.867, 0.867, 0.867, 1.0 ],
					"bgcolor2" : [ 0.867, 0.867, 0.867, 1.0 ],
					"fontface" : 0,
					"fontname" : "Arial",
					"fontsize" : 12.0,
					"gradient" : 0,
					"hidden" : 0,
					"id" : "obj-26",
					"ignoreclick" : 0,
					"maxclass" : "message",
					"numinlets" : 2,
					"numoutlets" : 1,
					"outlettype" : [ "" ],
					"patching_rect" : [ 34.0, 83.870789, 113.0, 18.0 ],
					"presentation" : 0,
					"presentation_rect" : [ 0.0, 0.0, 0.0, 0.0 ],
					"text" : "replace rainstick.aif",
					"textcolor" : [ 0.0, 0.0, 0.0, 1.0 ],
					"textjustification" : 0
				}

			}
, 			{
				"box" : 				{
					"background" : 0,
					"bgcolor" : [ 0.937255, 0.92549, 0.792157, 1.0 ],
					"border_bottom" : 1,
					"border_left" : 1,
					"border_right" : 1,
					"border_top" : 1,
					"bordercolor" : [ 0.0, 0.0, 0.0, 0.0 ],
					"candicane2" : [ 0.14696, 0.2072, 0.35792, 1.0 ],
					"candicane3" : [ 0.29392, 0.41441, 0.71583, 1.0 ],
					"candicane4" : [ 0.44088, 0.62161, 0.07375, 1.0 ],
					"candicane5" : [ 0.58784, 0.82881, 0.43166, 1.0 ],
					"candicane6" : [ 0.7348, 0.03601, 0.78958, 1.0 ],
					"candicane7" : [ 0.88176, 0.24321, 0.14749, 1.0 ],
					"candicane8" : [ 0.02872, 0.45042, 0.50541, 1.0 ],
					"candycane" : 1,
					"compatibility" : 0,
					"contdata" : 0,
					"drawpeaks" : 0,
					"ghostbar" : 0,
					"hidden" : 0,
					"id" : "obj-10",
					"ignoreclick" : 0,
					"maxclass" : "multislider",
					"numinlets" : 1,
					"numoutlets" : 2,
					"orientation" : 1,
					"outlettype" : [ "", "" ],
					"parameter_enable" : 1,
					"patching_rect" : [ 34.0, 356.870789, 212.0, 49.0 ],
					"peakcolor" : [ 0.5, 0.5, 0.5, 1.0 ],
					"presentation" : 0,
					"presentation_rect" : [ 0.0, 0.0, 0.0, 0.0 ],
					"saved_attribute_attributes" : 					{
						"valueof" : 						{
							"parameter_longname" : "multislider[1]",
							"parameter_shortname" : "multislider[1]",
							"parameter_type" : 3,
							"parameter_invisible" : 1
						}

					}
,
					"setminmax" : [ -1.0, 0.0 ],
					"setstyle" : 1,
					"settype" : 1,
					"signed" : 1,
					"size" : 256,
					"slidercolor" : [ 0.054902, 0.47451, 0.6, 1.0 ],
					"spacing" : 0,
					"thickness" : 2,
					"varname" : "multislider[1]"
				}

			}
, 			{
				"box" : 				{
					"background" : 0,
					"bgcolor" : [ 0.91328, 0.91328, 0.91328, 0.75 ],
					"blinkcolor" : [ 1.0, 0.890196, 0.090196, 1.0 ],
					"fgcolor" : [ 1.0, 1.0, 1.0, 1.0 ],
					"hidden" : 0,
					"id" : "obj-6",
					"ignoreclick" : 0,
					"maxclass" : "button",
					"numinlets" : 1,
					"numoutlets" : 1,
					"outlettype" : [ "bang" ],
					"outlinecolor" : [ 0.71328, 0.71328, 0.71328, 1.0 ],
					"patching_rect" : [ 34.0, 228.870789, 20.0, 20.0 ],
					"presentation" : 0,
					"presentation_rect" : [ 0.0, 0.0, 0.0, 0.0 ]
				}

			}
, 			{
				"box" : 				{
					"background" : 0,
					"bgcolor" : [ 0.937255, 0.92549, 0.792157, 1.0 ],
					"border_bottom" : 1,
					"border_left" : 1,
					"border_right" : 1,
					"border_top" : 1,
					"bordercolor" : [ 0.0, 0.0, 0.0, 0.0 ],
					"candicane2" : [ 0.14696, 0.2072, 0.35792, 1.0 ],
					"candicane3" : [ 0.29392, 0.41441, 0.71583, 1.0 ],
					"candicane4" : [ 0.44088, 0.62161, 0.07375, 1.0 ],
					"candicane5" : [ 0.58784, 0.82881, 0.43166, 1.0 ],
					"candicane6" : [ 0.7348, 0.03601, 0.78958, 1.0 ],
					"candicane7" : [ 0.88176, 0.24321, 0.14749, 1.0 ],
					"candicane8" : [ 0.02872, 0.45042, 0.50541, 1.0 ],
					"candycane" : 1,
					"compatibility" : 0,
					"contdata" : 0,
					"drawpeaks" : 0,
					"ghostbar" : 0,
					"hidden" : 0,
					"id" : "obj-7",
					"ignoreclick" : 0,
					"maxclass" : "multislider",
					"numinlets" : 1,
					"numoutlets" : 2,
					"orientation" : 1,
					"outlettype" : [ "", "" ],
					"parameter_enable" : 1,
					"patching_rect" : [ 34.0, 308.806183, 212.0, 49.0 ],
					"peakcolor" : [ 0.5, 0.5, 0.5, 1.0 ],
					"presentation" : 0,
					"presentation_rect" : [ 0.0, 0.0, 0.0, 0.0 ],
					"saved_attribute_attributes" : 					{
						"valueof" : 						{
							"parameter_longname" : "multislider",
							"parameter_shortname" : "multislider",
							"parameter_type" : 3,
							"parameter_invisible" : 1
						}

					}
,
					"setminmax" : [ 0.0, 1.0 ],
					"setstyle" : 1,
					"settype" : 1,
					"signed" : 0,
					"size" : 256,
					"slidercolor" : [ 0.054902, 0.47451, 0.6, 1.0 ],
					"spacing" : 0,
					"thickness" : 2,
					"varname" : "multislider"
				}

			}
, 			{
				"box" : 				{
					"background" : 0,
					"bgcolor" : [ 1.0, 1.0, 1.0, 1.0 ],
					"color" : [ 0.8, 0.84, 0.71, 1.0 ],
					"fontface" : 0,
					"fontname" : "Arial",
					"fontsize" : 12.0,
					"hidden" : 0,
					"id" : "obj-8",
					"ignoreclick" : 0,
					"maxclass" : "newobj",
					"numinlets" : 1,
					"numoutlets" : 2,
					"outlettype" : [ "float", "bang" ],
					"patching_rect" : [ 34.0, 197.870789, 121.0, 20.0 ],
					"presentation" : 0,
					"presentation_rect" : [ 0.0, 0.0, 0.0, 0.0 ],
					"text" : "buffer~ toto anton.aif",
					"textcolor" : [ 0.0, 0.0, 0.0, 1.0 ],
					"textjustification" : 0
				}

			}
, 			{
				"box" : 				{
					"background" : 0,
					"bgcolor" : [ 1.0, 1.0, 1.0, 1.0 ],
					"color" : [ 0.8, 0.84, 0.71, 1.0 ],
					"fontface" : 0,
					"fontname" : "Arial",
					"fontsize" : 12.0,
					"hidden" : 0,
					"id" : "obj-9",
					"ignoreclick" : 0,
					"maxclass" : "newobj",
					"numinlets" : 1,
					"numoutlets" : 4,
					"outlettype" : [ "", "", "", "" ],
					"patching_rect" : [ 34.0, 258.870789, 243.0, 20.0 ],
					"presentation" : 0,
					"presentation_rect" : [ 0.0, 0.0, 0.0, 0.0 ],
					"text" : "mxj ej.buffer2l @buf_name toto @grain 256",
					"textcolor" : [ 0.0, 0.0, 0.0, 1.0 ],
					"textjustification" : 0
				}

			}
, 			{
				"box" : 				{
					"background" : 0,
					"bgcolor" : [ 1.0, 1.0, 1.0, 0.0 ],
					"bubble" : 0,
					"bubblepoint" : 0.5,
					"bubbleside" : 1,
					"bubbletextmargin" : 5,
					"fontface" : 3,
					"fontname" : "Arial",
					"fontsize" : 20.871338,
					"frgb" : 0.0,
					"hidden" : 0,
					"id" : "obj-49",
					"ignoreclick" : 1,
					"maxclass" : "comment",
					"numinlets" : 1,
					"numoutlets" : 0,
					"patching_rect" : [ 19.719757, 12.719761, 166.0, 30.0 ],
					"presentation" : 1,
					"presentation_rect" : [ 151.0, 152.0, 166.0, 30.0 ],
					"text" : "ej.buffer2l",
					"textcolor" : [ 0.937255, 0.92549, 0.792157, 1.0 ],
					"textjustification" : 0,
					"underline" : 0
				}

			}
, 			{
				"box" : 				{
					"background" : 0,
					"bgcolor" : [ 1.0, 1.0, 1.0, 0.0 ],
					"bubble" : 0,
					"bubblepoint" : 0.5,
					"bubbleside" : 1,
					"bubbletextmargin" : 5,
					"fontface" : 0,
					"fontname" : "Arial",
					"fontsize" : 11.595187,
					"frgb" : 0.0,
					"hidden" : 0,
					"id" : "obj-24",
					"ignoreclick" : 1,
					"maxclass" : "comment",
					"numinlets" : 1,
					"numoutlets" : 0,
					"patching_rect" : [ 19.719757, 44.0, 213.0, 19.0 ],
					"presentation" : 0,
					"presentation_rect" : [ 0.0, 0.0, 0.0, 0.0 ],
					"text" : "get \"meaningful\" samples out of buffer~",
					"textcolor" : [ 1.0, 1.0, 1.0, 1.0 ],
					"textjustification" : 0,
					"underline" : 0
				}

			}
, 			{
				"box" : 				{
					"angle" : 0.0,
					"arrow_orientation" : 0,
					"background" : 0,
					"bgcolor" : [ 0.015686, 0.388235, 0.501961, 1.0 ],
					"border" : 0,
					"bordercolor" : [ 0.0, 0.0, 0.0, 1.0 ],
					"drag_window" : 0,
					"grad1" : [ 0.75, 0.79, 0.93, 1.0 ],
					"grad2" : [ 0.66, 0.66, 0.72, 1.0 ],
					"hidden" : 0,
					"horizontal_direction" : 0,
					"id" : "obj-83",
					"ignoreclick" : 1,
					"maxclass" : "panel",
					"mode" : 0,
					"numinlets" : 1,
					"numoutlets" : 0,
					"patching_rect" : [ 13.719757, 8.719761, 382.01355, 57.248684 ],
					"presentation" : 1,
					"presentation_rect" : [ 146.0, 148.0, 632.0, 58.0 ],
					"rounded" : 8,
					"shadow" : -1,
					"shape" : 0,
					"vertical_direction" : 0
				}

			}
, 			{
				"box" : 				{
					"active" : 1,
					"align" : 1,
					"background" : 0,
					"bgcolor" : [ 0.937255, 0.92549, 0.792157, 1.0 ],
					"bgoncolor" : [ 0.937255, 0.92549, 0.792157, 1.0 ],
					"bgovercolor" : [ 0.937255, 0.92549, 0.792157, 1.0 ],
					"bgoveroncolor" : [ 0.937255, 0.92549, 0.792157, 1.0 ],
					"blinktime" : 150,
					"border" : 2,
					"bordercolor" : [ 0.937255, 0.92549, 0.792157, 1.0 ],
					"borderoncolor" : [ 0.937255, 0.92549, 0.792157, 1.0 ],
					"fontface" : 3,
					"fontlink" : 1,
					"fontname" : "Arial",
					"fontsize" : 13.914225,
					"hidden" : 0,
					"id" : "obj-55",
					"ignoreclick" : 0,
					"maxclass" : "textbutton",
					"mode" : 0,
					"numinlets" : 1,
					"numoutlets" : 3,
					"outlettype" : [ "", "", "int" ],
					"outputmode" : 1,
					"parameter_enable" : 0,
					"patching_rect" : [ 399.0, 23.0, 147.471756, 23.544798 ],
					"presentation" : 0,
					"presentation_rect" : [ 105.0, 105.0, 147.471756, 23.544798 ],
					"rounded" : 14.0,
					"spacing_x" : 4.0,
					"spacing_y" : 4.0,
					"text" : "open ejies overview",
					"textcolor" : [ 0.015686, 0.388235, 0.501961, 1.0 ],
					"texton" : "Button On",
					"textoncolor" : [ 0.184314, 0.65098, 0.792157, 1.0 ],
					"textovercolor" : [ 0.054902, 0.47451, 0.6, 1.0 ],
					"textoveroncolor" : [ 0.015686, 0.388235, 0.501961, 1.0 ],
					"tosymbol" : 1,
					"truncate" : 1,
					"underline" : 0
				}

			}
, 			{
				"box" : 				{
					"background" : 0,
					"dragtrack" : 0,
					"handoff" : "",
					"handoffdelay" : 250,
					"hidden" : 0,
					"hilite" : 0,
					"hltcolor" : [ 0.475, 0.695, 1.0, 0.5 ],
					"id" : "obj-48",
					"ignoreclick" : 0,
					"maxclass" : "ubutton",
					"numinlets" : 1,
					"numoutlets" : 4,
					"outlettype" : [ "bang", "bang", "", "int" ],
					"patching_rect" : [ 595.0, 379.935394, 159.0, 21.0 ],
					"presentation" : 1,
					"presentation_rect" : [ 626.455444, 453.968689, 155.0, 18.0 ],
					"rounded" : 0.0,
					"stay" : 0,
					"toggle" : 0
				}

			}
, 			{
				"box" : 				{
					"background" : 0,
					"bgcolor" : [ 1.0, 1.0, 1.0, 1.0 ],
					"bgcolor2" : [ 0.867, 0.867, 0.867, 1.0 ],
					"fontface" : 0,
					"fontname" : "Arial",
					"fontsize" : 9.160198,
					"gradient" : 0,
					"hidden" : 1,
					"id" : "obj-50",
					"ignoreclick" : 0,
					"linecount" : 2,
					"maxclass" : "message",
					"numinlets" : 2,
					"numoutlets" : 1,
					"outlettype" : [ "" ],
					"patching_rect" : [ 399.0, 428.0, 370.0, 25.0 ],
					"presentation" : 0,
					"presentation_rect" : [ 0.0, 0.0, 0.0, 0.0 ],
					"text" : ";\rmax launchbrowser http://support.e--j.com",
					"textcolor" : [ 0.0, 0.0, 0.0, 1.0 ],
					"textjustification" : 0
				}

			}
, 			{
				"box" : 				{
					"background" : 0,
					"bgcolor" : [ 1.0, 1.0, 1.0, 0.0 ],
					"bubble" : 0,
					"bubblepoint" : 0.5,
					"bubbleside" : 1,
					"bubbletextmargin" : 5,
					"fontface" : 0,
					"fontname" : "Arial",
					"fontsize" : 11.595187,
					"frgb" : 0.0,
					"hidden" : 0,
					"id" : "obj-51",
					"ignoreclick" : 1,
					"maxclass" : "comment",
					"numinlets" : 1,
					"numoutlets" : 0,
					"patching_rect" : [ 596.0, 380.935394, 166.0, 19.0 ],
					"presentation" : 1,
					"presentation_rect" : [ 626.0, 453.0, 166.0, 19.0 ],
					"text" : " Emmanuel Jourdan, e--j dev",
					"textcolor" : [ 0.356863, 0.356863, 0.356863, 1.0 ],
					"textjustification" : 0,
					"underline" : 0
				}

			}
, 			{
				"box" : 				{
					"background" : 0,
					"bgcolor" : [ 1.0, 1.0, 1.0, 1.0 ],
					"color" : [ 0.8, 0.84, 0.71, 1.0 ],
					"fontface" : 0,
					"fontname" : "Arial",
					"fontsize" : 11.595187,
					"hidden" : 1,
					"id" : "obj-47",
					"ignoreclick" : 0,
					"maxclass" : "newobj",
					"numinlets" : 4,
					"numoutlets" : 0,
					"patching_rect" : [ 380.677704, 380.870789, 210.0, 19.0 ],
					"presentation" : 0,
					"presentation_rect" : [ 0.0, 0.0, 0.0, 0.0 ],
					"text" : "bgcolor 0.937255 0.92549 0.792157 1.",
					"textcolor" : [ 0.0, 0.0, 0.0, 1.0 ],
					"textjustification" : 0
				}

			}
, 			{
				"box" : 				{
					"background" : 0,
					"bgcolor" : [ 1.0, 1.0, 1.0, 1.0 ],
					"bgcolor2" : [ 0.867, 0.867, 0.867, 1.0 ],
					"fontface" : 0,
					"fontname" : "Arial",
					"fontsize" : 11.595187,
					"gradient" : 0,
					"hidden" : 1,
					"id" : "obj-22",
					"ignoreclick" : 0,
					"maxclass" : "message",
					"numinlets" : 2,
					"numoutlets" : 1,
					"outlettype" : [ "" ],
					"patching_rect" : [ 532.0, 22.0, 149.0, 17.0 ],
					"presentation" : 0,
					"presentation_rect" : [ 0.0, 0.0, 0.0, 0.0 ],
					"text" : "load ejies-overview.maxpat",
					"textcolor" : [ 0.0, 0.0, 0.0, 1.0 ],
					"textjustification" : 0
				}

			}
, 			{
				"box" : 				{
					"background" : 0,
					"bgcolor" : [ 1.0, 1.0, 1.0, 1.0 ],
					"color" : [ 1.0, 1.0, 1.0, 1.0 ],
					"fontface" : 0,
					"fontname" : "Arial",
					"fontsize" : 11.595187,
					"hidden" : 1,
					"id" : "obj-32",
					"ignoreclick" : 0,
					"maxclass" : "newobj",
					"numinlets" : 1,
					"numoutlets" : 1,
					"outlettype" : [ "" ],
					"patching_rect" : [ 532.0, 41.0, 57.0, 19.0 ],
					"presentation" : 0,
					"presentation_rect" : [ 0.0, 0.0, 0.0, 0.0 ],
					"text" : "pcontrol",
					"textcolor" : [ 0.0, 0.0, 0.0, 1.0 ],
					"textjustification" : 0
				}

			}
, 			{
				"box" : 				{
					"background" : 0,
					"bgcolor" : [ 1.0, 1.0, 1.0, 1.0 ],
					"color" : [ 0.8, 0.84, 0.71, 1.0 ],
					"fontface" : 0,
					"fontname" : "Arial",
					"fontsize" : 12.0,
					"hidden" : 0,
					"id" : "obj-21",
					"ignoreclick" : 0,
					"maxclass" : "newobj",
					"numinlets" : 0,
					"numoutlets" : 0,
					"patcher" : 					{
						"fileversion" : 1,
						"appversion" : 						{
							"major" : 6,
							"minor" : 1,
							"revision" : 3,
							"architecture" : "x86"
						}
,
						"rect" : [ 435.0, 44.0, 410.0, 404.0 ],
						"bgcolor" : [ 0.937255, 0.92549, 0.792157, 1.0 ],
						"bglocked" : 0,
						"openinpresentation" : 0,
						"default_fontsize" : 10.0,
						"default_fontface" : 0,
						"default_fontname" : "Arial",
						"gridonopen" : 0,
						"gridsize" : [ 15.0, 15.0 ],
						"gridsnaponopen" : 0,
						"statusbarvisible" : 2,
						"toolbarvisible" : 1,
						"boxanimatetime" : 200,
						"imprint" : 0,
						"enablehscroll" : 1,
						"enablevscroll" : 1,
						"devicewidth" : 0.0,
						"description" : "",
						"digest" : "",
						"tags" : "",
						"boxes" : [ 							{
								"box" : 								{
									"bgcolor" : [ 0.937255, 0.92549, 0.792157, 1.0 ],
									"bordercolor" : [ 0.0, 0.0, 0.0, 0.0 ],
									"id" : "obj-1",
									"maxclass" : "multislider",
									"numinlets" : 1,
									"numoutlets" : 2,
									"outlettype" : [ "", "" ],
									"parameter_enable" : 1,
									"patching_rect" : [ 46.0, 316.870789, 212.0, 49.0 ],
									"saved_attribute_attributes" : 									{
										"valueof" : 										{
											"parameter_longname" : "multislider[8]",
											"parameter_shortname" : "multislider[1]",
											"parameter_type" : 3,
											"parameter_invisible" : 1
										}

									}
,
									"setminmax" : [ -1.0, 0.0 ],
									"setstyle" : 1,
									"signed" : 1,
									"size" : 256,
									"slidercolor" : [ 0.054902, 0.47451, 0.6, 1.0 ],
									"varname" : "multislider[2]"
								}

							}
, 							{
								"box" : 								{
									"bgcolor" : [ 0.937255, 0.92549, 0.792157, 1.0 ],
									"bordercolor" : [ 0.0, 0.0, 0.0, 0.0 ],
									"id" : "obj-2",
									"maxclass" : "multislider",
									"numinlets" : 1,
									"numoutlets" : 2,
									"outlettype" : [ "", "" ],
									"parameter_enable" : 1,
									"patching_rect" : [ 46.0, 268.806183, 212.0, 49.0 ],
									"saved_attribute_attributes" : 									{
										"valueof" : 										{
											"parameter_longname" : "multislider[9]",
											"parameter_shortname" : "multislider",
											"parameter_type" : 3,
											"parameter_invisible" : 1
										}

									}
,
									"setminmax" : [ 0.0, 1.0 ],
									"setstyle" : 1,
									"size" : 256,
									"slidercolor" : [ 0.054902, 0.47451, 0.6, 1.0 ],
									"varname" : "multislider[3]"
								}

							}
, 							{
								"box" : 								{
									"fontname" : "Arial",
									"fontsize" : 12.0,
									"id" : "obj-3",
									"maxclass" : "newobj",
									"numinlets" : 1,
									"numoutlets" : 4,
									"outlettype" : [ "", "", "", "" ],
									"patching_rect" : [ 46.0, 218.870789, 310.0, 20.0 ],
									"text" : "mxj ej.buffer2l @buf_name toto @grain 256 @channel 2"
								}

							}
, 							{
								"box" : 								{
									"bgcolor" : [ 0.937255, 0.92549, 0.792157, 1.0 ],
									"bordercolor" : [ 0.0, 0.0, 0.0, 0.0 ],
									"id" : "obj-10",
									"maxclass" : "multislider",
									"numinlets" : 1,
									"numoutlets" : 2,
									"outlettype" : [ "", "" ],
									"parameter_enable" : 1,
									"patching_rect" : [ 46.0, 150.870789, 212.0, 49.0 ],
									"saved_attribute_attributes" : 									{
										"valueof" : 										{
											"parameter_longname" : "multislider[6]",
											"parameter_shortname" : "multislider[1]",
											"parameter_type" : 3,
											"parameter_invisible" : 1
										}

									}
,
									"setminmax" : [ -1.0, 0.0 ],
									"setstyle" : 1,
									"signed" : 1,
									"size" : 256,
									"slidercolor" : [ 0.054902, 0.47451, 0.6, 1.0 ],
									"varname" : "multislider[1]"
								}

							}
, 							{
								"box" : 								{
									"bgcolor" : [ 0.937255, 0.92549, 0.792157, 1.0 ],
									"bordercolor" : [ 0.0, 0.0, 0.0, 0.0 ],
									"id" : "obj-7",
									"maxclass" : "multislider",
									"numinlets" : 1,
									"numoutlets" : 2,
									"outlettype" : [ "", "" ],
									"parameter_enable" : 1,
									"patching_rect" : [ 46.0, 102.806183, 212.0, 49.0 ],
									"saved_attribute_attributes" : 									{
										"valueof" : 										{
											"parameter_longname" : "multislider[7]",
											"parameter_shortname" : "multislider",
											"parameter_type" : 3,
											"parameter_invisible" : 1
										}

									}
,
									"setminmax" : [ 0.0, 1.0 ],
									"setstyle" : 1,
									"size" : 256,
									"slidercolor" : [ 0.054902, 0.47451, 0.6, 1.0 ],
									"varname" : "multislider"
								}

							}
, 							{
								"box" : 								{
									"fontname" : "Arial",
									"fontsize" : 12.0,
									"id" : "obj-9",
									"maxclass" : "newobj",
									"numinlets" : 1,
									"numoutlets" : 4,
									"outlettype" : [ "", "", "", "" ],
									"patching_rect" : [ 46.0, 52.870789, 310.0, 20.0 ],
									"text" : "mxj ej.buffer2l @buf_name toto @grain 256 @channel 1"
								}

							}
 ],
						"lines" : [ 							{
								"patchline" : 								{
									"destination" : [ "obj-1", 0 ],
									"disabled" : 0,
									"hidden" : 1,
									"source" : [ "obj-3", 1 ]
								}

							}
, 							{
								"patchline" : 								{
									"destination" : [ "obj-2", 0 ],
									"disabled" : 0,
									"hidden" : 0,
									"source" : [ "obj-3", 0 ]
								}

							}
, 							{
								"patchline" : 								{
									"destination" : [ "obj-10", 0 ],
									"disabled" : 0,
									"hidden" : 1,
									"source" : [ "obj-9", 1 ]
								}

							}
, 							{
								"patchline" : 								{
									"destination" : [ "obj-7", 0 ],
									"disabled" : 0,
									"hidden" : 0,
									"source" : [ "obj-9", 0 ]
								}

							}
 ]
					}
,
					"patching_rect" : [ 417.0, 287.806183, 89.0, 20.0 ],
					"presentation" : 0,
					"presentation_rect" : [ 0.0, 0.0, 0.0, 0.0 ],
					"saved_object_attributes" : 					{
						"default_fontface" : 0,
						"default_fontname" : "Arial",
						"default_fontsize" : 10.0,
						"description" : "",
						"digest" : "",
						"fontface" : 0,
						"fontname" : "Arial",
						"fontsize" : 10.0,
						"globalpatchername" : "",
						"tags" : ""
					}
,
					"text" : "p multichannel",
					"textcolor" : [ 0.0, 0.0, 0.0, 1.0 ],
					"textjustification" : 0
				}

			}
 ],
		"lines" : [ 			{
				"patchline" : 				{
					"color" : [ 0.8, 0.8, 0.8, 0.9 ],
					"destination" : [ "obj-3", 0 ],
					"disabled" : 0,
					"hidden" : 0,
					"source" : [ "obj-1", 0 ]
				}

			}
, 			{
				"patchline" : 				{
					"color" : [ 0.8, 0.8, 0.8, 0.9 ],
					"destination" : [ "obj-11", 0 ],
					"disabled" : 0,
					"hidden" : 0,
					"source" : [ "obj-13", 1 ]
				}

			}
, 			{
				"patchline" : 				{
					"color" : [ 0.8, 0.8, 0.8, 0.9 ],
					"destination" : [ "obj-12", 0 ],
					"disabled" : 0,
					"hidden" : 0,
					"source" : [ "obj-13", 0 ]
				}

			}
, 			{
				"patchline" : 				{
					"color" : [ 0.8, 0.8, 0.8, 0.9 ],
					"destination" : [ "obj-14", 0 ],
					"disabled" : 0,
					"hidden" : 0,
					"source" : [ "obj-13", 3 ]
				}

			}
, 			{
				"patchline" : 				{
					"color" : [ 0.8, 0.8, 0.8, 0.9 ],
					"destination" : [ "obj-15", 0 ],
					"disabled" : 0,
					"hidden" : 0,
					"source" : [ "obj-13", 2 ]
				}

			}
, 			{
				"patchline" : 				{
					"color" : [ 0.8, 0.8, 0.8, 0.9 ],
					"destination" : [ "obj-13", 0 ],
					"disabled" : 0,
					"hidden" : 0,
					"source" : [ "obj-17", 0 ]
				}

			}
, 			{
				"patchline" : 				{
					"color" : [ 0.8, 0.8, 0.8, 0.9 ],
					"destination" : [ "obj-1", 0 ],
					"disabled" : 0,
					"hidden" : 1,
					"source" : [ "obj-2", 0 ]
				}

			}
, 			{
				"patchline" : 				{
					"color" : [ 0.0, 0.0, 0.0, 1.0 ],
					"destination" : [ "obj-32", 0 ],
					"disabled" : 0,
					"hidden" : 1,
					"source" : [ "obj-22", 0 ]
				}

			}
, 			{
				"patchline" : 				{
					"color" : [ 0.8, 0.8, 0.8, 0.9 ],
					"destination" : [ "obj-8", 0 ],
					"disabled" : 0,
					"hidden" : 0,
					"source" : [ "obj-26", 0 ]
				}

			}
, 			{
				"patchline" : 				{
					"color" : [ 0.8, 0.8, 0.8, 0.9 ],
					"destination" : [ "obj-8", 0 ],
					"disabled" : 0,
					"hidden" : 0,
					"source" : [ "obj-29", 0 ]
				}

			}
, 			{
				"patchline" : 				{
					"color" : [ 0.8, 0.8, 0.8, 0.9 ],
					"destination" : [ "obj-9", 0 ],
					"disabled" : 0,
					"hidden" : 0,
					"source" : [ "obj-3", 0 ]
				}

			}
, 			{
				"patchline" : 				{
					"color" : [ 0.8, 0.8, 0.8, 0.9 ],
					"destination" : [ "obj-8", 0 ],
					"disabled" : 0,
					"hidden" : 0,
					"source" : [ "obj-30", 0 ]
				}

			}
, 			{
				"patchline" : 				{
					"color" : [ 0.8, 0.8, 0.8, 0.9 ],
					"destination" : [ "obj-8", 0 ],
					"disabled" : 0,
					"hidden" : 0,
					"source" : [ "obj-4", 0 ]
				}

			}
, 			{
				"patchline" : 				{
					"color" : [ 0.0, 0.0, 0.0, 1.0 ],
					"destination" : [ "obj-50", 0 ],
					"disabled" : 0,
					"hidden" : 1,
					"source" : [ "obj-48", 1 ]
				}

			}
, 			{
				"patchline" : 				{
					"color" : [ 0.0, 0.0, 0.0, 1.0 ],
					"destination" : [ "obj-22", 0 ],
					"disabled" : 0,
					"hidden" : 1,
					"source" : [ "obj-55", 0 ]
				}

			}
, 			{
				"patchline" : 				{
					"color" : [ 0.8, 0.8, 0.8, 0.9 ],
					"destination" : [ "obj-9", 0 ],
					"disabled" : 0,
					"hidden" : 0,
					"source" : [ "obj-6", 0 ]
				}

			}
, 			{
				"patchline" : 				{
					"color" : [ 0.8, 0.8, 0.8, 0.9 ],
					"destination" : [ "obj-6", 0 ],
					"disabled" : 0,
					"hidden" : 0,
					"source" : [ "obj-8", 1 ]
				}

			}
, 			{
				"patchline" : 				{
					"color" : [ 0.8, 0.8, 0.8, 0.9 ],
					"destination" : [ "obj-10", 0 ],
					"disabled" : 0,
					"hidden" : 1,
					"source" : [ "obj-9", 1 ]
				}

			}
, 			{
				"patchline" : 				{
					"color" : [ 0.8, 0.8, 0.8, 0.9 ],
					"destination" : [ "obj-7", 0 ],
					"disabled" : 0,
					"hidden" : 0,
					"source" : [ "obj-9", 0 ]
				}

			}
 ],
		"parameters" : 		{
			"obj-21::obj-10" : [ "multislider[6]", "multislider[1]", 0 ],
			"obj-5::obj-27" : [ "multislider[11]", "multislider[1]", 0 ],
			"obj-5::obj-28" : [ "multislider[12]", "multislider", 0 ],
			"obj-5::obj-37" : [ "multislider[15]", "multislider[15]", 0 ],
			"obj-1" : [ "rslider", "rslider", 0 ],
			"obj-21::obj-1" : [ "multislider[8]", "multislider[1]", 0 ],
			"obj-11" : [ "multislider[2]", "multislider[1]", 0 ],
			"obj-5::obj-29" : [ "toggle", "toggle", 0 ],
			"obj-5::obj-15" : [ "gain~", "gain~", 0 ],
			"obj-12" : [ "multislider[3]", "multislider", 0 ],
			"obj-15" : [ "multislider[5]", "multislider", 0 ],
			"obj-7" : [ "multislider", "multislider", 0 ],
			"obj-5::obj-11" : [ "rslider[1]", "rslider", 0 ],
			"obj-5::obj-31" : [ "multislider[10]", "multislider[4]", 0 ],
			"obj-5::obj-3" : [ "multislider[14]", "multislider", 0 ],
			"obj-21::obj-7" : [ "multislider[7]", "multislider", 0 ],
			"obj-10" : [ "multislider[1]", "multislider[1]", 0 ],
			"obj-5::obj-10" : [ "multislider[13]", "multislider[1]", 0 ],
			"obj-21::obj-2" : [ "multislider[9]", "multislider", 0 ],
			"obj-14" : [ "multislider[4]", "multislider[1]", 0 ]
		}
,
		"dependency_cache" : [ 			{
				"name" : "mira.frame.mxo",
				"type" : "iLaX"
			}
 ]
	}

}
