{
	"patcher" : 	{
		"fileversion" : 1,
		"rect" : [ 22.0, 55.0, 560.0, 365.0 ],
		"bgcolor" : [ 0.937255, 0.92549, 0.792157, 1.0 ],
		"bglocked" : 0,
		"defrect" : [ 22.0, 55.0, 560.0, 365.0 ],
		"openrect" : [ 0.0, 0.0, 0.0, 0.0 ],
		"openinpresentation" : 0,
		"default_fontsize" : 12.0,
		"default_fontface" : 0,
		"default_fontname" : "Arial",
		"gridonopen" : 0,
		"gridsize" : [ 15.0, 15.0 ],
		"gridsnaponopen" : 0,
		"toolbarvisible" : 1,
		"boxanimatetime" : 200,
		"imprint" : 1,
		"metadata" : [  ],
		"boxes" : [ 			{
				"box" : 				{
					"maxclass" : "comment",
					"text" : "•",
					"presentation" : 0,
					"numoutlets" : 0,
					"ignoreclick" : 1,
					"bgcolor" : [ 1.0, 1.0, 1.0, 0.0 ],
					"fontname" : "Arial",
					"hidden" : 0,
					"frgb" : [ 0.015686, 0.388235, 0.501961, 1.0 ],
					"presentation_rect" : [ 0.0, 0.0, 0.0, 0.0 ],
					"fontface" : 0,
					"fontsize" : 14.0,
					"underline" : 0,
					"textcolor" : [ 0.015686, 0.388235, 0.501961, 1.0 ],
					"id" : "obj-29",
					"background" : 0,
					"numinlets" : 1,
					"patching_rect" : [ 198.0, 120.0, 20.0, 23.0 ]
				}

			}
, 			{
				"box" : 				{
					"maxclass" : "newobj",
					"text" : "bgcolor 0.937255 0.92549 0.792157 1.",
					"presentation" : 0,
					"numoutlets" : 0,
					"ignoreclick" : 0,
					"bgcolor" : [ 1.0, 1.0, 1.0, 1.0 ],
					"fontname" : "Arial",
					"hidden" : 1,
					"presentation_rect" : [ 0.0, 0.0, 0.0, 0.0 ],
					"fontface" : 0,
					"fontsize" : 11.595187,
					"textcolor" : [ 0.0, 0.0, 0.0, 1.0 ],
					"id" : "obj-47",
					"background" : 0,
					"color" : [ 0.8, 0.84, 0.71, 1.0 ],
					"numinlets" : 4,
					"patching_rect" : [ 174.677704, 373.935364, 210.0, 20.0 ]
				}

			}
, 			{
				"box" : 				{
					"maxclass" : "comment",
					"text" : "ej.mtof",
					"presentation" : 1,
					"numoutlets" : 0,
					"ignoreclick" : 1,
					"bgcolor" : [ 1.0, 1.0, 1.0, 0.0 ],
					"fontname" : "Arial",
					"hidden" : 0,
					"frgb" : [ 0.937255, 0.92549, 0.792157, 1.0 ],
					"presentation_rect" : [ 286.0, 287.0, 166.0, 30.0 ],
					"fontface" : 3,
					"fontsize" : 20.871338,
					"underline" : 0,
					"textcolor" : [ 0.937255, 0.92549, 0.792157, 1.0 ],
					"id" : "obj-49",
					"background" : 0,
					"numinlets" : 1,
					"patching_rect" : [ 16.719757, 14.719761, 166.0, 30.0 ]
				}

			}
, 			{
				"box" : 				{
					"maxclass" : "comment",
					"text" : "Convert MIDI note values to frequency in Hertz",
					"presentation" : 0,
					"numoutlets" : 0,
					"ignoreclick" : 1,
					"bgcolor" : [ 1.0, 1.0, 1.0, 0.0 ],
					"fontname" : "Arial",
					"hidden" : 0,
					"frgb" : [ 1.0, 1.0, 1.0, 1.0 ],
					"presentation_rect" : [ 0.0, 0.0, 0.0, 0.0 ],
					"fontface" : 0,
					"fontsize" : 11.595187,
					"underline" : 0,
					"textcolor" : [ 1.0, 1.0, 1.0, 1.0 ],
					"id" : "obj-17",
					"background" : 0,
					"numinlets" : 1,
					"patching_rect" : [ 16.719757, 46.0, 252.0, 20.0 ]
				}

			}
, 			{
				"box" : 				{
					"maxclass" : "panel",
					"presentation" : 1,
					"numoutlets" : 0,
					"ignoreclick" : 1,
					"grad2" : [ 0.66, 0.66, 0.72, 1.0 ],
					"angle" : 0.0,
					"bgcolor" : [ 0.015686, 0.388235, 0.501961, 1.0 ],
					"bordercolor" : [ 0.0, 0.0, 0.0, 1.0 ],
					"shadow" : -1,
					"hidden" : 0,
					"mode" : 0,
					"border" : 0,
					"presentation_rect" : [ 281.0, 283.0, 632.0, 58.0 ],
					"id" : "obj-83",
					"background" : 0,
					"numinlets" : 1,
					"grad1" : [ 0.75, 0.79, 0.93, 1.0 ],
					"patching_rect" : [ 10.719757, 10.719761, 382.01355, 57.248684 ],
					"rounded" : 8
				}

			}
, 			{
				"box" : 				{
					"maxclass" : "textbutton",
					"presentation" : 0,
					"numoutlets" : 3,
					"bgoveroncolor" : [ 0.937255, 0.92549, 0.792157, 1.0 ],
					"ignoreclick" : 0,
					"bgcolor" : [ 0.937255, 0.92549, 0.792157, 1.0 ],
					"bordercolor" : [ 0.937255, 0.92549, 0.792157, 1.0 ],
					"tosymbol" : 1,
					"fontname" : "Arial",
					"spacing_x" : 4.0,
					"hidden" : 0,
					"outlettype" : [ "int", "", "int" ],
					"bgoncolor" : [ 0.937255, 0.92549, 0.792157, 1.0 ],
					"mode" : 0,
					"align" : 1,
					"spacing_y" : 4.0,
					"border" : 2,
					"textoncolor" : [ 0.184314, 0.65098, 0.792157, 1.0 ],
					"textoveroncolor" : [ 0.015686, 0.388235, 0.501961, 1.0 ],
					"presentation_rect" : [ 105.0, 105.0, 147.471741, 24.0 ],
					"texton" : "Button On",
					"outputmode" : 1,
					"fontface" : 3,
					"text" : "open ejies overview",
					"fontsize" : 13.914225,
					"fontlink" : 1,
					"textovercolor" : [ 0.054902, 0.47451, 0.6, 1.0 ],
					"borderoncolor" : [ 0.937255, 0.92549, 0.792157, 1.0 ],
					"underline" : 0,
					"textcolor" : [ 0.015686, 0.388235, 0.501961, 1.0 ],
					"truncate" : 1,
					"id" : "obj-55",
					"background" : 0,
					"numinlets" : 1,
					"bgovercolor" : [ 0.937255, 0.92549, 0.792157, 1.0 ],
					"patching_rect" : [ 396.0, 25.0, 147.471741, 24.0 ],
					"rounded" : 14.0
				}

			}
, 			{
				"box" : 				{
					"maxclass" : "ubutton",
					"presentation" : 1,
					"numoutlets" : 4,
					"ignoreclick" : 0,
					"stay" : 0,
					"handoff" : "",
					"hidden" : 0,
					"outlettype" : [ "bang", "bang", "", "int" ],
					"hilite" : 0,
					"handoffdelay" : 250,
					"presentation_rect" : [ 761.455444, 588.968689, 155.0, 18.0 ],
					"toggle" : 0,
					"dragtrack" : 0,
					"id" : "obj-48",
					"background" : 0,
					"numinlets" : 1,
					"patching_rect" : [ 393.0, 332.0, 159.0, 21.0 ]
				}

			}
, 			{
				"box" : 				{
					"maxclass" : "message",
					"text" : ";\rmax launchbrowser http://support.e--j.com",
					"linecount" : 2,
					"presentation" : 0,
					"numoutlets" : 1,
					"gradient" : 0,
					"ignoreclick" : 0,
					"bgcolor" : [ 1.0, 1.0, 1.0, 1.0 ],
					"fontname" : "Arial",
					"hidden" : 1,
					"outlettype" : [ "" ],
					"presentation_rect" : [ 0.0, 0.0, 0.0, 0.0 ],
					"fontface" : 0,
					"fontsize" : 11.595187,
					"textcolor" : [ 0.0, 0.0, 0.0, 1.0 ],
					"id" : "obj-50",
					"background" : 0,
					"bgcolor2" : [ 0.867, 0.867, 0.867, 1.0 ],
					"numinlets" : 2,
					"patching_rect" : [ 436.0, 356.0, 417.0, 31.0 ]
				}

			}
, 			{
				"box" : 				{
					"maxclass" : "comment",
					"text" : "© Emmanuel Jourdan, e--j dev",
					"presentation" : 1,
					"numoutlets" : 0,
					"ignoreclick" : 1,
					"bgcolor" : [ 1.0, 1.0, 1.0, 0.0 ],
					"fontname" : "Arial",
					"hidden" : 0,
					"frgb" : [ 0.356863, 0.356863, 0.356863, 1.0 ],
					"presentation_rect" : [ 761.0, 588.0, 158.0, 20.0 ],
					"fontface" : 0,
					"fontsize" : 11.595187,
					"underline" : 0,
					"textcolor" : [ 0.356863, 0.356863, 0.356863, 1.0 ],
					"id" : "obj-51",
					"background" : 0,
					"numinlets" : 1,
					"patching_rect" : [ 394.0, 333.0, 158.0, 20.0 ]
				}

			}
, 			{
				"box" : 				{
					"maxclass" : "message",
					"text" : "load ejies-overview.maxpat",
					"presentation" : 0,
					"numoutlets" : 1,
					"gradient" : 0,
					"ignoreclick" : 0,
					"bgcolor" : [ 1.0, 1.0, 1.0, 1.0 ],
					"fontname" : "Arial",
					"hidden" : 1,
					"outlettype" : [ "" ],
					"presentation_rect" : [ 0.0, 0.0, 0.0, 0.0 ],
					"fontface" : 0,
					"fontsize" : 11.595187,
					"textcolor" : [ 0.0, 0.0, 0.0, 1.0 ],
					"id" : "obj-18",
					"background" : 0,
					"bgcolor2" : [ 0.867, 0.867, 0.867, 1.0 ],
					"numinlets" : 2,
					"patching_rect" : [ 529.0, 24.0, 143.0, 18.0 ]
				}

			}
, 			{
				"box" : 				{
					"maxclass" : "newobj",
					"text" : "pcontrol",
					"presentation" : 0,
					"numoutlets" : 1,
					"ignoreclick" : 0,
					"bgcolor" : [ 1.0, 1.0, 1.0, 1.0 ],
					"fontname" : "Arial",
					"hidden" : 1,
					"outlettype" : [ "" ],
					"presentation_rect" : [ 0.0, 0.0, 0.0, 0.0 ],
					"fontface" : 0,
					"fontsize" : 11.595187,
					"textcolor" : [ 0.0, 0.0, 0.0, 1.0 ],
					"id" : "obj-19",
					"background" : 0,
					"color" : [ 1.0, 1.0, 1.0, 1.0 ],
					"numinlets" : 1,
					"patching_rect" : [ 529.0, 43.0, 57.0, 20.0 ]
				}

			}
, 			{
				"box" : 				{
					"maxclass" : "newobj",
					"text" : "loadmess set",
					"presentation" : 0,
					"numoutlets" : 1,
					"ignoreclick" : 0,
					"bgcolor" : [ 1.0, 1.0, 1.0, 1.0 ],
					"fontname" : "Arial",
					"hidden" : 1,
					"outlettype" : [ "" ],
					"presentation_rect" : [ 0.0, 0.0, 0.0, 0.0 ],
					"fontface" : 0,
					"fontsize" : 11.595187,
					"textcolor" : [ 0.0, 0.0, 0.0, 1.0 ],
					"id" : "obj-1",
					"background" : 0,
					"color" : [ 1.0, 0.611765, 0.611765, 1.0 ],
					"numinlets" : 1,
					"patching_rect" : [ 108.0, 260.0, 85.0, 20.0 ]
				}

			}
, 			{
				"box" : 				{
					"maxclass" : "message",
					"text" : "60 64 67 69",
					"presentation" : 0,
					"numoutlets" : 1,
					"gradient" : 0,
					"ignoreclick" : 0,
					"bgcolor" : [ 0.867, 0.867, 0.867, 1.0 ],
					"fontname" : "Arial",
					"hidden" : 0,
					"outlettype" : [ "" ],
					"presentation_rect" : [ 0.0, 0.0, 0.0, 0.0 ],
					"fontface" : 0,
					"fontsize" : 11.595187,
					"textcolor" : [ 0.0, 0.0, 0.0, 1.0 ],
					"id" : "obj-3",
					"background" : 0,
					"bgcolor2" : [ 0.867, 0.867, 0.867, 1.0 ],
					"numinlets" : 2,
					"patching_rect" : [ 28.0, 232.0, 72.0, 18.0 ]
				}

			}
, 			{
				"box" : 				{
					"maxclass" : "message",
					"presentation" : 0,
					"numoutlets" : 1,
					"gradient" : 0,
					"ignoreclick" : 0,
					"bgcolor" : [ 0.867, 0.867, 0.867, 1.0 ],
					"fontname" : "Arial",
					"hidden" : 0,
					"outlettype" : [ "" ],
					"presentation_rect" : [ 0.0, 0.0, 0.0, 0.0 ],
					"fontface" : 0,
					"fontsize" : 11.595187,
					"textcolor" : [ 0.0, 0.0, 0.0, 1.0 ],
					"id" : "obj-4",
					"background" : 0,
					"bgcolor2" : [ 0.867, 0.867, 0.867, 1.0 ],
					"numinlets" : 2,
					"patching_rect" : [ 28.0, 290.0, 205.0, 18.0 ]
				}

			}
, 			{
				"box" : 				{
					"maxclass" : "comment",
					"text" : "you can also use attributes",
					"presentation" : 0,
					"numoutlets" : 0,
					"ignoreclick" : 1,
					"bgcolor" : [ 1.0, 1.0, 1.0, 0.0 ],
					"fontname" : "Arial",
					"hidden" : 0,
					"frgb" : [ 0.0, 0.0, 0.0, 1.0 ],
					"presentation_rect" : [ 0.0, 0.0, 0.0, 0.0 ],
					"fontface" : 0,
					"fontsize" : 11.595187,
					"underline" : 0,
					"textcolor" : [ 0.0, 0.0, 0.0, 1.0 ],
					"id" : "obj-5",
					"background" : 0,
					"numinlets" : 1,
					"patching_rect" : [ 334.0, 178.0, 165.0, 20.0 ]
				}

			}
, 			{
				"box" : 				{
					"maxclass" : "comment",
					"text" : "args:\r- float tuning (default: 440 Hz)\r- int MIDI pitch reference (default: 69)",
					"linecount" : 3,
					"presentation" : 0,
					"numoutlets" : 0,
					"ignoreclick" : 1,
					"bgcolor" : [ 1.0, 1.0, 1.0, 0.0 ],
					"fontname" : "Arial",
					"hidden" : 0,
					"frgb" : [ 0.0, 0.0, 0.0, 1.0 ],
					"presentation_rect" : [ 0.0, 0.0, 0.0, 0.0 ],
					"fontface" : 0,
					"fontsize" : 11.595187,
					"underline" : 0,
					"textcolor" : [ 0.0, 0.0, 0.0, 1.0 ],
					"id" : "obj-6",
					"background" : 0,
					"numinlets" : 1,
					"patching_rect" : [ 314.0, 96.0, 237.0, 46.0 ]
				}

			}
, 			{
				"box" : 				{
					"maxclass" : "newobj",
					"text" : "loadmess set",
					"presentation" : 0,
					"numoutlets" : 1,
					"ignoreclick" : 0,
					"bgcolor" : [ 1.0, 1.0, 1.0, 1.0 ],
					"fontname" : "Arial",
					"hidden" : 1,
					"outlettype" : [ "" ],
					"presentation_rect" : [ 0.0, 0.0, 0.0, 0.0 ],
					"fontface" : 0,
					"fontsize" : 11.595187,
					"textcolor" : [ 0.0, 0.0, 0.0, 1.0 ],
					"id" : "obj-7",
					"background" : 0,
					"color" : [ 1.0, 0.611765, 0.611765, 1.0 ],
					"numinlets" : 1,
					"patching_rect" : [ 317.818176, 287.363647, 85.0, 20.0 ]
				}

			}
, 			{
				"box" : 				{
					"maxclass" : "message",
					"presentation" : 0,
					"numoutlets" : 1,
					"gradient" : 0,
					"ignoreclick" : 0,
					"bgcolor" : [ 0.867, 0.867, 0.867, 1.0 ],
					"fontname" : "Arial",
					"hidden" : 0,
					"outlettype" : [ "" ],
					"presentation_rect" : [ 0.0, 0.0, 0.0, 0.0 ],
					"fontface" : 0,
					"fontsize" : 11.595187,
					"textcolor" : [ 0.0, 0.0, 0.0, 1.0 ],
					"id" : "obj-8",
					"background" : 0,
					"bgcolor2" : [ 0.867, 0.867, 0.867, 1.0 ],
					"numinlets" : 2,
					"patching_rect" : [ 318.0, 260.909088, 137.0, 18.0 ]
				}

			}
, 			{
				"box" : 				{
					"maxclass" : "message",
					"text" : "getpitch_reference",
					"presentation" : 0,
					"numoutlets" : 1,
					"gradient" : 0,
					"ignoreclick" : 0,
					"bgcolor" : [ 0.867, 0.867, 0.867, 1.0 ],
					"fontname" : "Arial",
					"hidden" : 0,
					"outlettype" : [ "" ],
					"presentation_rect" : [ 0.0, 0.0, 0.0, 0.0 ],
					"fontface" : 0,
					"fontsize" : 11.595187,
					"textcolor" : [ 0.0, 0.0, 0.0, 1.0 ],
					"id" : "obj-10",
					"background" : 0,
					"bgcolor2" : [ 0.867, 0.867, 0.867, 1.0 ],
					"numinlets" : 2,
					"patching_rect" : [ 387.727264, 199.22728, 122.0, 18.0 ]
				}

			}
, 			{
				"box" : 				{
					"maxclass" : "message",
					"text" : "gettuning",
					"presentation" : 0,
					"numoutlets" : 1,
					"gradient" : 0,
					"ignoreclick" : 0,
					"bgcolor" : [ 0.867, 0.867, 0.867, 1.0 ],
					"fontname" : "Arial",
					"hidden" : 0,
					"outlettype" : [ "" ],
					"presentation_rect" : [ 0.0, 0.0, 0.0, 0.0 ],
					"fontface" : 0,
					"fontsize" : 11.595187,
					"textcolor" : [ 0.0, 0.0, 0.0, 1.0 ],
					"id" : "obj-11",
					"background" : 0,
					"bgcolor2" : [ 0.867, 0.867, 0.867, 1.0 ],
					"numinlets" : 2,
					"patching_rect" : [ 319.0, 198.0, 63.0, 18.0 ]
				}

			}
, 			{
				"box" : 				{
					"maxclass" : "newobj",
					"text" : "mxj ej.mtof @tuning 442",
					"presentation" : 0,
					"numoutlets" : 2,
					"ignoreclick" : 0,
					"bgcolor" : [ 1.0, 1.0, 1.0, 1.0 ],
					"fontname" : "Arial",
					"hidden" : 0,
					"outlettype" : [ "list", "" ],
					"presentation_rect" : [ 0.0, 0.0, 0.0, 0.0 ],
					"fontface" : 0,
					"fontsize" : 11.595187,
					"textcolor" : [ 0.0, 0.0, 0.0, 1.0 ],
					"id" : "obj-12",
					"background" : 0,
					"color" : [ 0.8, 0.84, 0.71, 1.0 ],
					"numinlets" : 1,
					"patching_rect" : [ 319.0, 231.22728, 136.0, 20.0 ]
				}

			}
, 			{
				"box" : 				{
					"maxclass" : "comment",
					"text" : "works also for lists...",
					"presentation" : 0,
					"numoutlets" : 0,
					"ignoreclick" : 1,
					"bgcolor" : [ 1.0, 1.0, 1.0, 0.0 ],
					"fontname" : "Arial",
					"hidden" : 0,
					"frgb" : [ 0.0, 0.0, 0.0, 1.0 ],
					"presentation_rect" : [ 0.0, 0.0, 0.0, 0.0 ],
					"fontface" : 0,
					"fontsize" : 11.595187,
					"underline" : 0,
					"textcolor" : [ 0.0, 0.0, 0.0, 1.0 ],
					"id" : "obj-13",
					"background" : 0,
					"numinlets" : 1,
					"patching_rect" : [ 106.0, 232.0, 162.0, 20.0 ]
				}

			}
, 			{
				"box" : 				{
					"maxclass" : "kslider",
					"presentation" : 0,
					"offset" : 36,
					"range" : 48,
					"numoutlets" : 2,
					"ignoreclick" : 0,
					"bordercolor" : [ 0.0, 0.0, 0.0, 1.0 ],
					"hidden" : 0,
					"outlettype" : [ "int", "int" ],
					"blackkeycolor" : [ 0.0, 0.0, 0.0, 1.0 ],
					"mode" : 0,
					"presentation_rect" : [ 0.0, 0.0, 196.0, 35.0 ],
					"whitekeycolor" : [ 1.0, 1.0, 1.0, 1.0 ],
					"hkeycolor" : [ 0.682353, 0.72549, 0.752941, 1.0 ],
					"id" : "obj-14",
					"background" : 0,
					"numinlets" : 2,
					"patching_rect" : [ 29.0, 96.0, 252.0, 41.0 ]
				}

			}
, 			{
				"box" : 				{
					"maxclass" : "flonum",
					"presentation" : 0,
					"numoutlets" : 2,
					"ignoreclick" : 0,
					"minimum" : "<none>",
					"bgcolor" : [ 1.0, 1.0, 1.0, 1.0 ],
					"bordercolor" : [ 0.5, 0.5, 0.5, 1.0 ],
					"outputonclick" : 0,
					"hbgcolor" : [ 0.0, 0.0, 0.0, 1.0 ],
					"fontname" : "Arial",
					"hidden" : 0,
					"outlettype" : [ "float", "bang" ],
					"maximum" : "<none>",
					"cantchange" : 0,
					"htextcolor" : [ 0.870588, 0.870588, 0.870588, 1.0 ],
					"numdecimalplaces" : 0,
					"presentation_rect" : [ 0.0, 0.0, 50.0, 20.0 ],
					"fontface" : 0,
					"fontsize" : 11.595187,
					"triscale" : 0.9,
					"textcolor" : [ 0.0, 0.0, 0.0, 1.0 ],
					"id" : "obj-15",
					"background" : 0,
					"mouseup" : 0,
					"numinlets" : 1,
					"triangle" : 1,
					"patching_rect" : [ 29.0, 168.0, 50.0, 20.0 ]
				}

			}
, 			{
				"box" : 				{
					"maxclass" : "newobj",
					"text" : "mxj ej.mtof 442.",
					"presentation" : 0,
					"numoutlets" : 2,
					"ignoreclick" : 0,
					"bgcolor" : [ 1.0, 1.0, 1.0, 1.0 ],
					"fontname" : "Arial",
					"hidden" : 0,
					"outlettype" : [ "list", "" ],
					"presentation_rect" : [ 0.0, 0.0, 0.0, 0.0 ],
					"fontface" : 0,
					"fontsize" : 11.595187,
					"textcolor" : [ 0.0, 0.0, 0.0, 1.0 ],
					"id" : "obj-16",
					"background" : 0,
					"color" : [ 0.8, 0.84, 0.71, 1.0 ],
					"numinlets" : 1,
					"patching_rect" : [ 29.0, 144.0, 92.0, 20.0 ]
				}

			}
, 			{
				"box" : 				{
					"maxclass" : "newobj",
					"text" : "mxj ej.mtof",
					"presentation" : 0,
					"numoutlets" : 2,
					"ignoreclick" : 0,
					"bgcolor" : [ 1.0, 1.0, 1.0, 1.0 ],
					"fontname" : "Arial",
					"hidden" : 0,
					"outlettype" : [ "list", "" ],
					"presentation_rect" : [ 0.0, 0.0, 0.0, 0.0 ],
					"fontface" : 0,
					"fontsize" : 11.595187,
					"textcolor" : [ 0.0, 0.0, 0.0, 1.0 ],
					"id" : "obj-28",
					"background" : 0,
					"color" : [ 0.8, 0.84, 0.71, 1.0 ],
					"numinlets" : 1,
					"patching_rect" : [ 28.0, 259.0, 67.0, 20.0 ]
				}

			}
 ],
		"lines" : [ 			{
				"patchline" : 				{
					"source" : [ "obj-12", 1 ],
					"destination" : [ "obj-8", 1 ],
					"hidden" : 0,
					"color" : [ 0.0, 0.0, 0.0, 1.0 ]
				}

			}
, 			{
				"patchline" : 				{
					"source" : [ "obj-28", 0 ],
					"destination" : [ "obj-4", 1 ],
					"hidden" : 0,
					"color" : [ 0.0, 0.0, 0.0, 1.0 ],
					"midpoints" : [ 37.5, 284.0, 223.5, 284.0 ]
				}

			}
, 			{
				"patchline" : 				{
					"source" : [ "obj-55", 0 ],
					"destination" : [ "obj-18", 0 ],
					"hidden" : 1,
					"color" : [ 0.0, 0.0, 0.0, 1.0 ]
				}

			}
, 			{
				"patchline" : 				{
					"source" : [ "obj-18", 0 ],
					"destination" : [ "obj-19", 0 ],
					"hidden" : 1,
					"color" : [ 0.0, 0.0, 0.0, 1.0 ]
				}

			}
, 			{
				"patchline" : 				{
					"source" : [ "obj-48", 1 ],
					"destination" : [ "obj-50", 0 ],
					"hidden" : 1,
					"color" : [ 0.0, 0.0, 0.0, 1.0 ]
				}

			}
, 			{
				"patchline" : 				{
					"source" : [ "obj-3", 0 ],
					"destination" : [ "obj-28", 0 ],
					"hidden" : 0,
					"color" : [ 0.0, 0.0, 0.0, 1.0 ]
				}

			}
, 			{
				"patchline" : 				{
					"source" : [ "obj-1", 0 ],
					"destination" : [ "obj-4", 0 ],
					"hidden" : 1,
					"color" : [ 0.0, 0.0, 0.0, 1.0 ]
				}

			}
, 			{
				"patchline" : 				{
					"source" : [ "obj-14", 0 ],
					"destination" : [ "obj-16", 0 ],
					"hidden" : 0,
					"color" : [ 0.0, 0.0, 0.0, 1.0 ]
				}

			}
, 			{
				"patchline" : 				{
					"source" : [ "obj-16", 0 ],
					"destination" : [ "obj-15", 0 ],
					"hidden" : 0,
					"color" : [ 0.0, 0.0, 0.0, 1.0 ]
				}

			}
, 			{
				"patchline" : 				{
					"source" : [ "obj-11", 0 ],
					"destination" : [ "obj-12", 0 ],
					"hidden" : 0,
					"color" : [ 0.0, 0.0, 0.0, 1.0 ]
				}

			}
, 			{
				"patchline" : 				{
					"source" : [ "obj-10", 0 ],
					"destination" : [ "obj-12", 0 ],
					"hidden" : 0,
					"color" : [ 0.0, 0.0, 0.0, 1.0 ]
				}

			}
, 			{
				"patchline" : 				{
					"source" : [ "obj-7", 0 ],
					"destination" : [ "obj-8", 0 ],
					"hidden" : 1,
					"color" : [ 0.0, 0.0, 0.0, 1.0 ]
				}

			}
 ]
	}

}
