{
	"patcher" : 	{
		"fileversion" : 1,
		"rect" : [ 18.0, 115.0, 567.0, 326.0 ],
		"bgcolor" : [ 0.937255, 0.92549, 0.792157, 1.0 ],
		"bglocked" : 0,
		"defrect" : [ 18.0, 115.0, 567.0, 326.0 ],
		"openrect" : [ 0.0, 0.0, 0.0, 0.0 ],
		"openinpresentation" : 0,
		"default_fontsize" : 12.0,
		"default_fontface" : 0,
		"default_fontname" : "Arial",
		"gridonopen" : 0,
		"gridsize" : [ 15.0, 15.0 ],
		"gridsnaponopen" : 0,
		"toolbarvisible" : 1,
		"boxanimatetime" : 200,
		"imprint" : 1,
		"metadata" : [  ],
		"boxes" : [ 			{
				"box" : 				{
					"maxclass" : "newobj",
					"text" : "bgcolor 0.937255 0.92549 0.792157 1.",
					"presentation" : 0,
					"numoutlets" : 0,
					"ignoreclick" : 0,
					"bgcolor" : [ 1.0, 1.0, 1.0, 1.0 ],
					"fontname" : "Arial",
					"hidden" : 1,
					"presentation_rect" : [ 0.0, 0.0, 0.0, 0.0 ],
					"fontface" : 0,
					"fontsize" : 11.595187,
					"textcolor" : [ 0.0, 0.0, 0.0, 1.0 ],
					"id" : "obj-47",
					"background" : 0,
					"color" : [ 0.8, 0.84, 0.71, 1.0 ],
					"numinlets" : 4,
					"patching_rect" : [ 174.677704, 328.935364, 210.0, 20.0 ]
				}

			}
, 			{
				"box" : 				{
					"maxclass" : "comment",
					"text" : "ej.numbox.js",
					"presentation" : 1,
					"numoutlets" : 0,
					"ignoreclick" : 1,
					"bgcolor" : [ 1.0, 1.0, 1.0, 0.0 ],
					"fontname" : "Arial",
					"hidden" : 0,
					"frgb" : [ 0.937255, 0.92549, 0.792157, 1.0 ],
					"presentation_rect" : [ 286.0, 287.0, 166.0, 30.0 ],
					"fontface" : 3,
					"fontsize" : 20.871338,
					"underline" : 0,
					"textcolor" : [ 0.937255, 0.92549, 0.792157, 1.0 ],
					"id" : "obj-49",
					"background" : 0,
					"numinlets" : 1,
					"patching_rect" : [ 16.719757, 14.719761, 166.0, 30.0 ]
				}

			}
, 			{
				"box" : 				{
					"maxclass" : "comment",
					"text" : "another alternative number box",
					"presentation" : 0,
					"numoutlets" : 0,
					"ignoreclick" : 1,
					"bgcolor" : [ 1.0, 1.0, 1.0, 0.0 ],
					"fontname" : "Arial",
					"hidden" : 0,
					"frgb" : [ 1.0, 1.0, 1.0, 1.0 ],
					"presentation_rect" : [ 0.0, 0.0, 0.0, 0.0 ],
					"fontface" : 0,
					"fontsize" : 11.595187,
					"underline" : 0,
					"textcolor" : [ 1.0, 1.0, 1.0, 1.0 ],
					"id" : "obj-30",
					"background" : 0,
					"numinlets" : 1,
					"patching_rect" : [ 16.719757, 46.0, 221.0, 20.0 ]
				}

			}
, 			{
				"box" : 				{
					"maxclass" : "panel",
					"presentation" : 1,
					"numoutlets" : 0,
					"ignoreclick" : 1,
					"grad2" : [ 0.66, 0.66, 0.72, 1.0 ],
					"angle" : 0.0,
					"bgcolor" : [ 0.015686, 0.388235, 0.501961, 1.0 ],
					"bordercolor" : [ 0.0, 0.0, 0.0, 1.0 ],
					"shadow" : -1,
					"hidden" : 0,
					"mode" : 0,
					"border" : 0,
					"presentation_rect" : [ 281.0, 283.0, 632.0, 58.0 ],
					"id" : "obj-83",
					"background" : 0,
					"numinlets" : 1,
					"grad1" : [ 0.75, 0.79, 0.93, 1.0 ],
					"patching_rect" : [ 10.719757, 10.719761, 382.01355, 57.248684 ],
					"rounded" : 8
				}

			}
, 			{
				"box" : 				{
					"maxclass" : "textbutton",
					"presentation" : 0,
					"numoutlets" : 3,
					"bgoveroncolor" : [ 0.937255, 0.92549, 0.792157, 1.0 ],
					"ignoreclick" : 0,
					"bgcolor" : [ 0.937255, 0.92549, 0.792157, 1.0 ],
					"bordercolor" : [ 0.937255, 0.92549, 0.792157, 1.0 ],
					"tosymbol" : 1,
					"fontname" : "Arial",
					"spacing_x" : 4.0,
					"hidden" : 0,
					"outlettype" : [ "int", "", "int" ],
					"bgoncolor" : [ 0.937255, 0.92549, 0.792157, 1.0 ],
					"mode" : 0,
					"align" : 1,
					"spacing_y" : 4.0,
					"border" : 2,
					"textoncolor" : [ 0.184314, 0.65098, 0.792157, 1.0 ],
					"textoveroncolor" : [ 0.015686, 0.388235, 0.501961, 1.0 ],
					"presentation_rect" : [ 105.0, 105.0, 147.471741, 24.0 ],
					"texton" : "Button On",
					"outputmode" : 1,
					"fontface" : 3,
					"text" : "open ejies overview",
					"fontsize" : 13.914225,
					"fontlink" : 1,
					"textovercolor" : [ 0.054902, 0.47451, 0.6, 1.0 ],
					"borderoncolor" : [ 0.937255, 0.92549, 0.792157, 1.0 ],
					"underline" : 0,
					"textcolor" : [ 0.015686, 0.388235, 0.501961, 1.0 ],
					"truncate" : 1,
					"id" : "obj-55",
					"background" : 0,
					"numinlets" : 1,
					"bgovercolor" : [ 0.937255, 0.92549, 0.792157, 1.0 ],
					"patching_rect" : [ 396.0, 25.0, 147.471741, 24.0 ],
					"rounded" : 14.0
				}

			}
, 			{
				"box" : 				{
					"maxclass" : "ubutton",
					"presentation" : 1,
					"numoutlets" : 4,
					"ignoreclick" : 0,
					"stay" : 0,
					"handoff" : "",
					"hidden" : 0,
					"outlettype" : [ "bang", "bang", "", "int" ],
					"hilite" : 0,
					"handoffdelay" : 250,
					"presentation_rect" : [ 761.455444, 588.968689, 155.0, 18.0 ],
					"toggle" : 0,
					"dragtrack" : 0,
					"id" : "obj-48",
					"background" : 0,
					"numinlets" : 1,
					"patching_rect" : [ 393.0, 287.0, 159.0, 21.0 ]
				}

			}
, 			{
				"box" : 				{
					"maxclass" : "message",
					"text" : ";\rmax launchbrowser http://support.e--j.com",
					"linecount" : 2,
					"presentation" : 0,
					"numoutlets" : 1,
					"gradient" : 0,
					"ignoreclick" : 0,
					"bgcolor" : [ 1.0, 1.0, 1.0, 1.0 ],
					"fontname" : "Arial",
					"hidden" : 1,
					"outlettype" : [ "" ],
					"presentation_rect" : [ 0.0, 0.0, 0.0, 0.0 ],
					"fontface" : 0,
					"fontsize" : 11.595187,
					"textcolor" : [ 0.0, 0.0, 0.0, 1.0 ],
					"id" : "obj-50",
					"background" : 0,
					"bgcolor2" : [ 0.867, 0.867, 0.867, 1.0 ],
					"numinlets" : 2,
					"patching_rect" : [ 436.0, 311.0, 417.0, 31.0 ]
				}

			}
, 			{
				"box" : 				{
					"maxclass" : "comment",
					"text" : "© Emmanuel Jourdan, e--j dev",
					"presentation" : 1,
					"numoutlets" : 0,
					"ignoreclick" : 1,
					"bgcolor" : [ 1.0, 1.0, 1.0, 0.0 ],
					"fontname" : "Arial",
					"hidden" : 0,
					"frgb" : [ 0.356863, 0.356863, 0.356863, 1.0 ],
					"presentation_rect" : [ 761.0, 588.0, 158.0, 20.0 ],
					"fontface" : 0,
					"fontsize" : 11.595187,
					"underline" : 0,
					"textcolor" : [ 0.356863, 0.356863, 0.356863, 1.0 ],
					"id" : "obj-51",
					"background" : 0,
					"numinlets" : 1,
					"patching_rect" : [ 394.0, 288.0, 158.0, 20.0 ]
				}

			}
, 			{
				"box" : 				{
					"maxclass" : "message",
					"text" : "load ejies-overview.maxpat",
					"presentation" : 0,
					"numoutlets" : 1,
					"gradient" : 0,
					"ignoreclick" : 0,
					"bgcolor" : [ 1.0, 1.0, 1.0, 1.0 ],
					"fontname" : "Arial",
					"hidden" : 1,
					"outlettype" : [ "" ],
					"presentation_rect" : [ 0.0, 0.0, 0.0, 0.0 ],
					"fontface" : 0,
					"fontsize" : 11.595187,
					"textcolor" : [ 0.0, 0.0, 0.0, 1.0 ],
					"id" : "obj-31",
					"background" : 0,
					"bgcolor2" : [ 0.867, 0.867, 0.867, 1.0 ],
					"numinlets" : 2,
					"patching_rect" : [ 529.0, 24.0, 143.0, 18.0 ]
				}

			}
, 			{
				"box" : 				{
					"maxclass" : "newobj",
					"text" : "pcontrol",
					"presentation" : 0,
					"numoutlets" : 1,
					"ignoreclick" : 0,
					"bgcolor" : [ 1.0, 1.0, 1.0, 1.0 ],
					"fontname" : "Arial",
					"hidden" : 1,
					"outlettype" : [ "" ],
					"presentation_rect" : [ 0.0, 0.0, 0.0, 0.0 ],
					"fontface" : 0,
					"fontsize" : 11.595187,
					"textcolor" : [ 0.0, 0.0, 0.0, 1.0 ],
					"id" : "obj-32",
					"background" : 0,
					"color" : [ 1.0, 1.0, 1.0, 1.0 ],
					"numinlets" : 1,
					"patching_rect" : [ 529.0, 43.0, 57.0, 20.0 ]
				}

			}
, 			{
				"box" : 				{
					"maxclass" : "newobj",
					"text" : "p select - tab key",
					"presentation" : 0,
					"numoutlets" : 0,
					"ignoreclick" : 0,
					"bgcolor" : [ 1.0, 1.0, 1.0, 1.0 ],
					"fontname" : "Arial",
					"hidden" : 0,
					"presentation_rect" : [ 0.0, 0.0, 0.0, 0.0 ],
					"fontface" : 0,
					"fontsize" : 11.595187,
					"textcolor" : [ 0.0, 0.0, 0.0, 1.0 ],
					"id" : "obj-1",
					"background" : 0,
					"color" : [ 0.8, 0.84, 0.71, 1.0 ],
					"numinlets" : 0,
					"patching_rect" : [ 321.0, 223.0, 152.0, 20.0 ],
					"patcher" : 					{
						"fileversion" : 1,
						"rect" : [ 210.0, 302.0, 452.0, 229.0 ],
						"bgcolor" : [ 0.937255, 0.92549, 0.792157, 1.0 ],
						"bglocked" : 0,
						"defrect" : [ 210.0, 302.0, 452.0, 229.0 ],
						"openrect" : [ 0.0, 0.0, 0.0, 0.0 ],
						"openinpresentation" : 0,
						"default_fontsize" : 12.0,
						"default_fontface" : 0,
						"default_fontname" : "Arial",
						"gridonopen" : 0,
						"gridsize" : [ 15.0, 15.0 ],
						"gridsnaponopen" : 0,
						"toolbarvisible" : 1,
						"boxanimatetime" : 200,
						"imprint" : 0,
						"metadata" : [  ],
						"boxes" : [ 							{
								"box" : 								{
									"maxclass" : "newobj",
									"text" : "bgcolor 0.937255 0.92549 0.792157 1.",
									"numoutlets" : 0,
									"fontname" : "Arial",
									"hidden" : 1,
									"fontsize" : 11.595187,
									"id" : "obj-47",
									"numinlets" : 4,
									"patching_rect" : [ 109.0, 171.0, 210.0, 20.0 ]
								}

							}
, 							{
								"box" : 								{
									"maxclass" : "comment",
									"text" : "you can use the tabulation key to pass to the next number box...",
									"numoutlets" : 0,
									"fontname" : "Arial",
									"fontsize" : 11.595187,
									"id" : "obj-1",
									"numinlets" : 1,
									"patching_rect" : [ 65.0, 67.0, 378.0, 20.0 ]
								}

							}
, 							{
								"box" : 								{
									"maxclass" : "message",
									"text" : "select",
									"numoutlets" : 1,
									"fontname" : "Arial",
									"outlettype" : [ "" ],
									"fontsize" : 11.595187,
									"id" : "obj-2",
									"numinlets" : 2,
									"patching_rect" : [ 24.0, 17.0, 46.0, 18.0 ]
								}

							}
, 							{
								"box" : 								{
									"maxclass" : "jsui",
									"varname" : "ej.lui-11514[3]",
									"jsarguments" : [  ],
									"numoutlets" : 3,
									"outlettype" : [ "", "", "" ],
									"filename" : "ej.numbox.js",
									"presentation_rect" : [ 0.0, 0.0, 32.0, 16.0 ],
									"id" : "obj-3",
									"numinlets" : 1,
									"patching_rect" : [ 24.0, 180.0, 32.0, 16.0 ],
									"embedstate" : [ [ "redrawoff" ], [ "brgb", 165, 178, 178 ], [ "brgb2", 51, 76, 127 ], [ "brgb3", 51, 76, 153 ], [ "frgb", 51, 76, 255 ], [ "frgb2", 165, 178, 178 ], [ "roundmode", 2 ], [ "leading0", 0 ], [ "approximation", 2 ], [ "clip", 0 ], [ "minmax", 0, 127 ], [ "initvalue", 0 ], [ "change", 0 ], [ "mouseup", 0 ], [ "allowkeyboard", 1 ], [ "redrawon" ] ]
								}

							}
, 							{
								"box" : 								{
									"maxclass" : "jsui",
									"varname" : "ej.lui-11514[2]",
									"jsarguments" : [  ],
									"numoutlets" : 3,
									"outlettype" : [ "", "", "" ],
									"filename" : "ej.numbox.js",
									"presentation_rect" : [ 0.0, 0.0, 32.0, 16.0 ],
									"id" : "obj-4",
									"numinlets" : 1,
									"patching_rect" : [ 24.0, 142.0, 32.0, 16.0 ],
									"embedstate" : [ [ "redrawoff" ], [ "brgb", 165, 178, 178 ], [ "brgb2", 51, 76, 127 ], [ "brgb3", 51, 76, 153 ], [ "frgb", 51, 76, 255 ], [ "frgb2", 165, 178, 178 ], [ "roundmode", 2 ], [ "leading0", 0 ], [ "approximation", 2 ], [ "clip", 0 ], [ "minmax", 0, 127 ], [ "initvalue", 0 ], [ "change", 0 ], [ "mouseup", 0 ], [ "allowkeyboard", 1 ], [ "redrawon" ] ]
								}

							}
, 							{
								"box" : 								{
									"maxclass" : "jsui",
									"varname" : "ej.lui-11514[1]",
									"jsarguments" : [  ],
									"numoutlets" : 3,
									"outlettype" : [ "", "", "" ],
									"filename" : "ej.numbox.js",
									"presentation_rect" : [ 0.0, 0.0, 32.0, 16.0 ],
									"id" : "obj-5",
									"numinlets" : 1,
									"patching_rect" : [ 24.0, 104.0, 32.0, 16.0 ],
									"embedstate" : [ [ "redrawoff" ], [ "brgb", 165, 178, 178 ], [ "brgb2", 51, 76, 127 ], [ "brgb3", 51, 76, 153 ], [ "frgb", 51, 76, 255 ], [ "frgb2", 165, 178, 178 ], [ "roundmode", 2 ], [ "leading0", 0 ], [ "approximation", 2 ], [ "clip", 0 ], [ "minmax", 0, 127 ], [ "initvalue", 0 ], [ "change", 0 ], [ "mouseup", 0 ], [ "allowkeyboard", 1 ], [ "redrawon" ] ]
								}

							}
, 							{
								"box" : 								{
									"maxclass" : "jsui",
									"varname" : "ej.lui-11514",
									"jsarguments" : [  ],
									"numoutlets" : 3,
									"outlettype" : [ "", "", "" ],
									"filename" : "ej.numbox.js",
									"presentation_rect" : [ 0.0, 0.0, 32.0, 16.0 ],
									"id" : "obj-6",
									"numinlets" : 1,
									"patching_rect" : [ 24.0, 66.0, 32.0, 16.0 ],
									"embedstate" : [ [ "redrawoff" ], [ "brgb", 165, 178, 178 ], [ "brgb2", 51, 76, 127 ], [ "brgb3", 51, 76, 153 ], [ "frgb", 51, 76, 255 ], [ "frgb2", 165, 178, 178 ], [ "roundmode", 2 ], [ "leading0", 0 ], [ "approximation", 2 ], [ "clip", 0 ], [ "minmax", 0, 127 ], [ "initvalue", 0 ], [ "change", 0 ], [ "mouseup", 0 ], [ "allowkeyboard", 1 ], [ "redrawon" ] ]
								}

							}
, 							{
								"box" : 								{
									"maxclass" : "comment",
									"text" : "select will put the keyboard focus on one number box",
									"numoutlets" : 0,
									"fontname" : "Arial",
									"fontsize" : 11.595187,
									"id" : "obj-8",
									"numinlets" : 1,
									"patching_rect" : [ 70.0, 16.0, 353.0, 20.0 ]
								}

							}
 ],
						"lines" : [ 							{
								"patchline" : 								{
									"source" : [ "obj-4", 2 ],
									"destination" : [ "obj-3", 0 ],
									"hidden" : 0
								}

							}
, 							{
								"patchline" : 								{
									"source" : [ "obj-5", 2 ],
									"destination" : [ "obj-4", 0 ],
									"hidden" : 0
								}

							}
, 							{
								"patchline" : 								{
									"source" : [ "obj-6", 2 ],
									"destination" : [ "obj-5", 0 ],
									"hidden" : 0
								}

							}
, 							{
								"patchline" : 								{
									"source" : [ "obj-3", 2 ],
									"destination" : [ "obj-6", 0 ],
									"hidden" : 0,
									"midpoints" : [ 46.5, 201.0, 12.0, 201.0, 12.0, 59.0, 33.5, 59.0 ]
								}

							}
, 							{
								"patchline" : 								{
									"source" : [ "obj-2", 0 ],
									"destination" : [ "obj-6", 0 ],
									"hidden" : 0
								}

							}
 ]
					}
,
					"saved_object_attributes" : 					{
						"globalpatchername" : "",
						"fontname" : "Arial",
						"default_fontface" : 0,
						"fontface" : 0,
						"default_fontname" : "Arial",
						"fontsize" : 12.0,
						"default_fontsize" : 12.0
					}

				}

			}
, 			{
				"box" : 				{
					"maxclass" : "comment",
					"text" : "...",
					"presentation" : 0,
					"numoutlets" : 0,
					"ignoreclick" : 1,
					"bgcolor" : [ 1.0, 1.0, 1.0, 0.0 ],
					"fontname" : "Arial",
					"hidden" : 0,
					"frgb" : [ 0.0, 0.0, 0.0, 1.0 ],
					"presentation_rect" : [ 0.0, 0.0, 0.0, 0.0 ],
					"fontface" : 0,
					"fontsize" : 11.595187,
					"underline" : 0,
					"textcolor" : [ 0.0, 0.0, 0.0, 1.0 ],
					"id" : "obj-2",
					"background" : 0,
					"numinlets" : 1,
					"patching_rect" : [ 335.0, 202.0, 146.0, 20.0 ]
				}

			}
, 			{
				"box" : 				{
					"maxclass" : "flonum",
					"presentation" : 0,
					"numoutlets" : 2,
					"ignoreclick" : 0,
					"minimum" : "<none>",
					"bgcolor" : [ 1.0, 1.0, 1.0, 1.0 ],
					"bordercolor" : [ 0.5, 0.5, 0.5, 1.0 ],
					"outputonclick" : 0,
					"hbgcolor" : [ 0.0, 0.0, 0.0, 1.0 ],
					"fontname" : "Arial",
					"hidden" : 0,
					"outlettype" : [ "float", "bang" ],
					"maximum" : "<none>",
					"cantchange" : 0,
					"htextcolor" : [ 0.870588, 0.870588, 0.870588, 1.0 ],
					"numdecimalplaces" : 0,
					"presentation_rect" : [ 0.0, 0.0, 50.0, 20.0 ],
					"fontface" : 0,
					"fontsize" : 11.595187,
					"triscale" : 0.9,
					"textcolor" : [ 0.0, 0.0, 0.0, 1.0 ],
					"id" : "obj-3",
					"background" : 0,
					"mouseup" : 0,
					"numinlets" : 1,
					"triangle" : 1,
					"patching_rect" : [ 171.0, 110.0, 50.0, 20.0 ]
				}

			}
, 			{
				"box" : 				{
					"maxclass" : "message",
					"text" : "set $1",
					"presentation" : 0,
					"numoutlets" : 1,
					"gradient" : 0,
					"ignoreclick" : 0,
					"bgcolor" : [ 0.867, 0.867, 0.867, 1.0 ],
					"fontname" : "Arial",
					"hidden" : 0,
					"outlettype" : [ "" ],
					"presentation_rect" : [ 0.0, 0.0, 0.0, 0.0 ],
					"fontface" : 0,
					"fontsize" : 11.595187,
					"textcolor" : [ 0.0, 0.0, 0.0, 1.0 ],
					"id" : "obj-4",
					"background" : 0,
					"bgcolor2" : [ 0.867, 0.867, 0.867, 1.0 ],
					"numinlets" : 2,
					"patching_rect" : [ 171.0, 135.0, 47.0, 18.0 ]
				}

			}
, 			{
				"box" : 				{
					"maxclass" : "comment",
					"text" : "keyboard input",
					"presentation" : 0,
					"numoutlets" : 0,
					"ignoreclick" : 1,
					"bgcolor" : [ 1.0, 1.0, 1.0, 0.0 ],
					"fontname" : "Arial",
					"hidden" : 0,
					"frgb" : [ 0.0, 0.0, 0.0, 1.0 ],
					"presentation_rect" : [ 0.0, 0.0, 0.0, 0.0 ],
					"fontface" : 0,
					"fontsize" : 11.595187,
					"underline" : 0,
					"textcolor" : [ 0.0, 0.0, 0.0, 1.0 ],
					"id" : "obj-11",
					"background" : 0,
					"numinlets" : 1,
					"patching_rect" : [ 335.0, 187.0, 162.0, 20.0 ]
				}

			}
, 			{
				"box" : 				{
					"maxclass" : "comment",
					"text" : "pattr compatible",
					"presentation" : 0,
					"numoutlets" : 0,
					"ignoreclick" : 1,
					"bgcolor" : [ 1.0, 1.0, 1.0, 0.0 ],
					"fontname" : "Arial",
					"hidden" : 0,
					"frgb" : [ 0.0, 0.0, 0.0, 1.0 ],
					"presentation_rect" : [ 0.0, 0.0, 0.0, 0.0 ],
					"fontface" : 0,
					"fontsize" : 11.595187,
					"underline" : 0,
					"textcolor" : [ 0.0, 0.0, 0.0, 1.0 ],
					"id" : "obj-12",
					"background" : 0,
					"numinlets" : 1,
					"patching_rect" : [ 335.0, 172.0, 161.0, 20.0 ]
				}

			}
, 			{
				"box" : 				{
					"maxclass" : "comment",
					"text" : "rounding options",
					"presentation" : 0,
					"numoutlets" : 0,
					"ignoreclick" : 1,
					"bgcolor" : [ 1.0, 1.0, 1.0, 0.0 ],
					"fontname" : "Arial",
					"hidden" : 0,
					"frgb" : [ 0.0, 0.0, 0.0, 1.0 ],
					"presentation_rect" : [ 0.0, 0.0, 0.0, 0.0 ],
					"fontface" : 0,
					"fontsize" : 11.595187,
					"underline" : 0,
					"textcolor" : [ 0.0, 0.0, 0.0, 1.0 ],
					"id" : "obj-13",
					"background" : 0,
					"numinlets" : 1,
					"patching_rect" : [ 335.0, 157.0, 162.0, 20.0 ]
				}

			}
, 			{
				"box" : 				{
					"maxclass" : "comment",
					"text" : "display float",
					"presentation" : 0,
					"numoutlets" : 0,
					"ignoreclick" : 1,
					"bgcolor" : [ 1.0, 1.0, 1.0, 0.0 ],
					"fontname" : "Arial",
					"hidden" : 0,
					"frgb" : [ 0.0, 0.0, 0.0, 1.0 ],
					"presentation_rect" : [ 0.0, 0.0, 0.0, 0.0 ],
					"fontface" : 0,
					"fontsize" : 11.595187,
					"underline" : 0,
					"textcolor" : [ 0.0, 0.0, 0.0, 1.0 ],
					"id" : "obj-14",
					"background" : 0,
					"numinlets" : 1,
					"patching_rect" : [ 335.0, 142.0, 162.0, 20.0 ]
				}

			}
, 			{
				"box" : 				{
					"maxclass" : "comment",
					"text" : "leading 0",
					"presentation" : 0,
					"numoutlets" : 0,
					"ignoreclick" : 1,
					"bgcolor" : [ 1.0, 1.0, 1.0, 0.0 ],
					"fontname" : "Arial",
					"hidden" : 0,
					"frgb" : [ 0.0, 0.0, 0.0, 1.0 ],
					"presentation_rect" : [ 0.0, 0.0, 0.0, 0.0 ],
					"fontface" : 0,
					"fontsize" : 11.595187,
					"underline" : 0,
					"textcolor" : [ 0.0, 0.0, 0.0, 1.0 ],
					"id" : "obj-15",
					"background" : 0,
					"numinlets" : 1,
					"patching_rect" : [ 335.0, 127.0, 161.0, 20.0 ]
				}

			}
, 			{
				"box" : 				{
					"maxclass" : "comment",
					"text" : "idle report & color change",
					"presentation" : 0,
					"numoutlets" : 0,
					"ignoreclick" : 1,
					"bgcolor" : [ 1.0, 1.0, 1.0, 0.0 ],
					"fontname" : "Arial",
					"hidden" : 0,
					"frgb" : [ 0.0, 0.0, 0.0, 1.0 ],
					"presentation_rect" : [ 0.0, 0.0, 0.0, 0.0 ],
					"fontface" : 0,
					"fontsize" : 11.595187,
					"underline" : 0,
					"textcolor" : [ 0.0, 0.0, 0.0, 1.0 ],
					"id" : "obj-16",
					"background" : 0,
					"numinlets" : 1,
					"patching_rect" : [ 335.0, 97.0, 164.0, 20.0 ]
				}

			}
, 			{
				"box" : 				{
					"maxclass" : "comment",
					"text" : "endless scrolling",
					"presentation" : 0,
					"numoutlets" : 0,
					"ignoreclick" : 1,
					"bgcolor" : [ 1.0, 1.0, 1.0, 0.0 ],
					"fontname" : "Arial",
					"hidden" : 0,
					"frgb" : [ 0.0, 0.0, 0.0, 1.0 ],
					"presentation_rect" : [ 0.0, 0.0, 0.0, 0.0 ],
					"fontface" : 0,
					"fontsize" : 11.595187,
					"underline" : 0,
					"textcolor" : [ 0.0, 0.0, 0.0, 1.0 ],
					"id" : "obj-17",
					"background" : 0,
					"numinlets" : 1,
					"patching_rect" : [ 335.0, 112.0, 162.0, 20.0 ]
				}

			}
, 			{
				"box" : 				{
					"maxclass" : "comment",
					"text" : "features:",
					"presentation" : 0,
					"numoutlets" : 0,
					"ignoreclick" : 1,
					"bgcolor" : [ 1.0, 1.0, 1.0, 0.0 ],
					"fontname" : "Arial",
					"hidden" : 0,
					"frgb" : [ 0.0, 0.0, 0.0, 1.0 ],
					"presentation_rect" : [ 0.0, 0.0, 0.0, 0.0 ],
					"fontface" : 0,
					"fontsize" : 11.595187,
					"underline" : 0,
					"textcolor" : [ 0.0, 0.0, 0.0, 1.0 ],
					"id" : "obj-18",
					"background" : 0,
					"numinlets" : 1,
					"patching_rect" : [ 319.0, 82.0, 194.0, 20.0 ]
				}

			}
, 			{
				"box" : 				{
					"maxclass" : "toggle",
					"presentation" : 0,
					"checkedcolor" : [ 0.0, 0.0, 0.0, 1.0 ],
					"numoutlets" : 1,
					"ignoreclick" : 0,
					"bgcolor" : [ 1.0, 1.0, 1.0, 1.0 ],
					"bordercolor" : [ 0.5, 0.5, 0.5, 1.0 ],
					"hidden" : 0,
					"outlettype" : [ "int" ],
					"presentation_rect" : [ 0.0, 0.0, 0.0, 0.0 ],
					"id" : "obj-24",
					"background" : 0,
					"numinlets" : 1,
					"patching_rect" : [ 131.0, 183.0, 20.0, 20.0 ]
				}

			}
, 			{
				"box" : 				{
					"maxclass" : "flonum",
					"presentation" : 0,
					"numoutlets" : 2,
					"ignoreclick" : 0,
					"minimum" : "<none>",
					"bgcolor" : [ 1.0, 1.0, 1.0, 1.0 ],
					"bordercolor" : [ 0.5, 0.5, 0.5, 1.0 ],
					"outputonclick" : 0,
					"hbgcolor" : [ 0.0, 0.0, 0.0, 1.0 ],
					"fontname" : "Arial",
					"hidden" : 0,
					"outlettype" : [ "float", "bang" ],
					"maximum" : "<none>",
					"cantchange" : 0,
					"htextcolor" : [ 0.870588, 0.870588, 0.870588, 1.0 ],
					"numdecimalplaces" : 0,
					"presentation_rect" : [ 0.0, 0.0, 50.0, 20.0 ],
					"fontface" : 0,
					"fontsize" : 11.595187,
					"triscale" : 0.9,
					"textcolor" : [ 0.0, 0.0, 0.0, 1.0 ],
					"id" : "obj-25",
					"background" : 0,
					"mouseup" : 0,
					"numinlets" : 1,
					"triangle" : 1,
					"patching_rect" : [ 115.0, 210.0, 50.0, 20.0 ]
				}

			}
, 			{
				"box" : 				{
					"maxclass" : "flonum",
					"presentation" : 0,
					"numoutlets" : 2,
					"ignoreclick" : 0,
					"minimum" : "<none>",
					"bgcolor" : [ 1.0, 1.0, 1.0, 1.0 ],
					"bordercolor" : [ 0.5, 0.5, 0.5, 1.0 ],
					"outputonclick" : 0,
					"hbgcolor" : [ 0.0, 0.0, 0.0, 1.0 ],
					"fontname" : "Arial",
					"hidden" : 0,
					"outlettype" : [ "float", "bang" ],
					"maximum" : "<none>",
					"cantchange" : 0,
					"htextcolor" : [ 0.870588, 0.870588, 0.870588, 1.0 ],
					"numdecimalplaces" : 0,
					"presentation_rect" : [ 0.0, 0.0, 50.0, 20.0 ],
					"fontface" : 0,
					"fontsize" : 11.595187,
					"triscale" : 0.9,
					"textcolor" : [ 0.0, 0.0, 0.0, 1.0 ],
					"id" : "obj-26",
					"background" : 0,
					"mouseup" : 0,
					"numinlets" : 1,
					"triangle" : 1,
					"patching_rect" : [ 115.0, 110.0, 50.0, 20.0 ]
				}

			}
, 			{
				"box" : 				{
					"maxclass" : "jsui",
					"varname" : "toto",
					"jsarguments" : [  ],
					"presentation" : 0,
					"numoutlets" : 3,
					"ignoreclick" : 0,
					"hidden" : 0,
					"outlettype" : [ "", "", "" ],
					"border" : 1,
					"nofsaa" : 1,
					"filename" : "ej.numbox.js",
					"presentation_rect" : [ 0.0, 0.0, 32.0, 16.0 ],
					"id" : "obj-27",
					"background" : 0,
					"numinlets" : 1,
					"patching_rect" : [ 115.0, 159.0, 32.0, 16.0 ],
					"embedstate" : [ [ "redrawoff" ], [ "brgb", 165, 178, 178 ], [ "brgb2", 51, 76, 127 ], [ "brgb3", 51, 76, 153 ], [ "frgb", 51, 76, 255 ], [ "frgb2", 165, 178, 178 ], [ "roundmode", 2 ], [ "leading0", 0 ], [ "approximation", 2 ], [ "clip", 0 ], [ "minmax", 0, 127 ], [ "initvalue", 0 ], [ "change", 0 ], [ "mouseup", 0 ], [ "allowkeyboard", 1 ], [ "redrawon" ] ]
				}

			}
, 			{
				"box" : 				{
					"maxclass" : "newobj",
					"text" : "p jit.getparam compatibility",
					"presentation" : 0,
					"numoutlets" : 0,
					"ignoreclick" : 0,
					"bgcolor" : [ 1.0, 1.0, 1.0, 1.0 ],
					"fontname" : "Arial",
					"hidden" : 0,
					"presentation_rect" : [ 0.0, 0.0, 0.0, 0.0 ],
					"fontface" : 0,
					"fontsize" : 11.595187,
					"textcolor" : [ 0.0, 0.0, 0.0, 1.0 ],
					"id" : "obj-28",
					"background" : 0,
					"color" : [ 0.8, 0.84, 0.71, 1.0 ],
					"numinlets" : 0,
					"patching_rect" : [ 321.0, 245.0, 153.0, 20.0 ],
					"patcher" : 					{
						"fileversion" : 1,
						"rect" : [ 10.0, 59.0, 412.0, 296.0 ],
						"bgcolor" : [ 0.937255, 0.92549, 0.792157, 1.0 ],
						"bglocked" : 0,
						"defrect" : [ 10.0, 59.0, 412.0, 296.0 ],
						"openrect" : [ 0.0, 0.0, 0.0, 0.0 ],
						"openinpresentation" : 0,
						"default_fontsize" : 12.0,
						"default_fontface" : 0,
						"default_fontname" : "Arial",
						"gridonopen" : 0,
						"gridsize" : [ 15.0, 15.0 ],
						"gridsnaponopen" : 0,
						"toolbarvisible" : 1,
						"boxanimatetime" : 200,
						"imprint" : 0,
						"metadata" : [  ],
						"boxes" : [ 							{
								"box" : 								{
									"maxclass" : "newobj",
									"text" : "bgcolor 0.937255 0.92549 0.792157 1.",
									"numoutlets" : 0,
									"fontname" : "Arial",
									"hidden" : 1,
									"fontsize" : 11.595187,
									"id" : "obj-1",
									"numinlets" : 4,
									"patching_rect" : [ 209.0, 272.0, 210.0, 20.0 ]
								}

							}
, 							{
								"box" : 								{
									"maxclass" : "flonum",
									"numoutlets" : 2,
									"fontname" : "Arial",
									"outlettype" : [ "float", "bang" ],
									"htextcolor" : [ 0.870588, 0.870588, 0.870588, 1.0 ],
									"presentation_rect" : [ 0.0, 0.0, 50.0, 20.0 ],
									"fontsize" : 11.595187,
									"triscale" : 0.9,
									"id" : "obj-2",
									"numinlets" : 1,
									"patching_rect" : [ 78.218544, 253.653473, 50.0, 20.0 ]
								}

							}
, 							{
								"box" : 								{
									"maxclass" : "flonum",
									"numoutlets" : 2,
									"fontname" : "Arial",
									"outlettype" : [ "float", "bang" ],
									"htextcolor" : [ 0.870588, 0.870588, 0.870588, 1.0 ],
									"presentation_rect" : [ 0.0, 0.0, 50.0, 20.0 ],
									"fontsize" : 11.595187,
									"triscale" : 0.9,
									"id" : "obj-3",
									"numinlets" : 1,
									"patching_rect" : [ 23.5298, 190.287125, 50.0, 20.0 ]
								}

							}
, 							{
								"box" : 								{
									"maxclass" : "comment",
									"text" : "jit.getparam compatible…",
									"numoutlets" : 0,
									"fontname" : "Arial",
									"fontsize" : 11.595187,
									"id" : "obj-4",
									"numinlets" : 1,
									"patching_rect" : [ 54.337746, 21.0, 238.0, 20.0 ]
								}

							}
, 							{
								"box" : 								{
									"maxclass" : "swatch",
									"compatibility" : 1,
									"numoutlets" : 2,
									"outlettype" : [ "", "float" ],
									"id" : "obj-5",
									"numinlets" : 3,
									"patching_rect" : [ 209.105957, 100.306931, 140.0, 33.0 ]
								}

							}
, 							{
								"box" : 								{
									"maxclass" : "message",
									"text" : "saturation $1",
									"numoutlets" : 1,
									"fontname" : "Arial",
									"hidden" : 1,
									"outlettype" : [ "" ],
									"fontsize" : 11.595187,
									"id" : "obj-6",
									"numinlets" : 2,
									"patching_rect" : [ 194.562912, 162.405945, 86.0, 18.0 ]
								}

							}
, 							{
								"box" : 								{
									"maxclass" : "slider",
									"numoutlets" : 1,
									"orientation" : 2,
									"mult" : 2.0,
									"outlettype" : [ "" ],
									"id" : "obj-7",
									"numinlets" : 1,
									"patching_rect" : [ 194.562912, 100.306931, 13.0, 33.0 ]
								}

							}
, 							{
								"box" : 								{
									"maxclass" : "flonum",
									"numoutlets" : 2,
									"fontname" : "Arial",
									"outlettype" : [ "float", "bang" ],
									"htextcolor" : [ 0.870588, 0.870588, 0.870588, 1.0 ],
									"presentation_rect" : [ 0.0, 0.0, 50.0, 20.0 ],
									"fontsize" : 11.595187,
									"triscale" : 0.9,
									"id" : "obj-8",
									"numinlets" : 1,
									"patching_rect" : [ 121.847679, 105.376236, 50.0, 20.0 ]
								}

							}
, 							{
								"box" : 								{
									"maxclass" : "umenu",
									"numoutlets" : 3,
									"fontname" : "Arial",
									"outlettype" : [ "int", "", "" ],
									"pattrmode" : 1,
									"items" : [ "(Parameters)", ",", "roundmode", ",", "brgb", ",", "brgb2", ",", "brgb3", ",", "frgb", ",", "frgb2", ",", "approximation", ",", "leading0", ",", "initvalue", ",", "change", ",", "mouseup" ],
									"types" : [  ],
									"fontsize" : 11.595187,
									"id" : "obj-9",
									"numinlets" : 1,
									"patching_rect" : [ 34.589405, 105.376236, 83.0, 20.0 ]
								}

							}
, 							{
								"box" : 								{
									"maxclass" : "newobj",
									"text" : "jit.getparam titi",
									"numoutlets" : 3,
									"fontname" : "Arial",
									"outlettype" : [ "", "", "" ],
									"fontsize" : 11.595187,
									"id" : "obj-10",
									"color" : [ 1.0, 0.890196, 0.090196, 1.0 ],
									"numinlets" : 2,
									"patching_rect" : [ 34.589405, 73.693069, 194.0, 20.0 ]
								}

							}
, 							{
								"box" : 								{
									"maxclass" : "newobj",
									"text" : "r titi",
									"numoutlets" : 1,
									"fontname" : "Arial",
									"outlettype" : [ "" ],
									"fontsize" : 11.595187,
									"id" : "obj-11",
									"color" : [ 0.156863, 0.8, 0.54902, 1.0 ],
									"numinlets" : 0,
									"patching_rect" : [ 78.218544, 190.287125, 37.0, 20.0 ]
								}

							}
, 							{
								"box" : 								{
									"maxclass" : "toggle",
									"numoutlets" : 1,
									"outlettype" : [ "int" ],
									"id" : "obj-12",
									"numinlets" : 1,
									"patching_rect" : [ 132.119202, 253.653473, 20.0, 20.0 ]
								}

							}
, 							{
								"box" : 								{
									"maxclass" : "jsui",
									"jsarguments" : [  ],
									"numoutlets" : 3,
									"outlettype" : [ "", "", "" ],
									"filename" : "ej.numbox.js",
									"presentation_rect" : [ 0.0, 0.0, 95.0, 16.0 ],
									"id" : "obj-13",
									"numinlets" : 1,
									"patching_rect" : [ 78.218544, 223.237625, 95.0, 16.0 ],
									"embedstate" : [ [ "redrawoff" ], [ "brgb", 165, 178, 178 ], [ "brgb2", 51, 76, 127 ], [ "brgb3", 51, 76, 153 ], [ "frgb", 51, 76, 255 ], [ "frgb2", 165, 178, 178 ], [ "roundmode", 0 ], [ "leading0", 1 ], [ "approximation", 2 ], [ "clip", 0 ], [ "minmax", 0.0, 127.0 ], [ "initvalue", 1.23 ], [ "change", 0 ], [ "mouseup", 0 ], [ "allowkeyboard", 0 ], [ "redrawon" ] ]
								}

							}
 ],
						"lines" : [ 							{
								"patchline" : 								{
									"source" : [ "obj-6", 0 ],
									"destination" : [ "obj-5", 0 ],
									"hidden" : 1
								}

							}
, 							{
								"patchline" : 								{
									"source" : [ "obj-10", 2 ],
									"destination" : [ "obj-5", 0 ],
									"hidden" : 0
								}

							}
, 							{
								"patchline" : 								{
									"source" : [ "obj-8", 0 ],
									"destination" : [ "obj-10", 1 ],
									"hidden" : 0,
									"midpoints" : [ 131.347687, 156.069305, 388.470184, 156.069305, 388.470184, 62.287128, 219.089401, 62.287128 ]
								}

							}
, 							{
								"patchline" : 								{
									"source" : [ "obj-5", 0 ],
									"destination" : [ "obj-10", 1 ],
									"hidden" : 0,
									"midpoints" : [ 218.605957, 151.0, 383.622528, 151.0, 383.622528, 67.356438, 219.089401, 67.356438 ]
								}

							}
, 							{
								"patchline" : 								{
									"source" : [ "obj-7", 0 ],
									"destination" : [ "obj-6", 0 ],
									"hidden" : 1
								}

							}
, 							{
								"patchline" : 								{
									"source" : [ "obj-13", 1 ],
									"destination" : [ "obj-12", 0 ],
									"hidden" : 0,
									"midpoints" : [ 125.718544, 249.0, 141.619202, 249.0 ]
								}

							}
, 							{
								"patchline" : 								{
									"source" : [ "obj-10", 1 ],
									"destination" : [ "obj-8", 0 ],
									"hidden" : 0
								}

							}
, 							{
								"patchline" : 								{
									"source" : [ "obj-13", 0 ],
									"destination" : [ "obj-2", 0 ],
									"hidden" : 0
								}

							}
, 							{
								"patchline" : 								{
									"source" : [ "obj-3", 0 ],
									"destination" : [ "obj-13", 0 ],
									"hidden" : 0
								}

							}
, 							{
								"patchline" : 								{
									"source" : [ "obj-11", 0 ],
									"destination" : [ "obj-13", 0 ],
									"hidden" : 0
								}

							}
, 							{
								"patchline" : 								{
									"source" : [ "obj-10", 0 ],
									"destination" : [ "obj-9", 0 ],
									"hidden" : 0
								}

							}
, 							{
								"patchline" : 								{
									"source" : [ "obj-9", 1 ],
									"destination" : [ "obj-10", 0 ],
									"hidden" : 0,
									"midpoints" : [ 76.089401, 131.990097, 27.317881, 131.990097, 27.317881, 63.554455, 44.089405, 63.554455 ]
								}

							}
 ]
					}
,
					"saved_object_attributes" : 					{
						"globalpatchername" : "",
						"fontname" : "Arial",
						"default_fontface" : 0,
						"fontface" : 0,
						"default_fontname" : "Arial",
						"fontsize" : 12.0,
						"default_fontsize" : 12.0
					}

				}

			}
, 			{
				"box" : 				{
					"maxclass" : "comment",
					"text" : "idle reporting",
					"presentation" : 0,
					"numoutlets" : 0,
					"ignoreclick" : 1,
					"bgcolor" : [ 1.0, 1.0, 1.0, 0.0 ],
					"fontname" : "Arial",
					"hidden" : 0,
					"frgb" : [ 0.0, 0.0, 0.0, 1.0 ],
					"presentation_rect" : [ 0.0, 0.0, 0.0, 0.0 ],
					"fontface" : 0,
					"fontsize" : 11.595187,
					"underline" : 0,
					"textcolor" : [ 0.0, 0.0, 0.0, 1.0 ],
					"id" : "obj-29",
					"background" : 0,
					"numinlets" : 1,
					"patching_rect" : [ 154.0, 184.0, 125.0, 20.0 ]
				}

			}
 ],
		"lines" : [ 			{
				"patchline" : 				{
					"source" : [ "obj-55", 0 ],
					"destination" : [ "obj-31", 0 ],
					"hidden" : 1,
					"color" : [ 0.0, 0.0, 0.0, 1.0 ]
				}

			}
, 			{
				"patchline" : 				{
					"source" : [ "obj-31", 0 ],
					"destination" : [ "obj-32", 0 ],
					"hidden" : 1,
					"color" : [ 0.0, 0.0, 0.0, 1.0 ]
				}

			}
, 			{
				"patchline" : 				{
					"source" : [ "obj-48", 1 ],
					"destination" : [ "obj-50", 0 ],
					"hidden" : 1,
					"color" : [ 0.0, 0.0, 0.0, 1.0 ]
				}

			}
, 			{
				"patchline" : 				{
					"source" : [ "obj-3", 0 ],
					"destination" : [ "obj-4", 0 ],
					"hidden" : 0,
					"color" : [ 0.0, 0.0, 0.0, 1.0 ]
				}

			}
, 			{
				"patchline" : 				{
					"source" : [ "obj-27", 1 ],
					"destination" : [ "obj-24", 0 ],
					"hidden" : 0,
					"color" : [ 0.0, 0.0, 0.0, 1.0 ],
					"midpoints" : [ 131.0, 179.0, 140.5, 179.0 ]
				}

			}
, 			{
				"patchline" : 				{
					"source" : [ "obj-27", 0 ],
					"destination" : [ "obj-25", 0 ],
					"hidden" : 0,
					"color" : [ 0.0, 0.0, 0.0, 1.0 ]
				}

			}
, 			{
				"patchline" : 				{
					"source" : [ "obj-26", 0 ],
					"destination" : [ "obj-27", 0 ],
					"hidden" : 0,
					"color" : [ 0.0, 0.0, 0.0, 1.0 ]
				}

			}
, 			{
				"patchline" : 				{
					"source" : [ "obj-4", 0 ],
					"destination" : [ "obj-27", 0 ],
					"hidden" : 0,
					"color" : [ 0.0, 0.0, 0.0, 1.0 ]
				}

			}
 ]
	}

}
