{
	"patcher" : 	{
		"fileversion" : 1,
		"rect" : [ 372.0, 55.0, 498.0, 259.0 ],
		"bglocked" : 0,
		"defrect" : [ 372.0, 55.0, 498.0, 259.0 ],
		"openrect" : [ 0.0, 0.0, 0.0, 0.0 ],
		"openinpresentation" : 0,
		"default_fontsize" : 12.0,
		"default_fontface" : 0,
		"default_fontname" : "Arial",
		"gridonopen" : 0,
		"gridsize" : [ 15.0, 15.0 ],
		"gridsnaponopen" : 0,
		"toolbarvisible" : 1,
		"boxanimatetime" : 200,
		"imprint" : 0,
		"metadata" : [  ],
		"boxes" : [ 			{
				"box" : 				{
					"maxclass" : "outlet",
					"numinlets" : 1,
					"numoutlets" : 0,
					"patching_rect" : [ 311.0, 197.222977, 25.0, 25.0 ],
					"id" : "obj-1",
					"comment" : "dumpout"
				}

			}
, 			{
				"box" : 				{
					"maxclass" : "newobj",
					"text" : "route fullscreen",
					"numinlets" : 1,
					"fontname" : "Arial",
					"numoutlets" : 2,
					"outlettype" : [ "", "" ],
					"fontsize" : 11.625051,
					"patching_rect" : [ 23.0, 58.709461, 90.0, 20.0 ],
					"id" : "obj-2"
				}

			}
, 			{
				"box" : 				{
					"maxclass" : "newobj",
					"text" : "loadmess count",
					"numinlets" : 1,
					"fontname" : "Arial",
					"numoutlets" : 1,
					"outlettype" : [ "" ],
					"fontsize" : 11.625051,
					"patching_rect" : [ 222.983994, 58.709461, 92.0, 20.0 ],
					"id" : "obj-3",
					"color" : [ 1.0, 0.611765, 0.611765, 1.0 ]
				}

			}
, 			{
				"box" : 				{
					"maxclass" : "newobj",
					"text" : "r #0-OneScreen",
					"numinlets" : 0,
					"fontname" : "Arial",
					"numoutlets" : 1,
					"outlettype" : [ "" ],
					"fontsize" : 11.625051,
					"patching_rect" : [ 318.378662, 58.709461, 93.0, 20.0 ],
					"id" : "obj-4",
					"color" : [ 0.156863, 0.8, 0.54902, 1.0 ]
				}

			}
, 			{
				"box" : 				{
					"maxclass" : "message",
					"text" : "fsmenubar 0, pos 40 40",
					"numinlets" : 2,
					"fontname" : "Arial",
					"numoutlets" : 1,
					"outlettype" : [ "" ],
					"fontsize" : 11.272416,
					"patching_rect" : [ 318.378662, 93.337837, 129.0, 17.0 ],
					"id" : "obj-5"
				}

			}
, 			{
				"box" : 				{
					"maxclass" : "newobj",
					"text" : "patcherargs",
					"numinlets" : 1,
					"fontname" : "Arial",
					"numoutlets" : 2,
					"outlettype" : [ "", "" ],
					"fontsize" : 11.625051,
					"patching_rect" : [ 127.589333, 58.709461, 72.0, 20.0 ],
					"id" : "obj-6"
				}

			}
, 			{
				"box" : 				{
					"maxclass" : "outlet",
					"numinlets" : 1,
					"numoutlets" : 0,
					"patching_rect" : [ 94.0, 197.222977, 25.0, 25.0 ],
					"id" : "obj-7",
					"comment" : "bangout"
				}

			}
, 			{
				"box" : 				{
					"maxclass" : "inlet",
					"numinlets" : 0,
					"numoutlets" : 1,
					"outlettype" : [ "" ],
					"patching_rect" : [ 23.0, 13.0, 25.0, 25.0 ],
					"id" : "obj-8",
					"comment" : "vidéo input"
				}

			}
, 			{
				"box" : 				{
					"maxclass" : "newobj",
					"text" : "jit.window Vidéo @floating 1 @fsmenubar 1",
					"numinlets" : 1,
					"fontname" : "Arial",
					"numoutlets" : 2,
					"outlettype" : [ "bang", "" ],
					"fontsize" : 11.625051,
					"patching_rect" : [ 94.0, 168.135132, 236.0, 20.0 ],
					"id" : "obj-9"
				}

			}
, 			{
				"box" : 				{
					"maxclass" : "comment",
					"text" : "Vidéo input",
					"numinlets" : 1,
					"fontname" : "Arial",
					"numoutlets" : 0,
					"fontsize" : 11.625051,
					"patching_rect" : [ 45.986668, 14.385135, 69.0, 20.0 ],
					"id" : "obj-10"
				}

			}
, 			{
				"box" : 				{
					"maxclass" : "newobj",
					"text" : "p checkargs",
					"numinlets" : 2,
					"fontname" : "Arial",
					"numoutlets" : 1,
					"outlettype" : [ "" ],
					"fontsize" : 11.625051,
					"patching_rect" : [ 127.589333, 93.337837, 73.0, 20.0 ],
					"id" : "obj-11",
					"color" : [ 1.0, 0.890196, 0.090196, 1.0 ],
					"patcher" : 					{
						"fileversion" : 1,
						"rect" : [ 410.0, 132.0, 465.0, 409.0 ],
						"bglocked" : 0,
						"defrect" : [ 410.0, 132.0, 465.0, 409.0 ],
						"openrect" : [ 0.0, 0.0, 0.0, 0.0 ],
						"openinpresentation" : 0,
						"default_fontsize" : 12.0,
						"default_fontface" : 0,
						"default_fontname" : "Arial",
						"gridonopen" : 0,
						"gridsize" : [ 15.0, 15.0 ],
						"gridsnaponopen" : 0,
						"toolbarvisible" : 1,
						"boxanimatetime" : 200,
						"imprint" : 0,
						"metadata" : [  ],
						"boxes" : [ 							{
								"box" : 								{
									"maxclass" : "comment",
									"text" : "attributes go thru",
									"numinlets" : 1,
									"fontname" : "Arial",
									"numoutlets" : 0,
									"fontsize" : 11.263676,
									"patching_rect" : [ 351.515228, 132.947021, 95.0, 19.0 ],
									"id" : "obj-1"
								}

							}
, 							{
								"box" : 								{
									"maxclass" : "comment",
									"text" : "check if there's any argument",
									"numinlets" : 1,
									"fontname" : "Arial",
									"numoutlets" : 0,
									"fontsize" : 11.263676,
									"patching_rect" : [ 105.592506, 100.920532, 163.948471, 19.0 ],
									"id" : "obj-2"
								}

							}
, 							{
								"box" : 								{
									"maxclass" : "comment",
									"text" : "done message",
									"numinlets" : 1,
									"fontname" : "Arial",
									"numoutlets" : 0,
									"fontsize" : 11.263676,
									"patching_rect" : [ 322.651062, 16.463575, 84.0, 19.0 ],
									"id" : "obj-3"
								}

							}
, 							{
								"box" : 								{
									"maxclass" : "newobj",
									"text" : "route none",
									"numinlets" : 1,
									"fontname" : "Arial",
									"numoutlets" : 2,
									"outlettype" : [ "", "" ],
									"fontsize" : 11.263676,
									"patching_rect" : [ 19.0, 112.006622, 65.810303, 19.0 ],
									"id" : "obj-4"
								}

							}
, 							{
								"box" : 								{
									"maxclass" : "newobj",
									"text" : "sel done",
									"numinlets" : 1,
									"fontname" : "Arial",
									"numoutlets" : 2,
									"outlettype" : [ "bang", "" ],
									"fontsize" : 11.263676,
									"patching_rect" : [ 298.405151, 39.635761, 53.110069, 19.0 ],
									"id" : "obj-5"
								}

							}
, 							{
								"box" : 								{
									"maxclass" : "newobj",
									"text" : "zl reg none",
									"numinlets" : 2,
									"fontname" : "Arial",
									"numoutlets" : 2,
									"outlettype" : [ "", "" ],
									"fontsize" : 11.263676,
									"patching_rect" : [ 19.0, 84.907288, 68.119438, 19.0 ],
									"id" : "obj-6"
								}

							}
, 							{
								"box" : 								{
									"maxclass" : "newobj",
									"text" : "prepend size",
									"numinlets" : 1,
									"fontname" : "Arial",
									"numoutlets" : 1,
									"outlettype" : [ "" ],
									"fontsize" : 11.263676,
									"patching_rect" : [ 32.854801, 300.470184, 75.046837, 19.0 ],
									"id" : "obj-7"
								}

							}
, 							{
								"box" : 								{
									"maxclass" : "newobj",
									"text" : "gate 1 0",
									"numinlets" : 2,
									"fontname" : "Arial",
									"numoutlets" : 1,
									"outlettype" : [ "" ],
									"fontsize" : 11.263676,
									"patching_rect" : [ 32.854801, 248.735092, 51.955505, 19.0 ],
									"id" : "obj-8"
								}

							}
, 							{
								"box" : 								{
									"maxclass" : "newobj",
									"text" : "if $i1 != 2 then out2 bang else 1",
									"numinlets" : 1,
									"fontname" : "Arial",
									"numoutlets" : 2,
									"outlettype" : [ "", "" ],
									"fontsize" : 11.263676,
									"patching_rect" : [ 92.892273, 201.927155, 176.648712, 19.0 ],
									"id" : "obj-9"
								}

							}
, 							{
								"box" : 								{
									"maxclass" : "newobj",
									"text" : "zl len",
									"numinlets" : 2,
									"fontname" : "Arial",
									"numoutlets" : 2,
									"outlettype" : [ "", "" ],
									"fontsize" : 11.263676,
									"patching_rect" : [ 92.892273, 169.900665, 38.100704, 19.0 ],
									"id" : "obj-10"
								}

							}
, 							{
								"box" : 								{
									"maxclass" : "newobj",
									"text" : "t l l",
									"numinlets" : 1,
									"fontname" : "Arial",
									"numoutlets" : 2,
									"outlettype" : [ "", "" ],
									"fontsize" : 11.263676,
									"patching_rect" : [ 73.264641, 142.801331, 31.173302, 19.0 ],
									"id" : "obj-11"
								}

							}
, 							{
								"box" : 								{
									"maxclass" : "inlet",
									"numinlets" : 0,
									"numoutlets" : 1,
									"outlettype" : [ "" ],
									"patching_rect" : [ 19.0, 12.231788, 25.0, 25.0 ],
									"id" : "obj-12",
									"comment" : "arguments from patcherargs"
								}

							}
, 							{
								"box" : 								{
									"maxclass" : "inlet",
									"numinlets" : 0,
									"numoutlets" : 1,
									"outlettype" : [ "" ],
									"patching_rect" : [ 298.405151, 11.0, 25.0, 25.0 ],
									"id" : "obj-13",
									"comment" : "done message"
								}

							}
, 							{
								"box" : 								{
									"maxclass" : "outlet",
									"numinlets" : 1,
									"numoutlets" : 0,
									"patching_rect" : [ 32.854801, 358.364227, 25.0, 25.0 ],
									"id" : "obj-14",
									"comment" : "to jit.window"
								}

							}
, 							{
								"box" : 								{
									"maxclass" : "comment",
									"text" : "to jit.window",
									"numinlets" : 1,
									"fontname" : "Arial",
									"numoutlets" : 0,
									"fontsize" : 11.263676,
									"patching_rect" : [ 62.482437, 362.059601, 72.0, 19.0 ],
									"id" : "obj-15"
								}

							}
, 							{
								"box" : 								{
									"maxclass" : "comment",
									"text" : "arguments from patcherargs",
									"numinlets" : 1,
									"fontname" : "Arial",
									"numoutlets" : 0,
									"fontsize" : 11.263676,
									"patching_rect" : [ 45.7822, 16.463575, 152.0, 19.0 ],
									"id" : "obj-16"
								}

							}
, 							{
								"box" : 								{
									"maxclass" : "newobj",
									"text" : "p missingArgs",
									"numinlets" : 1,
									"fontname" : "Arial",
									"numoutlets" : 1,
									"outlettype" : [ "" ],
									"fontsize" : 11.263676,
									"patching_rect" : [ 257.995331, 240.112579, 85.437943, 19.0 ],
									"id" : "obj-17",
									"patcher" : 									{
										"fileversion" : 1,
										"rect" : [ 479.0, 192.0, 403.0, 169.0 ],
										"bglocked" : 0,
										"defrect" : [ 479.0, 192.0, 403.0, 169.0 ],
										"openrect" : [ 0.0, 0.0, 0.0, 0.0 ],
										"openinpresentation" : 0,
										"default_fontsize" : 12.0,
										"default_fontface" : 0,
										"default_fontname" : "Arial",
										"gridonopen" : 0,
										"gridsize" : [ 15.0, 15.0 ],
										"gridsnaponopen" : 0,
										"toolbarvisible" : 1,
										"boxanimatetime" : 200,
										"imprint" : 0,
										"metadata" : [  ],
										"boxes" : [ 											{
												"box" : 												{
													"maxclass" : "newobj",
													"text" : "b",
													"numinlets" : 1,
													"fontname" : "Arial",
													"numoutlets" : 2,
													"outlettype" : [ "bang", "bang" ],
													"fontsize" : 9.0,
													"patching_rect" : [ 50.0, 50.0, 59.0, 17.0 ],
													"id" : "obj-1"
												}

											}
, 											{
												"box" : 												{
													"maxclass" : "message",
													"text" : "320 240",
													"numinlets" : 2,
													"fontname" : "Arial",
													"numoutlets" : 1,
													"outlettype" : [ "" ],
													"fontsize" : 9.0,
													"patching_rect" : [ 50.0, 75.0, 48.0, 15.0 ],
													"id" : "obj-2"
												}

											}
, 											{
												"box" : 												{
													"maxclass" : "message",
													"text" : "jit.fullscreen bad arguments - replaced by defaults 320 240",
													"numinlets" : 2,
													"fontname" : "Arial",
													"numoutlets" : 1,
													"outlettype" : [ "" ],
													"fontsize" : 9.0,
													"patching_rect" : [ 99.0, 75.0, 281.0, 15.0 ],
													"id" : "obj-3"
												}

											}
, 											{
												"box" : 												{
													"maxclass" : "newobj",
													"text" : "print \"• error\"",
													"numinlets" : 1,
													"fontname" : "Arial",
													"numoutlets" : 0,
													"fontsize" : 9.0,
													"patching_rect" : [ 99.0, 99.0, 78.0, 17.0 ],
													"id" : "obj-4"
												}

											}
, 											{
												"box" : 												{
													"maxclass" : "inlet",
													"numinlets" : 0,
													"numoutlets" : 1,
													"outlettype" : [ "" ],
													"patching_rect" : [ 50.0, 30.0, 15.0, 15.0 ],
													"id" : "obj-5",
													"comment" : ""
												}

											}
, 											{
												"box" : 												{
													"maxclass" : "outlet",
													"numinlets" : 1,
													"numoutlets" : 0,
													"patching_rect" : [ 50.0, 95.0, 15.0, 15.0 ],
													"id" : "obj-6",
													"comment" : ""
												}

											}
 ],
										"lines" : [ 											{
												"patchline" : 												{
													"source" : [ "obj-3", 0 ],
													"destination" : [ "obj-4", 0 ],
													"hidden" : 0
												}

											}
, 											{
												"patchline" : 												{
													"source" : [ "obj-1", 1 ],
													"destination" : [ "obj-3", 0 ],
													"hidden" : 0
												}

											}
, 											{
												"patchline" : 												{
													"source" : [ "obj-2", 0 ],
													"destination" : [ "obj-6", 0 ],
													"hidden" : 0
												}

											}
, 											{
												"patchline" : 												{
													"source" : [ "obj-1", 0 ],
													"destination" : [ "obj-2", 0 ],
													"hidden" : 0
												}

											}
, 											{
												"patchline" : 												{
													"source" : [ "obj-5", 0 ],
													"destination" : [ "obj-1", 0 ],
													"hidden" : 0
												}

											}
 ]
									}
,
									"saved_object_attributes" : 									{
										"default_fontname" : "Arial",
										"globalpatchername" : "",
										"default_fontsize" : 12.0,
										"fontname" : "Arial",
										"fontface" : 0,
										"fontsize" : 12.0,
										"default_fontface" : 0
									}

								}

							}
 ],
						"lines" : [ 							{
								"patchline" : 								{
									"source" : [ "obj-13", 0 ],
									"destination" : [ "obj-5", 0 ],
									"hidden" : 0
								}

							}
, 							{
								"patchline" : 								{
									"source" : [ "obj-9", 1 ],
									"destination" : [ "obj-17", 0 ],
									"hidden" : 0
								}

							}
, 							{
								"patchline" : 								{
									"source" : [ "obj-10", 0 ],
									"destination" : [ "obj-9", 0 ],
									"hidden" : 0
								}

							}
, 							{
								"patchline" : 								{
									"source" : [ "obj-11", 1 ],
									"destination" : [ "obj-10", 0 ],
									"hidden" : 0
								}

							}
, 							{
								"patchline" : 								{
									"source" : [ "obj-11", 0 ],
									"destination" : [ "obj-8", 1 ],
									"hidden" : 0
								}

							}
, 							{
								"patchline" : 								{
									"source" : [ "obj-4", 1 ],
									"destination" : [ "obj-11", 0 ],
									"hidden" : 0
								}

							}
, 							{
								"patchline" : 								{
									"source" : [ "obj-7", 0 ],
									"destination" : [ "obj-14", 0 ],
									"hidden" : 0
								}

							}
, 							{
								"patchline" : 								{
									"source" : [ "obj-5", 1 ],
									"destination" : [ "obj-14", 0 ],
									"hidden" : 0,
									"midpoints" : [ 342.015228, 326.337738 ]
								}

							}
, 							{
								"patchline" : 								{
									"source" : [ "obj-8", 0 ],
									"destination" : [ "obj-7", 0 ],
									"hidden" : 0
								}

							}
, 							{
								"patchline" : 								{
									"source" : [ "obj-17", 0 ],
									"destination" : [ "obj-7", 0 ],
									"hidden" : 0
								}

							}
, 							{
								"patchline" : 								{
									"source" : [ "obj-9", 0 ],
									"destination" : [ "obj-8", 0 ],
									"hidden" : 0
								}

							}
, 							{
								"patchline" : 								{
									"source" : [ "obj-6", 0 ],
									"destination" : [ "obj-4", 0 ],
									"hidden" : 0
								}

							}
, 							{
								"patchline" : 								{
									"source" : [ "obj-5", 0 ],
									"destination" : [ "obj-6", 0 ],
									"hidden" : 0
								}

							}
, 							{
								"patchline" : 								{
									"source" : [ "obj-12", 0 ],
									"destination" : [ "obj-6", 0 ],
									"hidden" : 0
								}

							}
 ]
					}
,
					"saved_object_attributes" : 					{
						"default_fontname" : "Arial",
						"globalpatchername" : "",
						"default_fontsize" : 12.0,
						"fontname" : "Arial",
						"fontface" : 0,
						"fontsize" : 12.0,
						"default_fontface" : 0
					}

				}

			}
, 			{
				"box" : 				{
					"maxclass" : "newobj",
					"text" : "p displays",
					"numinlets" : 1,
					"fontname" : "Arial",
					"numoutlets" : 1,
					"outlettype" : [ "" ],
					"fontsize" : 11.625051,
					"patching_rect" : [ 222.983994, 93.337837, 62.0, 20.0 ],
					"id" : "obj-12",
					"color" : [ 1.0, 0.890196, 0.090196, 1.0 ],
					"patcher" : 					{
						"fileversion" : 1,
						"rect" : [ 346.0, 187.0, 490.0, 443.0 ],
						"bglocked" : 0,
						"defrect" : [ 346.0, 187.0, 490.0, 443.0 ],
						"openrect" : [ 0.0, 0.0, 0.0, 0.0 ],
						"openinpresentation" : 0,
						"default_fontsize" : 12.0,
						"default_fontface" : 0,
						"default_fontname" : "Arial",
						"gridonopen" : 0,
						"gridsize" : [ 15.0, 15.0 ],
						"gridsnaponopen" : 0,
						"toolbarvisible" : 1,
						"boxanimatetime" : 200,
						"imprint" : 0,
						"metadata" : [  ],
						"boxes" : [ 							{
								"box" : 								{
									"maxclass" : "newobj",
									"text" : "if $f1 != 0 then bang else out2 bang",
									"numinlets" : 1,
									"fontname" : "Arial",
									"numoutlets" : 2,
									"outlettype" : [ "", "" ],
									"fontsize" : 12.973226,
									"patching_rect" : [ 120.104103, 225.169281, 215.0, 21.0 ],
									"id" : "obj-1"
								}

							}
, 							{
								"box" : 								{
									"maxclass" : "newobj",
									"text" : "mean",
									"numinlets" : 1,
									"fontname" : "Arial",
									"numoutlets" : 2,
									"outlettype" : [ "float", "int" ],
									"fontsize" : 12.973226,
									"patching_rect" : [ 120.104103, 199.4953, 43.0, 21.0 ],
									"id" : "obj-2"
								}

							}
, 							{
								"box" : 								{
									"maxclass" : "newobj",
									"text" : "vexpr $i1 - $i2",
									"numinlets" : 2,
									"fontname" : "Arial",
									"numoutlets" : 1,
									"outlettype" : [ "" ],
									"fontsize" : 12.973226,
									"patching_rect" : [ 120.104103, 171.376175, 104.0, 21.0 ],
									"id" : "obj-3"
								}

							}
, 							{
								"box" : 								{
									"maxclass" : "newobj",
									"text" : "screensize",
									"numinlets" : 1,
									"fontname" : "Arial",
									"numoutlets" : 2,
									"outlettype" : [ "list", "list" ],
									"fontsize" : 12.973226,
									"patching_rect" : [ 120.104103, 143.25705, 104.0, 21.0 ],
									"id" : "obj-4"
								}

							}
, 							{
								"box" : 								{
									"maxclass" : "message",
									"text" : "coords 1, coords 0",
									"numinlets" : 2,
									"fontname" : "Arial",
									"numoutlets" : 1,
									"outlettype" : [ "" ],
									"fontsize" : 12.731263,
									"patching_rect" : [ 120.104103, 256.956116, 122.0, 19.0 ],
									"id" : "obj-5"
								}

							}
, 							{
								"box" : 								{
									"maxclass" : "outlet",
									"numinlets" : 1,
									"numoutlets" : 0,
									"patching_rect" : [ 50.0, 392.661438, 18.974764, 18.974764 ],
									"id" : "obj-6",
									"comment" : ""
								}

							}
, 							{
								"box" : 								{
									"maxclass" : "newobj",
									"text" : "b",
									"numinlets" : 1,
									"fontname" : "Arial",
									"numoutlets" : 2,
									"outlettype" : [ "bang", "bang" ],
									"fontsize" : 12.973226,
									"patching_rect" : [ 333.946381, 265.514099, 40.0, 21.0 ],
									"id" : "obj-7"
								}

							}
, 							{
								"box" : 								{
									"maxclass" : "message",
									"text" : "coords 0",
									"numinlets" : 2,
									"fontname" : "Arial",
									"numoutlets" : 1,
									"outlettype" : [ "" ],
									"fontsize" : 12.731263,
									"patching_rect" : [ 354.946381, 291.18808, 63.0, 19.0 ],
									"id" : "obj-8"
								}

							}
, 							{
								"box" : 								{
									"maxclass" : "newobj",
									"text" : "if $i1 > 1 then bang else out2 bang",
									"numinlets" : 1,
									"fontname" : "Arial",
									"numoutlets" : 2,
									"outlettype" : [ "", "" ],
									"fontsize" : 12.973226,
									"patching_rect" : [ 120.104103, 112.692787, 233.0, 21.0 ],
									"id" : "obj-9"
								}

							}
, 							{
								"box" : 								{
									"maxclass" : "newobj",
									"text" : "route coords count",
									"numinlets" : 1,
									"fontname" : "Arial",
									"numoutlets" : 3,
									"outlettype" : [ "", "", "" ],
									"fontsize" : 12.973226,
									"patching_rect" : [ 50.0, 84.573669, 158.0, 21.0 ],
									"id" : "obj-10"
								}

							}
, 							{
								"box" : 								{
									"maxclass" : "newobj",
									"text" : "jit.displays @resetmode 0",
									"numinlets" : 1,
									"fontname" : "Arial",
									"numoutlets" : 1,
									"outlettype" : [ "" ],
									"fontsize" : 12.973226,
									"patching_rect" : [ 50.0, 56.454544, 163.0, 21.0 ],
									"id" : "obj-11"
								}

							}
, 							{
								"box" : 								{
									"maxclass" : "newobj",
									"text" : "s #0-OneScreen",
									"numinlets" : 1,
									"fontname" : "Arial",
									"numoutlets" : 0,
									"fontsize" : 12.973226,
									"patching_rect" : [ 333.946381, 321.75235, 112.0, 21.0 ],
									"id" : "obj-12",
									"color" : [ 0.156863, 0.8, 0.54902, 1.0 ]
								}

							}
, 							{
								"box" : 								{
									"maxclass" : "inlet",
									"numinlets" : 0,
									"numoutlets" : 1,
									"outlettype" : [ "" ],
									"patching_rect" : [ 50.0, 21.0, 18.974764, 18.974764 ],
									"id" : "obj-13",
									"comment" : ""
								}

							}
, 							{
								"box" : 								{
									"maxclass" : "newobj",
									"text" : "p WindPos-CursorRecenter",
									"numinlets" : 1,
									"fontname" : "Arial",
									"numoutlets" : 1,
									"outlettype" : [ "" ],
									"fontsize" : 12.973226,
									"patching_rect" : [ 50.0, 353.539185, 169.0, 21.0 ],
									"id" : "obj-14",
									"patcher" : 									{
										"fileversion" : 1,
										"rect" : [ 355.0, 121.0, 858.0, 458.0 ],
										"bglocked" : 0,
										"defrect" : [ 355.0, 121.0, 858.0, 458.0 ],
										"openrect" : [ 0.0, 0.0, 0.0, 0.0 ],
										"openinpresentation" : 0,
										"default_fontsize" : 12.0,
										"default_fontface" : 0,
										"default_fontname" : "Arial",
										"gridonopen" : 0,
										"gridsize" : [ 15.0, 15.0 ],
										"gridsnaponopen" : 0,
										"toolbarvisible" : 1,
										"boxanimatetime" : 200,
										"imprint" : 0,
										"metadata" : [  ],
										"boxes" : [ 											{
												"box" : 												{
													"maxclass" : "comment",
													"text" : "milieu du premier écran",
													"numinlets" : 1,
													"fontname" : "Arial",
													"numoutlets" : 0,
													"fontsize" : 10.613763,
													"patching_rect" : [ 390.028046, 340.877106, 129.471252, 19.0 ],
													"id" : "obj-1"
												}

											}
, 											{
												"box" : 												{
													"maxclass" : "newobj",
													"text" : "route 1 0",
													"numinlets" : 1,
													"fontname" : "Arial",
													"numoutlets" : 3,
													"outlettype" : [ "", "", "" ],
													"fontsize" : 10.613763,
													"patching_rect" : [ 16.0, 35.57542, 610.838684, 19.0 ],
													"id" : "obj-2"
												}

											}
, 											{
												"box" : 												{
													"maxclass" : "newobj",
													"text" : "prepend pos",
													"numinlets" : 1,
													"fontname" : "Arial",
													"numoutlets" : 1,
													"outlettype" : [ "" ],
													"fontsize" : 10.613763,
													"patching_rect" : [ 16.0, 369.167603, 69.715286, 19.0 ],
													"id" : "obj-3"
												}

											}
, 											{
												"box" : 												{
													"maxclass" : "newobj",
													"text" : "zl slice 2",
													"numinlets" : 2,
													"fontname" : "Arial",
													"numoutlets" : 2,
													"outlettype" : [ "", "" ],
													"fontsize" : 10.613763,
													"patching_rect" : [ 16.0, 314.944122, 56.436184, 19.0 ],
													"id" : "obj-4"
												}

											}
, 											{
												"box" : 												{
													"maxclass" : "newobj",
													"text" : "vexpr $i1 + 40",
													"numinlets" : 1,
													"fontname" : "Arial",
													"numoutlets" : 1,
													"outlettype" : [ "" ],
													"fontsize" : 10.613763,
													"patching_rect" : [ 16.0, 342.055878, 87.420761, 19.0 ],
													"id" : "obj-5"
												}

											}
, 											{
												"box" : 												{
													"maxclass" : "comment",
													"text" : "coté",
													"numinlets" : 1,
													"fontname" : "Arial",
													"numoutlets" : 0,
													"fontsize" : 10.613763,
													"patching_rect" : [ 249.490891, 316.122894, 54.223, 19.0 ],
													"id" : "obj-6"
												}

											}
, 											{
												"box" : 												{
													"maxclass" : "newobj",
													"text" : "maximum 10",
													"numinlets" : 2,
													"fontname" : "Arial",
													"numoutlets" : 2,
													"outlettype" : [ "int", "int" ],
													"fontsize" : 10.613763,
													"patching_rect" : [ 339.124817, 280.759766, 75.248245, 19.0 ],
													"id" : "obj-7"
												}

											}
, 											{
												"box" : 												{
													"maxclass" : "newobj",
													"text" : "> 1024",
													"numinlets" : 2,
													"fontname" : "Arial",
													"numoutlets" : 1,
													"outlettype" : [ "int" ],
													"fontsize" : 10.613763,
													"patching_rect" : [ 199.694244, 311.407806, 46.47686, 19.0 ],
													"id" : "obj-8"
												}

											}
, 											{
												"box" : 												{
													"maxclass" : "newobj",
													"text" : "gate 2 1",
													"numinlets" : 2,
													"fontname" : "Arial",
													"numoutlets" : 2,
													"outlettype" : [ "", "" ],
													"fontsize" : 10.613763,
													"patching_rect" : [ 132.192139, 283.11731, 78.568024, 19.0 ],
													"id" : "obj-9"
												}

											}
, 											{
												"box" : 												{
													"maxclass" : "newobj",
													"text" : "t poll l",
													"numinlets" : 1,
													"fontname" : "Arial",
													"numoutlets" : 2,
													"outlettype" : [ "poll", "" ],
													"fontsize" : 10.613763,
													"patching_rect" : [ 199.694244, 106.301674, 43.157082, 19.0 ],
													"id" : "obj-10"
												}

											}
, 											{
												"box" : 												{
													"maxclass" : "newobj",
													"text" : "if $i1 < 0 then 2 else 1",
													"numinlets" : 1,
													"fontname" : "Arial",
													"numoutlets" : 1,
													"outlettype" : [ "" ],
													"fontsize" : 10.613763,
													"patching_rect" : [ 357.93689, 218.284912, 141.643753, 19.0 ],
													"id" : "obj-11"
												}

											}
, 											{
												"box" : 												{
													"maxclass" : "newobj",
													"text" : "unpack 0 0",
													"numinlets" : 1,
													"fontname" : "Arial",
													"numoutlets" : 2,
													"outlettype" : [ "int", "int" ],
													"fontsize" : 10.613763,
													"patching_rect" : [ 231.785416, 136.949722, 118.405327, 19.0 ],
													"id" : "obj-12"
												}

											}
, 											{
												"box" : 												{
													"maxclass" : "newobj",
													"text" : "if abs($i1) > abs($i2) then 1 $i1 else 2 $i2",
													"numinlets" : 2,
													"fontname" : "Arial",
													"numoutlets" : 1,
													"outlettype" : [ "" ],
													"fontsize" : 10.613763,
													"patching_rect" : [ 199.694244, 76.832405, 225.744736, 19.0 ],
													"id" : "obj-13"
												}

											}
, 											{
												"box" : 												{
													"maxclass" : "newobj",
													"text" : "switch 2 1",
													"numinlets" : 3,
													"fontname" : "Arial",
													"numoutlets" : 1,
													"outlettype" : [ "" ],
													"fontsize" : 10.613763,
													"patching_rect" : [ 199.694244, 225.357544, 64.182327, 19.0 ],
													"id" : "obj-14"
												}

											}
, 											{
												"box" : 												{
													"maxclass" : "comment",
													"text" : "__________________ \rdroite \rcoords 0 0 0 1280 854 \rcoords 1 1280 0 2304 768 \r__________________ \rhaut \rcoords 0 0 0 1280 854 \rcoords 1 0 -768 1024 0 \r__________________ \rgauche \rcoords 0 0 0 1280 854 \rcoords 1 -1024 0 0 768 \r__________________ \rbas \rcoords 0 0 0 1280 854 \rcoords 1 0 854 1024 1622 \r__________________ \r",
													"linecount" : 17,
													"numinlets" : 1,
													"fontname" : "Arial",
													"numoutlets" : 0,
													"fontsize" : 9.994019,
													"patching_rect" : [ 657.823303, 116.910614, 147.176712, 202.0 ],
													"id" : "obj-15"
												}

											}
, 											{
												"box" : 												{
													"maxclass" : "newobj",
													"text" : "zl slice 2",
													"numinlets" : 2,
													"fontname" : "Arial",
													"numoutlets" : 2,
													"outlettype" : [ "", "" ],
													"fontsize" : 10.613763,
													"patching_rect" : [ 477.448822, 78.011169, 56.436184, 19.0 ],
													"id" : "obj-16"
												}

											}
, 											{
												"box" : 												{
													"maxclass" : "comment",
													"text" : "recentre le curseur sur le premier écran",
													"linecount" : 2,
													"numinlets" : 1,
													"fontname" : "Arial",
													"numoutlets" : 0,
													"fontsize" : 10.182221,
													"patching_rect" : [ 245.064514, 402.173187, 147.176712, 30.0 ],
													"id" : "obj-17"
												}

											}
, 											{
												"box" : 												{
													"maxclass" : "newobj",
													"text" : "- 5",
													"numinlets" : 2,
													"fontname" : "Arial",
													"numoutlets" : 1,
													"outlettype" : [ "int" ],
													"fontsize" : 10.613763,
													"patching_rect" : [ 339.124817, 254.826813, 29.877981, 19.0 ],
													"id" : "obj-18"
												}

											}
, 											{
												"box" : 												{
													"maxclass" : "newobj",
													"text" : "zl reg",
													"numinlets" : 2,
													"fontname" : "Arial",
													"numoutlets" : 2,
													"outlettype" : [ "", "" ],
													"fontsize" : 10.613763,
													"patching_rect" : [ 132.192139, 369.167603, 48.690041, 19.0 ],
													"id" : "obj-19"
												}

											}
, 											{
												"box" : 												{
													"maxclass" : "newobj",
													"text" : "vexpr $i1/ 2",
													"numinlets" : 1,
													"fontname" : "Arial",
													"numoutlets" : 1,
													"outlettype" : [ "" ],
													"fontsize" : 10.613763,
													"patching_rect" : [ 522.819092, 338.519562, 75.248245, 19.0 ],
													"id" : "obj-20"
												}

											}
, 											{
												"box" : 												{
													"maxclass" : "message",
													"text" : ";\rmax pupdate $1 $2",
													"linecount" : 2,
													"numinlets" : 2,
													"fontname" : "Arial",
													"numoutlets" : 1,
													"outlettype" : [ "" ],
													"fontsize" : 10.087338,
													"patching_rect" : [ 132.192139, 400.994415, 104.019638, 28.0 ],
													"id" : "obj-21"
												}

											}
, 											{
												"box" : 												{
													"maxclass" : "newobj",
													"text" : "sel 0",
													"numinlets" : 2,
													"fontname" : "Arial",
													"numoutlets" : 2,
													"outlettype" : [ "bang", "" ],
													"fontsize" : 10.613763,
													"patching_rect" : [ 132.192139, 342.055878, 33.197758, 19.0 ],
													"id" : "obj-22"
												}

											}
, 											{
												"box" : 												{
													"maxclass" : "newobj",
													"text" : "< 1024",
													"numinlets" : 2,
													"fontname" : "Arial",
													"numoutlets" : 1,
													"outlettype" : [ "int" ],
													"fontsize" : 10.613763,
													"patching_rect" : [ 132.192139, 311.407806, 46.47686, 19.0 ],
													"id" : "obj-23"
												}

											}
, 											{
												"box" : 												{
													"maxclass" : "newobj",
													"text" : "mousestate",
													"numinlets" : 1,
													"fontname" : "Arial",
													"numoutlets" : 5,
													"outlettype" : [ "int", "int", "int", "int", "int" ],
													"fontsize" : 10.613763,
													"patching_rect" : [ 199.694244, 180.56424, 118.405327, 19.0 ],
													"id" : "obj-24"
												}

											}
, 											{
												"box" : 												{
													"maxclass" : "newobj",
													"text" : "t i i",
													"numinlets" : 1,
													"fontname" : "Arial",
													"numoutlets" : 2,
													"outlettype" : [ "int", "int" ],
													"fontsize" : 10.613763,
													"patching_rect" : [ 339.124817, 191.173187, 29.877981, 19.0 ],
													"id" : "obj-25"
												}

											}
, 											{
												"box" : 												{
													"maxclass" : "inlet",
													"numinlets" : 0,
													"numoutlets" : 1,
													"outlettype" : [ "" ],
													"patching_rect" : [ 16.0, 12.0, 16.598879, 16.598879 ],
													"id" : "obj-26",
													"comment" : ""
												}

											}
, 											{
												"box" : 												{
													"maxclass" : "outlet",
													"numinlets" : 1,
													"numoutlets" : 0,
													"patching_rect" : [ 16.0, 395.100555, 16.598879, 16.598879 ],
													"id" : "obj-27",
													"comment" : ""
												}

											}
, 											{
												"box" : 												{
													"maxclass" : "comment",
													"text" : "select x or y coord",
													"numinlets" : 1,
													"fontname" : "Arial",
													"numoutlets" : 0,
													"fontsize" : 10.613763,
													"patching_rect" : [ 89.035065, 79.189941, 110.659187, 19.0 ],
													"id" : "obj-28"
												}

											}
 ],
										"lines" : [ 											{
												"patchline" : 												{
													"source" : [ "obj-16", 1 ],
													"destination" : [ "obj-20", 0 ],
													"hidden" : 0
												}

											}
, 											{
												"patchline" : 												{
													"source" : [ "obj-2", 1 ],
													"destination" : [ "obj-16", 0 ],
													"hidden" : 0,
													"midpoints" : [ 321.419342, 66.223465, 486.948822, 66.223465 ]
												}

											}
, 											{
												"patchline" : 												{
													"source" : [ "obj-25", 1 ],
													"destination" : [ "obj-11", 0 ],
													"hidden" : 0
												}

											}
, 											{
												"patchline" : 												{
													"source" : [ "obj-18", 0 ],
													"destination" : [ "obj-7", 0 ],
													"hidden" : 0
												}

											}
, 											{
												"patchline" : 												{
													"source" : [ "obj-25", 0 ],
													"destination" : [ "obj-18", 0 ],
													"hidden" : 0
												}

											}
, 											{
												"patchline" : 												{
													"source" : [ "obj-12", 1 ],
													"destination" : [ "obj-25", 0 ],
													"hidden" : 0
												}

											}
, 											{
												"patchline" : 												{
													"source" : [ "obj-24", 2 ],
													"destination" : [ "obj-14", 2 ],
													"hidden" : 0
												}

											}
, 											{
												"patchline" : 												{
													"source" : [ "obj-7", 0 ],
													"destination" : [ "obj-8", 1 ],
													"hidden" : 0,
													"color" : [ 1.0, 0.890196, 0.090196, 1.0 ],
													"midpoints" : [ 348.624817, 305.513977, 236.671112, 305.513977 ]
												}

											}
, 											{
												"patchline" : 												{
													"source" : [ "obj-10", 1 ],
													"destination" : [ "obj-12", 0 ],
													"hidden" : 0
												}

											}
, 											{
												"patchline" : 												{
													"source" : [ "obj-24", 1 ],
													"destination" : [ "obj-14", 1 ],
													"hidden" : 0
												}

											}
, 											{
												"patchline" : 												{
													"source" : [ "obj-9", 1 ],
													"destination" : [ "obj-8", 0 ],
													"hidden" : 0
												}

											}
, 											{
												"patchline" : 												{
													"source" : [ "obj-14", 0 ],
													"destination" : [ "obj-9", 1 ],
													"hidden" : 0
												}

											}
, 											{
												"patchline" : 												{
													"source" : [ "obj-12", 0 ],
													"destination" : [ "obj-14", 0 ],
													"hidden" : 0
												}

											}
, 											{
												"patchline" : 												{
													"source" : [ "obj-10", 0 ],
													"destination" : [ "obj-24", 0 ],
													"hidden" : 0
												}

											}
, 											{
												"patchline" : 												{
													"source" : [ "obj-13", 0 ],
													"destination" : [ "obj-10", 0 ],
													"hidden" : 0
												}

											}
, 											{
												"patchline" : 												{
													"source" : [ "obj-2", 0 ],
													"destination" : [ "obj-13", 0 ],
													"hidden" : 0
												}

											}
, 											{
												"patchline" : 												{
													"source" : [ "obj-20", 0 ],
													"destination" : [ "obj-19", 1 ],
													"hidden" : 0,
													"midpoints" : [ 532.319092, 366.810059, 171.382172, 366.810059 ]
												}

											}
, 											{
												"patchline" : 												{
													"source" : [ "obj-7", 0 ],
													"destination" : [ "obj-23", 1 ],
													"hidden" : 0,
													"color" : [ 1.0, 0.890196, 0.090196, 1.0 ],
													"midpoints" : [ 348.624817, 305.513977, 169.169006, 305.513977 ]
												}

											}
, 											{
												"patchline" : 												{
													"source" : [ "obj-19", 0 ],
													"destination" : [ "obj-21", 0 ],
													"hidden" : 0
												}

											}
, 											{
												"patchline" : 												{
													"source" : [ "obj-22", 0 ],
													"destination" : [ "obj-19", 0 ],
													"hidden" : 0
												}

											}
, 											{
												"patchline" : 												{
													"source" : [ "obj-8", 0 ],
													"destination" : [ "obj-22", 0 ],
													"hidden" : 0,
													"midpoints" : [ 209.194244, 336.162018, 141.692139, 336.162018 ]
												}

											}
, 											{
												"patchline" : 												{
													"source" : [ "obj-23", 0 ],
													"destination" : [ "obj-22", 0 ],
													"hidden" : 0
												}

											}
, 											{
												"patchline" : 												{
													"source" : [ "obj-9", 0 ],
													"destination" : [ "obj-23", 0 ],
													"hidden" : 0
												}

											}
, 											{
												"patchline" : 												{
													"source" : [ "obj-11", 0 ],
													"destination" : [ "obj-9", 0 ],
													"hidden" : 0
												}

											}
, 											{
												"patchline" : 												{
													"source" : [ "obj-3", 0 ],
													"destination" : [ "obj-27", 0 ],
													"hidden" : 0
												}

											}
, 											{
												"patchline" : 												{
													"source" : [ "obj-5", 0 ],
													"destination" : [ "obj-3", 0 ],
													"hidden" : 0
												}

											}
, 											{
												"patchline" : 												{
													"source" : [ "obj-4", 0 ],
													"destination" : [ "obj-5", 0 ],
													"hidden" : 0
												}

											}
, 											{
												"patchline" : 												{
													"source" : [ "obj-2", 0 ],
													"destination" : [ "obj-4", 0 ],
													"hidden" : 0
												}

											}
, 											{
												"patchline" : 												{
													"source" : [ "obj-26", 0 ],
													"destination" : [ "obj-2", 0 ],
													"hidden" : 0
												}

											}
 ]
									}
,
									"saved_object_attributes" : 									{
										"default_fontname" : "Arial",
										"globalpatchername" : "",
										"default_fontsize" : 12.0,
										"fontname" : "Arial",
										"fontface" : 0,
										"fontsize" : 12.0,
										"default_fontface" : 0
									}

								}

							}
, 							{
								"box" : 								{
									"maxclass" : "newobj",
									"text" : "p positionsExamples",
									"numinlets" : 0,
									"fontname" : "Arial",
									"numoutlets" : 1,
									"outlettype" : [ "" ],
									"fontsize" : 12.973226,
									"patching_rect" : [ 87.949524, 321.75235, 127.0, 21.0 ],
									"id" : "obj-15",
									"patcher" : 									{
										"fileversion" : 1,
										"rect" : [ 341.0, 316.0, 437.0, 359.0 ],
										"bglocked" : 0,
										"defrect" : [ 341.0, 316.0, 437.0, 359.0 ],
										"openrect" : [ 0.0, 0.0, 0.0, 0.0 ],
										"openinpresentation" : 0,
										"default_fontsize" : 12.0,
										"default_fontface" : 0,
										"default_fontname" : "Arial",
										"gridonopen" : 0,
										"gridsize" : [ 15.0, 15.0 ],
										"gridsnaponopen" : 0,
										"toolbarvisible" : 1,
										"boxanimatetime" : 200,
										"imprint" : 0,
										"metadata" : [  ],
										"boxes" : [ 											{
												"box" : 												{
													"maxclass" : "message",
													"text" : "0 0 0 1280 854",
													"numinlets" : 2,
													"fontname" : "Arial",
													"numoutlets" : 1,
													"outlettype" : [ "" ],
													"fontsize" : 10.393256,
													"patching_rect" : [ 15.0, 167.676468, 90.902855, 16.0 ],
													"id" : "obj-1"
												}

											}
, 											{
												"box" : 												{
													"maxclass" : "newobj",
													"text" : "prepend 1",
													"numinlets" : 1,
													"fontname" : "Arial",
													"numoutlets" : 1,
													"outlettype" : [ "" ],
													"fontsize" : 10.621904,
													"patching_rect" : [ 217.868561, 284.147064, 59.862858, 19.0 ],
													"id" : "obj-2"
												}

											}
, 											{
												"box" : 												{
													"maxclass" : "message",
													"text" : "0 854 1024 1622",
													"numinlets" : 2,
													"fontname" : "Arial",
													"numoutlets" : 1,
													"outlettype" : [ "" ],
													"fontsize" : 10.393256,
													"patching_rect" : [ 232.279999, 185.470581, 100.879997, 16.0 ],
													"id" : "obj-3"
												}

											}
, 											{
												"box" : 												{
													"maxclass" : "message",
													"text" : "-1024 0 0 768",
													"numinlets" : 2,
													"fontname" : "Arial",
													"numoutlets" : 1,
													"outlettype" : [ "" ],
													"fontsize" : 10.393256,
													"patching_rect" : [ 135.83429, 94.882355, 86.468575, 16.0 ],
													"id" : "obj-4"
												}

											}
, 											{
												"box" : 												{
													"maxclass" : "message",
													"text" : "0 -768 1024 0",
													"numinlets" : 2,
													"fontname" : "Arial",
													"numoutlets" : 1,
													"outlettype" : [ "" ],
													"fontsize" : 10.393256,
													"patching_rect" : [ 236.714294, 14.0, 86.468575, 16.0 ],
													"id" : "obj-5"
												}

											}
, 											{
												"box" : 												{
													"maxclass" : "message",
													"text" : "1280 0 2304 768",
													"numinlets" : 2,
													"fontname" : "Arial",
													"numoutlets" : 1,
													"outlettype" : [ "" ],
													"fontsize" : 10.393256,
													"patching_rect" : [ 302.119995, 90.029411, 100.879997, 16.0 ],
													"id" : "obj-6"
												}

											}
, 											{
												"box" : 												{
													"maxclass" : "outlet",
													"numinlets" : 1,
													"numoutlets" : 0,
													"patching_rect" : [ 217.868561, 319.735291, 16.628571, 16.628571 ],
													"id" : "obj-7",
													"comment" : ""
												}

											}
 ],
										"lines" : [ 											{
												"patchline" : 												{
													"source" : [ "obj-2", 0 ],
													"destination" : [ "obj-7", 0 ],
													"hidden" : 0
												}

											}
, 											{
												"patchline" : 												{
													"source" : [ "obj-1", 0 ],
													"destination" : [ "obj-7", 0 ],
													"hidden" : 0
												}

											}
, 											{
												"patchline" : 												{
													"source" : [ "obj-4", 0 ],
													"destination" : [ "obj-2", 0 ],
													"hidden" : 0
												}

											}
, 											{
												"patchline" : 												{
													"source" : [ "obj-5", 0 ],
													"destination" : [ "obj-2", 0 ],
													"hidden" : 0
												}

											}
, 											{
												"patchline" : 												{
													"source" : [ "obj-6", 0 ],
													"destination" : [ "obj-2", 0 ],
													"hidden" : 0
												}

											}
, 											{
												"patchline" : 												{
													"source" : [ "obj-3", 0 ],
													"destination" : [ "obj-2", 0 ],
													"hidden" : 0
												}

											}
 ]
									}
,
									"saved_object_attributes" : 									{
										"default_fontname" : "Arial",
										"globalpatchername" : "",
										"default_fontsize" : 12.0,
										"fontname" : "Arial",
										"fontface" : 0,
										"fontsize" : 12.0,
										"default_fontface" : 0
									}

								}

							}
, 							{
								"box" : 								{
									"maxclass" : "comment",
									"text" : "il peut y avoir 2 écrans en mode mirroir ayant des résolutions identiques....",
									"linecount" : 5,
									"numinlets" : 1,
									"fontname" : "Arial",
									"numoutlets" : 0,
									"fontsize" : 11.610978,
									"patching_rect" : [ 226.362778, 142.034485, 116.0, 73.0 ],
									"id" : "obj-16"
								}

							}
 ],
						"lines" : [ 							{
								"patchline" : 								{
									"source" : [ "obj-7", 1 ],
									"destination" : [ "obj-8", 0 ],
									"hidden" : 0
								}

							}
, 							{
								"patchline" : 								{
									"source" : [ "obj-7", 0 ],
									"destination" : [ "obj-12", 0 ],
									"hidden" : 0
								}

							}
, 							{
								"patchline" : 								{
									"source" : [ "obj-9", 1 ],
									"destination" : [ "obj-7", 0 ],
									"hidden" : 0
								}

							}
, 							{
								"patchline" : 								{
									"source" : [ "obj-1", 1 ],
									"destination" : [ "obj-7", 0 ],
									"hidden" : 0
								}

							}
, 							{
								"patchline" : 								{
									"source" : [ "obj-4", 1 ],
									"destination" : [ "obj-3", 1 ],
									"hidden" : 0
								}

							}
, 							{
								"patchline" : 								{
									"source" : [ "obj-1", 0 ],
									"destination" : [ "obj-5", 0 ],
									"hidden" : 0
								}

							}
, 							{
								"patchline" : 								{
									"source" : [ "obj-2", 0 ],
									"destination" : [ "obj-1", 0 ],
									"hidden" : 0
								}

							}
, 							{
								"patchline" : 								{
									"source" : [ "obj-3", 0 ],
									"destination" : [ "obj-2", 0 ],
									"hidden" : 0
								}

							}
, 							{
								"patchline" : 								{
									"source" : [ "obj-4", 0 ],
									"destination" : [ "obj-3", 0 ],
									"hidden" : 0
								}

							}
, 							{
								"patchline" : 								{
									"source" : [ "obj-9", 0 ],
									"destination" : [ "obj-4", 0 ],
									"hidden" : 0
								}

							}
, 							{
								"patchline" : 								{
									"source" : [ "obj-10", 1 ],
									"destination" : [ "obj-9", 0 ],
									"hidden" : 0
								}

							}
, 							{
								"patchline" : 								{
									"source" : [ "obj-14", 0 ],
									"destination" : [ "obj-6", 0 ],
									"hidden" : 0
								}

							}
, 							{
								"patchline" : 								{
									"source" : [ "obj-10", 0 ],
									"destination" : [ "obj-14", 0 ],
									"hidden" : 0
								}

							}
, 							{
								"patchline" : 								{
									"source" : [ "obj-15", 0 ],
									"destination" : [ "obj-14", 0 ],
									"hidden" : 0
								}

							}
, 							{
								"patchline" : 								{
									"source" : [ "obj-11", 0 ],
									"destination" : [ "obj-10", 0 ],
									"hidden" : 0
								}

							}
, 							{
								"patchline" : 								{
									"source" : [ "obj-5", 0 ],
									"destination" : [ "obj-11", 0 ],
									"hidden" : 0,
									"color" : [ 0.156863, 0.8, 0.54902, 1.0 ]
								}

							}
, 							{
								"patchline" : 								{
									"source" : [ "obj-8", 0 ],
									"destination" : [ "obj-11", 0 ],
									"hidden" : 0,
									"midpoints" : [ 364.446381, 315.639496, 440.880127, 315.639496, 440.880127, 46.673981, 59.5, 46.673981 ]
								}

							}
, 							{
								"patchline" : 								{
									"source" : [ "obj-13", 0 ],
									"destination" : [ "obj-11", 0 ],
									"hidden" : 0
								}

							}
 ]
					}
,
					"saved_object_attributes" : 					{
						"default_fontname" : "Arial",
						"globalpatchername" : "",
						"default_fontsize" : 12.0,
						"fontname" : "Arial",
						"fontface" : 0,
						"fontsize" : 12.0,
						"default_fontface" : 0
					}

				}

			}
, 			{
				"box" : 				{
					"maxclass" : "newobj",
					"text" : "p KeyCursor",
					"numinlets" : 1,
					"fontname" : "Arial",
					"numoutlets" : 1,
					"outlettype" : [ "" ],
					"fontsize" : 11.625051,
					"patching_rect" : [ 23.0, 93.337837, 75.0, 20.0 ],
					"id" : "obj-13",
					"color" : [ 1.0, 0.890196, 0.090196, 1.0 ],
					"patcher" : 					{
						"fileversion" : 1,
						"rect" : [ 65.0, 346.0, 430.0, 403.0 ],
						"bglocked" : 0,
						"defrect" : [ 65.0, 346.0, 430.0, 403.0 ],
						"openrect" : [ 0.0, 0.0, 0.0, 0.0 ],
						"openinpresentation" : 0,
						"default_fontsize" : 12.0,
						"default_fontface" : 0,
						"default_fontname" : "Arial",
						"gridonopen" : 0,
						"gridsize" : [ 15.0, 15.0 ],
						"gridsnaponopen" : 0,
						"toolbarvisible" : 1,
						"boxanimatetime" : 200,
						"imprint" : 0,
						"metadata" : [  ],
						"boxes" : [ 							{
								"box" : 								{
									"maxclass" : "inlet",
									"numinlets" : 0,
									"numoutlets" : 1,
									"outlettype" : [ "" ],
									"patching_rect" : [ 174.791046, 26.0, 17.910448, 17.910448 ],
									"id" : "obj-1",
									"comment" : ""
								}

							}
, 							{
								"box" : 								{
									"maxclass" : "message",
									"text" : "fullscreen $1",
									"numinlets" : 2,
									"fontname" : "Arial",
									"numoutlets" : 1,
									"outlettype" : [ "" ],
									"fontsize" : 11.393787,
									"patching_rect" : [ 217.611938, 196.985367, 82.388062, 18.0 ],
									"id" : "obj-2"
								}

							}
, 							{
								"box" : 								{
									"maxclass" : "toggle",
									"numinlets" : 1,
									"numoutlets" : 1,
									"outlettype" : [ "int" ],
									"patching_rect" : [ 174.791046, 100.048782, 17.910448, 17.910448 ],
									"id" : "obj-3"
								}

							}
, 							{
								"box" : 								{
									"maxclass" : "newobj",
									"text" : "sel 27",
									"numinlets" : 2,
									"fontname" : "Arial",
									"numoutlets" : 2,
									"outlettype" : [ "bang", "" ],
									"fontsize" : 12.288491,
									"patching_rect" : [ 208.223877, 55.619511, 41.791046, 21.0 ],
									"id" : "obj-4"
								}

							}
, 							{
								"box" : 								{
									"maxclass" : "newobj",
									"text" : "key",
									"numinlets" : 0,
									"fontname" : "Arial",
									"numoutlets" : 3,
									"outlettype" : [ "int", "int", "int" ],
									"fontsize" : 12.288491,
									"patching_rect" : [ 208.223877, 26.0, 47.761192, 21.0 ],
									"id" : "obj-5"
								}

							}
, 							{
								"box" : 								{
									"maxclass" : "outlet",
									"numinlets" : 1,
									"numoutlets" : 0,
									"patching_rect" : [ 217.611938, 281.804871, 17.910448, 17.910448 ],
									"id" : "obj-6",
									"comment" : ""
								}

							}
, 							{
								"box" : 								{
									"maxclass" : "newobj",
									"text" : "1",
									"numinlets" : 2,
									"fontname" : "Arial",
									"numoutlets" : 1,
									"outlettype" : [ "int" ],
									"fontsize" : 12.288491,
									"patching_rect" : [ 60.0, 164.673172, 32.238808, 21.0 ],
									"id" : "obj-7"
								}

							}
, 							{
								"box" : 								{
									"maxclass" : "newobj",
									"text" : "r #0-OneScreen",
									"numinlets" : 0,
									"fontname" : "Arial",
									"numoutlets" : 1,
									"outlettype" : [ "" ],
									"fontsize" : 12.288491,
									"patching_rect" : [ 60.0, 137.746338, 99.104477, 21.0 ],
									"id" : "obj-8",
									"color" : [ 0.156863, 0.8, 0.54902, 1.0 ]
								}

							}
, 							{
								"box" : 								{
									"maxclass" : "newobj",
									"text" : "!- 1",
									"numinlets" : 2,
									"fontname" : "Arial",
									"numoutlets" : 1,
									"outlettype" : [ "int" ],
									"fontsize" : 12.288491,
									"patching_rect" : [ 60.0, 226.604874, 32.238808, 21.0 ],
									"id" : "obj-9"
								}

							}
, 							{
								"box" : 								{
									"maxclass" : "message",
									"text" : ";\rjitter cursor $1",
									"linecount" : 2,
									"numinlets" : 2,
									"fontname" : "Arial",
									"numoutlets" : 1,
									"outlettype" : [ "" ],
									"fontsize" : 10.875957,
									"patching_rect" : [ 60.0, 256.224396, 97.910446, 30.0 ],
									"id" : "obj-10"
								}

							}
, 							{
								"box" : 								{
									"maxclass" : "newobj",
									"text" : "gate 1 0",
									"numinlets" : 2,
									"fontname" : "Arial",
									"numoutlets" : 1,
									"outlettype" : [ "" ],
									"fontsize" : 12.288491,
									"patching_rect" : [ 60.0, 196.985367, 133.731339, 21.0 ],
									"id" : "obj-11"
								}

							}
 ],
						"lines" : [ 							{
								"patchline" : 								{
									"source" : [ "obj-2", 0 ],
									"destination" : [ "obj-6", 0 ],
									"hidden" : 0
								}

							}
, 							{
								"patchline" : 								{
									"source" : [ "obj-3", 0 ],
									"destination" : [ "obj-2", 0 ],
									"hidden" : 0
								}

							}
, 							{
								"patchline" : 								{
									"source" : [ "obj-5", 0 ],
									"destination" : [ "obj-4", 0 ],
									"hidden" : 0
								}

							}
, 							{
								"patchline" : 								{
									"source" : [ "obj-3", 0 ],
									"destination" : [ "obj-11", 1 ],
									"hidden" : 0
								}

							}
, 							{
								"patchline" : 								{
									"source" : [ "obj-4", 0 ],
									"destination" : [ "obj-3", 0 ],
									"hidden" : 0
								}

							}
, 							{
								"patchline" : 								{
									"source" : [ "obj-1", 0 ],
									"destination" : [ "obj-3", 0 ],
									"hidden" : 0
								}

							}
, 							{
								"patchline" : 								{
									"source" : [ "obj-9", 0 ],
									"destination" : [ "obj-10", 0 ],
									"hidden" : 0
								}

							}
, 							{
								"patchline" : 								{
									"source" : [ "obj-11", 0 ],
									"destination" : [ "obj-9", 0 ],
									"hidden" : 0
								}

							}
, 							{
								"patchline" : 								{
									"source" : [ "obj-7", 0 ],
									"destination" : [ "obj-11", 0 ],
									"hidden" : 0
								}

							}
, 							{
								"patchline" : 								{
									"source" : [ "obj-8", 0 ],
									"destination" : [ "obj-7", 0 ],
									"hidden" : 0
								}

							}
 ]
					}
,
					"saved_object_attributes" : 					{
						"default_fontname" : "Arial",
						"globalpatchername" : "",
						"default_fontsize" : 12.0,
						"fontname" : "Arial",
						"fontface" : 0,
						"fontsize" : 12.0,
						"default_fontface" : 0
					}

				}

			}
 ],
		"lines" : [ 			{
				"patchline" : 				{
					"source" : [ "obj-9", 1 ],
					"destination" : [ "obj-1", 0 ],
					"hidden" : 0
				}

			}
, 			{
				"patchline" : 				{
					"source" : [ "obj-4", 0 ],
					"destination" : [ "obj-5", 0 ],
					"hidden" : 0
				}

			}
, 			{
				"patchline" : 				{
					"source" : [ "obj-3", 0 ],
					"destination" : [ "obj-12", 0 ],
					"hidden" : 0
				}

			}
, 			{
				"patchline" : 				{
					"source" : [ "obj-6", 1 ],
					"destination" : [ "obj-11", 1 ],
					"hidden" : 0
				}

			}
, 			{
				"patchline" : 				{
					"source" : [ "obj-6", 0 ],
					"destination" : [ "obj-11", 0 ],
					"hidden" : 0
				}

			}
, 			{
				"patchline" : 				{
					"source" : [ "obj-9", 0 ],
					"destination" : [ "obj-7", 0 ],
					"hidden" : 0
				}

			}
, 			{
				"patchline" : 				{
					"source" : [ "obj-13", 0 ],
					"destination" : [ "obj-9", 0 ],
					"hidden" : 0
				}

			}
, 			{
				"patchline" : 				{
					"source" : [ "obj-12", 0 ],
					"destination" : [ "obj-9", 0 ],
					"hidden" : 0
				}

			}
, 			{
				"patchline" : 				{
					"source" : [ "obj-11", 0 ],
					"destination" : [ "obj-9", 0 ],
					"hidden" : 0
				}

			}
, 			{
				"patchline" : 				{
					"source" : [ "obj-5", 0 ],
					"destination" : [ "obj-9", 0 ],
					"hidden" : 0
				}

			}
, 			{
				"patchline" : 				{
					"source" : [ "obj-2", 1 ],
					"destination" : [ "obj-9", 0 ],
					"hidden" : 0
				}

			}
, 			{
				"patchline" : 				{
					"source" : [ "obj-2", 0 ],
					"destination" : [ "obj-13", 0 ],
					"hidden" : 0
				}

			}
, 			{
				"patchline" : 				{
					"source" : [ "obj-8", 0 ],
					"destination" : [ "obj-2", 0 ],
					"hidden" : 0
				}

			}
 ]
	}

}
