{
	"patcher" : 	{
		"rect" : [ 27.0, 71.0, 688.0, 340.0 ],
		"bgcolor" : [ 0.937255, 0.92549, 0.792157, 1.0 ],
		"bglocked" : 0,
		"defrect" : [ 27.0, 71.0, 688.0, 340.0 ],
		"openrect" : [ 0.0, 0.0, 0.0, 0.0 ],
		"openinpresentation" : 0,
		"default_fontsize" : 10.0,
		"default_fontface" : 0,
		"default_fontname" : "Arial",
		"gridonopen" : 0,
		"gridsize" : [ 15.0, 15.0 ],
		"gridsnaponopen" : 0,
		"toolbarvisible" : 1,
		"boxanimatetime" : 200,
		"imprint" : 0,
		"metadata" : [  ],
		"boxes" : [ 			{
				"box" : 				{
					"maxclass" : "comment",
					"text" : "ej.dx2x",
					"textcolor" : [ 0.937255, 0.92549, 0.792157, 1.0 ],
					"presentation_rect" : [ 121.0, 122.0, 166.0, 30.0 ],
					"frgb" : [ 0.937255, 0.92549, 0.792157, 1.0 ],
					"numinlets" : 1,
					"patching_rect" : [ 15.719757, 12.719761, 166.0, 30.0 ],
					"fontsize" : 18.0,
					"numoutlets" : 0,
					"fontname" : "Arial",
					"presentation" : 1,
					"fontface" : 3,
					"id" : "obj-49"
				}

			}
, 			{
				"box" : 				{
					"maxclass" : "comment",
					"text" : "Convert frequency to a MIDI note number",
					"textcolor" : [ 1.0, 1.0, 1.0, 1.0 ],
					"frgb" : [ 1.0, 1.0, 1.0, 1.0 ],
					"numinlets" : 1,
					"patching_rect" : [ 15.719757, 44.0, 365.0, 20.0 ],
					"fontsize" : 10.0,
					"numoutlets" : 0,
					"fontname" : "Arial",
					"id" : "obj-24"
				}

			}
, 			{
				"box" : 				{
					"maxclass" : "panel",
					"bgcolor" : [ 0.015686, 0.388235, 0.501961, 1.0 ],
					"presentation_rect" : [ 116.0, 118.0, 632.0, 58.0 ],
					"numinlets" : 1,
					"patching_rect" : [ 9.719757, 8.719761, 382.01355, 57.248684 ],
					"numoutlets" : 0,
					"shadow" : -1,
					"presentation" : 1,
					"id" : "obj-83"
				}

			}
, 			{
				"box" : 				{
					"maxclass" : "textbutton",
					"textcolor" : [ 0.015686, 0.388235, 0.501961, 1.0 ],
					"bgcolor" : [ 0.937255, 0.92549, 0.792157, 1.0 ],
					"textovercolor" : [ 0.054902, 0.47451, 0.6, 1.0 ],
					"fontlink" : 1,
					"presentation_rect" : [ 75.0, 75.0, 147.527267, 23.99996 ],
					"bordercolor" : [ 0.937255, 0.92549, 0.792157, 1.0 ],
					"numinlets" : 1,
					"textoveroncolor" : [ 0.015686, 0.388235, 0.501961, 1.0 ],
					"bgovercolor" : [ 0.937255, 0.92549, 0.792157, 1.0 ],
					"patching_rect" : [ 395.0, 23.0, 147.527267, 23.99996 ],
					"fontsize" : 12.0,
					"numoutlets" : 3,
					"bgoveroncolor" : [ 0.937255, 0.92549, 0.792157, 1.0 ],
					"text" : "open ejies overview",
					"fontname" : "Arial",
					"outlettype" : [ "int", "", "int" ],
					"bgoncolor" : [ 0.937255, 0.92549, 0.792157, 1.0 ],
					"fontface" : 3,
					"id" : "obj-55",
					"textoncolor" : [ 0.184314, 0.65098, 0.792157, 1.0 ],
					"borderoncolor" : [ 0.937255, 0.92549, 0.792157, 1.0 ]
				}

			}
, 			{
				"box" : 				{
					"maxclass" : "ubutton",
					"presentation_rect" : [ 596.455444, 423.968689, 155.0, 18.0 ],
					"numinlets" : 1,
					"patching_rect" : [ 505.0, 305.0, 159.0, 21.0 ],
					"numoutlets" : 4,
					"handoff" : "",
					"presentation" : 1,
					"outlettype" : [ "bang", "bang", "", "int" ],
					"hilite" : 0,
					"id" : "obj-48"
				}

			}
, 			{
				"box" : 				{
					"maxclass" : "message",
					"text" : ";\rmax launchbrowser mailto:emmanuel.jourdan@ircam.fr?subject=ejies&body=Hi",
					"linecount" : 2,
					"bgcolor" : [ 1.0, 1.0, 1.0, 1.0 ],
					"hidden" : 1,
					"numinlets" : 2,
					"patching_rect" : [ 531.0, 371.0, 370.0, 26.0 ],
					"fontsize" : 7.9,
					"numoutlets" : 1,
					"fontname" : "Arial",
					"outlettype" : [ "" ],
					"id" : "obj-50"
				}

			}
, 			{
				"box" : 				{
					"maxclass" : "comment",
					"text" : "© Emmanuel Jourdan, Ircam",
					"textcolor" : [ 0.356863, 0.356863, 0.356863, 1.0 ],
					"presentation_rect" : [ 596.0, 423.0, 158.0, 20.0 ],
					"frgb" : [ 0.356863, 0.356863, 0.356863, 1.0 ],
					"numinlets" : 1,
					"patching_rect" : [ 506.0, 306.0, 158.0, 20.0 ],
					"fontsize" : 10.0,
					"numoutlets" : 0,
					"fontname" : "Arial",
					"presentation" : 1,
					"id" : "obj-51"
				}

			}
, 			{
				"box" : 				{
					"maxclass" : "newobj",
					"text" : "bgcolor 0.937255 0.92549 0.792157 1.",
					"hidden" : 1,
					"numinlets" : 4,
					"patching_rect" : [ 328.677704, 306.935394, 210.0, 20.0 ],
					"fontsize" : 10.0,
					"numoutlets" : 0,
					"fontname" : "Arial",
					"id" : "obj-47"
				}

			}
, 			{
				"box" : 				{
					"maxclass" : "message",
					"text" : "load ejies-overview.pat",
					"bgcolor" : [ 1.0, 1.0, 1.0, 1.0 ],
					"hidden" : 1,
					"numinlets" : 2,
					"patching_rect" : [ 528.0, 22.0, 143.0, 18.0 ],
					"fontsize" : 10.0,
					"numoutlets" : 1,
					"fontname" : "Arial",
					"outlettype" : [ "" ],
					"id" : "obj-17"
				}

			}
, 			{
				"box" : 				{
					"maxclass" : "newobj",
					"text" : "pcontrol",
					"hidden" : 1,
					"numinlets" : 1,
					"patching_rect" : [ 528.0, 41.0, 57.0, 20.0 ],
					"fontsize" : 10.0,
					"numoutlets" : 1,
					"fontname" : "Arial",
					"outlettype" : [ "" ],
					"color" : [ 1.0, 1.0, 1.0, 1.0 ],
					"id" : "obj-32"
				}

			}
, 			{
				"box" : 				{
					"maxclass" : "comment",
					"text" : "args:\r- float tuning (default: 440 Hz)\r- int MIDI pitch reference (default: 69)",
					"linecount" : 3,
					"frgb" : [ 0.0, 0.0, 0.0, 1.0 ],
					"numinlets" : 1,
					"patching_rect" : [ 263.0, 76.0, 201.0, 46.0 ],
					"fontsize" : 10.0,
					"numoutlets" : 0,
					"fontname" : "Arial",
					"id" : "obj-1"
				}

			}
, 			{
				"box" : 				{
					"maxclass" : "newobj",
					"text" : "loadmess set",
					"hidden" : 1,
					"numinlets" : 1,
					"patching_rect" : [ 184.0, 244.0, 77.0, 20.0 ],
					"fontsize" : 10.0,
					"numoutlets" : 1,
					"fontname" : "Arial",
					"outlettype" : [ "" ],
					"color" : [ 1.0, 0.611765, 0.611765, 1.0 ],
					"id" : "obj-2"
				}

			}
, 			{
				"box" : 				{
					"maxclass" : "message",
					"numinlets" : 2,
					"patching_rect" : [ 33.0, 297.0, 137.0, 18.0 ],
					"fontsize" : 10.0,
					"numoutlets" : 1,
					"fontname" : "Arial",
					"outlettype" : [ "" ],
					"id" : "obj-3"
				}

			}
, 			{
				"box" : 				{
					"maxclass" : "message",
					"text" : "261.62558 329.627563 391.995422 440.",
					"numinlets" : 2,
					"patching_rect" : [ 33.0, 231.0, 218.0, 18.0 ],
					"fontsize" : 10.0,
					"numoutlets" : 1,
					"fontname" : "Arial",
					"outlettype" : [ "" ],
					"id" : "obj-5"
				}

			}
, 			{
				"box" : 				{
					"maxclass" : "message",
					"text" : "getmode",
					"numinlets" : 2,
					"patching_rect" : [ 482.0, 215.0, 54.0, 18.0 ],
					"fontsize" : 10.0,
					"numoutlets" : 1,
					"fontname" : "Arial",
					"outlettype" : [ "" ],
					"id" : "obj-6"
				}

			}
, 			{
				"box" : 				{
					"maxclass" : "newobj",
					"text" : "loadmess 442",
					"hidden" : 1,
					"numinlets" : 1,
					"patching_rect" : [ 23.0, 75.0, 81.0, 20.0 ],
					"fontsize" : 10.0,
					"numoutlets" : 1,
					"fontname" : "Arial",
					"outlettype" : [ "" ],
					"color" : [ 1.0, 0.611765, 0.611765, 1.0 ],
					"id" : "obj-7"
				}

			}
, 			{
				"box" : 				{
					"maxclass" : "newobj",
					"text" : "loadmess set",
					"hidden" : 1,
					"numinlets" : 1,
					"patching_rect" : [ 384.0, 273.0, 77.0, 20.0 ],
					"fontsize" : 10.0,
					"numoutlets" : 1,
					"fontname" : "Arial",
					"outlettype" : [ "" ],
					"color" : [ 1.0, 0.611765, 0.611765, 1.0 ],
					"id" : "obj-8"
				}

			}
, 			{
				"box" : 				{
					"maxclass" : "message",
					"numinlets" : 2,
					"patching_rect" : [ 315.0, 273.0, 151.0, 18.0 ],
					"fontsize" : 10.0,
					"numoutlets" : 1,
					"fontname" : "Arial",
					"outlettype" : [ "" ],
					"id" : "obj-9"
				}

			}
, 			{
				"box" : 				{
					"maxclass" : "message",
					"text" : "getpitch_reference",
					"numinlets" : 2,
					"patching_rect" : [ 374.0, 215.0, 105.0, 18.0 ],
					"fontsize" : 10.0,
					"numoutlets" : 1,
					"fontname" : "Arial",
					"outlettype" : [ "" ],
					"id" : "obj-11"
				}

			}
, 			{
				"box" : 				{
					"maxclass" : "message",
					"text" : "gettuning",
					"numinlets" : 2,
					"patching_rect" : [ 315.0, 215.0, 56.0, 18.0 ],
					"fontsize" : 10.0,
					"numoutlets" : 1,
					"fontname" : "Arial",
					"outlettype" : [ "" ],
					"id" : "obj-12"
				}

			}
, 			{
				"box" : 				{
					"maxclass" : "comment",
					"text" : "works also for lists...",
					"frgb" : [ 0.0, 0.0, 0.0, 1.0 ],
					"numinlets" : 1,
					"patching_rect" : [ 33.0, 211.0, 129.0, 20.0 ],
					"fontsize" : 10.0,
					"numoutlets" : 0,
					"fontname" : "Arial",
					"id" : "obj-13"
				}

			}
, 			{
				"box" : 				{
					"maxclass" : "kslider",
					"presentation_rect" : [ 0.0, 0.0, 196.0, 35.0 ],
					"numinlets" : 2,
					"patching_rect" : [ 23.0, 149.0, 196.0, 34.0 ],
					"numoutlets" : 2,
					"hkeycolor" : [ 0.682353, 0.72549, 0.752941, 1.0 ],
					"outlettype" : [ "int", "int" ],
					"id" : "obj-14"
				}

			}
, 			{
				"box" : 				{
					"maxclass" : "newobj",
					"text" : "mxj ej.ftom @tuning 442 @mode round",
					"numinlets" : 1,
					"patching_rect" : [ 23.0, 122.0, 213.0, 20.0 ],
					"fontsize" : 10.0,
					"numoutlets" : 2,
					"fontname" : "Arial",
					"outlettype" : [ "list", "" ],
					"id" : "obj-15"
				}

			}
, 			{
				"box" : 				{
					"maxclass" : "newobj",
					"text" : "mxj ej.ftom @mode round",
					"numinlets" : 1,
					"patching_rect" : [ 33.0, 256.0, 143.0, 20.0 ],
					"fontsize" : 10.0,
					"numoutlets" : 2,
					"fontname" : "Arial",
					"outlettype" : [ "list", "" ],
					"id" : "obj-27"
				}

			}
, 			{
				"box" : 				{
					"maxclass" : "comment",
					"text" : "•",
					"textcolor" : [ 0.458824, 0.54902, 0.576471, 1.0 ],
					"frgb" : [ 0.458824, 0.54902, 0.576471, 1.0 ],
					"numinlets" : 1,
					"patching_rect" : [ 154.0, 176.0, 22.0, 22.0 ],
					"fontsize" : 12.0,
					"numoutlets" : 0,
					"fontname" : "Arial",
					"id" : "obj-28"
				}

			}
, 			{
				"box" : 				{
					"maxclass" : "number",
					"numinlets" : 1,
					"patching_rect" : [ 23.0, 97.0, 50.0, 20.0 ],
					"fontsize" : 10.0,
					"numoutlets" : 2,
					"fontname" : "Arial",
					"outlettype" : [ "int", "bang" ],
					"id" : "obj-29"
				}

			}
, 			{
				"box" : 				{
					"maxclass" : "comment",
					"text" : "@mode float (default): floating pitch\r@mode int: truncate to int\r@mode round: rounding to the nearest semitone\r@mode quarter: rounding to the nearest quarter tone\r@mode n: nearest 1\/nth of tone (so @mode quarter is equivalent to @mode 4)",
					"linecount" : 5,
					"frgb" : [ 0.0, 0.0, 0.0, 1.0 ],
					"numinlets" : 1,
					"patching_rect" : [ 263.0, 123.0, 413.0, 73.0 ],
					"fontsize" : 10.0,
					"numoutlets" : 0,
					"fontname" : "Arial",
					"id" : "obj-30"
				}

			}
, 			{
				"box" : 				{
					"maxclass" : "newobj",
					"text" : "mxj ej.ftom @mode quarter",
					"numinlets" : 1,
					"patching_rect" : [ 315.0, 246.0, 151.0, 20.0 ],
					"fontsize" : 10.0,
					"numoutlets" : 2,
					"fontname" : "Arial",
					"outlettype" : [ "list", "" ],
					"id" : "obj-31"
				}

			}
 ],
		"lines" : [ 			{
				"patchline" : 				{
					"source" : [ "obj-8", 0 ],
					"destination" : [ "obj-9", 0 ],
					"hidden" : 1
				}

			}
, 			{
				"patchline" : 				{
					"source" : [ "obj-6", 0 ],
					"destination" : [ "obj-31", 0 ],
					"hidden" : 0,
					"midpoints" : [ 491.5, 240.0, 324.5, 240.0 ]
				}

			}
, 			{
				"patchline" : 				{
					"source" : [ "obj-12", 0 ],
					"destination" : [ "obj-31", 0 ],
					"hidden" : 0
				}

			}
, 			{
				"patchline" : 				{
					"source" : [ "obj-11", 0 ],
					"destination" : [ "obj-31", 0 ],
					"hidden" : 0,
					"midpoints" : [ 383.5, 240.0, 324.5, 240.0 ]
				}

			}
, 			{
				"patchline" : 				{
					"source" : [ "obj-2", 0 ],
					"destination" : [ "obj-3", 0 ],
					"hidden" : 1
				}

			}
, 			{
				"patchline" : 				{
					"source" : [ "obj-5", 0 ],
					"destination" : [ "obj-27", 0 ],
					"hidden" : 0
				}

			}
, 			{
				"patchline" : 				{
					"source" : [ "obj-15", 0 ],
					"destination" : [ "obj-14", 0 ],
					"hidden" : 0
				}

			}
, 			{
				"patchline" : 				{
					"source" : [ "obj-7", 0 ],
					"destination" : [ "obj-29", 0 ],
					"hidden" : 1
				}

			}
, 			{
				"patchline" : 				{
					"source" : [ "obj-29", 0 ],
					"destination" : [ "obj-15", 0 ],
					"hidden" : 0
				}

			}
, 			{
				"patchline" : 				{
					"source" : [ "obj-31", 1 ],
					"destination" : [ "obj-9", 1 ],
					"hidden" : 0
				}

			}
, 			{
				"patchline" : 				{
					"source" : [ "obj-55", 0 ],
					"destination" : [ "obj-17", 0 ],
					"hidden" : 1
				}

			}
, 			{
				"patchline" : 				{
					"source" : [ "obj-17", 0 ],
					"destination" : [ "obj-32", 0 ],
					"hidden" : 1
				}

			}
, 			{
				"patchline" : 				{
					"source" : [ "obj-48", 1 ],
					"destination" : [ "obj-50", 0 ],
					"hidden" : 1
				}

			}
, 			{
				"patchline" : 				{
					"source" : [ "obj-27", 0 ],
					"destination" : [ "obj-3", 1 ],
					"hidden" : 0,
					"midpoints" : [ 42.5, 286.0, 160.5, 286.0 ]
				}

			}
 ]
	}

}
