{
	"patcher" : 	{
		"rect" : [ 40.0, 44.0, 544.0, 432.0 ],
		"bgcolor" : [ 0.937255, 0.92549, 0.792157, 1.0 ],
		"bglocked" : 0,
		"defrect" : [ 40.0, 44.0, 544.0, 432.0 ],
		"openrect" : [ 0.0, 0.0, 0.0, 0.0 ],
		"openinpresentation" : 0,
		"default_fontsize" : 10.0,
		"default_fontface" : 0,
		"default_fontname" : "Arial",
		"gridonopen" : 0,
		"gridsize" : [ 15.0, 15.0 ],
		"gridsnaponopen" : 0,
		"toolbarvisible" : 1,
		"boxanimatetime" : 200,
		"imprint" : 0,
		"metadata" : [  ],
		"boxes" : [ 			{
				"box" : 				{
					"maxclass" : "jsui",
					"varname" : "ej.lui-2164429[5]",
					"numinlets" : 1,
					"patching_rect" : [ 223.0, 252.0, 17.0, 17.0 ],
					"id" : "obj-24",
					"numoutlets" : 2,
					"outlettype" : [ "", "" ],
					"border" : 0,
					"jsarguments" : [  ],
					"filename" : "ej.led.js",
					"embedstate" : [ [ "redrawoff" ], [ "mode", 0 ], [ "circlesize", 0.72 ], [ "blinktime", 100 ], [ "brgb", 174, 185, 192 ], [ "brgb2", 174, 185, 192 ], [ "frgb", 111, 158, 167 ], [ "frgb2", 255, 0, 0 ], [ "redrawon" ] ]
				}

			}
, 			{
				"box" : 				{
					"maxclass" : "jsui",
					"varname" : "ej.lui-2164429[4]",
					"numinlets" : 1,
					"patching_rect" : [ 245.0, 252.0, 17.0, 17.0 ],
					"id" : "obj-25",
					"numoutlets" : 2,
					"outlettype" : [ "", "" ],
					"border" : 0,
					"jsarguments" : [  ],
					"filename" : "ej.led.js",
					"embedstate" : [ [ "redrawoff" ], [ "mode", 0 ], [ "circlesize", 0.72 ], [ "blinktime", 200 ], [ "brgb", 174, 185, 192 ], [ "brgb2", 174, 185, 192 ], [ "frgb", 111, 158, 167 ], [ "frgb2", 255, 0, 0 ], [ "redrawon" ] ]
				}

			}
, 			{
				"box" : 				{
					"maxclass" : "jsui",
					"varname" : "ej.lui-2164429[3]",
					"numinlets" : 1,
					"patching_rect" : [ 267.0, 252.0, 17.0, 17.0 ],
					"id" : "obj-26",
					"numoutlets" : 2,
					"outlettype" : [ "", "" ],
					"border" : 0,
					"jsarguments" : [  ],
					"filename" : "ej.led.js",
					"embedstate" : [ [ "redrawoff" ], [ "mode", 0 ], [ "circlesize", 0.72 ], [ "blinktime", 300 ], [ "brgb", 174, 185, 192 ], [ "brgb2", 174, 185, 192 ], [ "frgb", 111, 158, 167 ], [ "frgb2", 255, 0, 0 ], [ "redrawon" ] ]
				}

			}
, 			{
				"box" : 				{
					"maxclass" : "jsui",
					"varname" : "ej.lui-2164429[2]",
					"numinlets" : 1,
					"patching_rect" : [ 311.0, 252.0, 17.0, 17.0 ],
					"id" : "obj-27",
					"numoutlets" : 2,
					"outlettype" : [ "", "" ],
					"border" : 0,
					"jsarguments" : [  ],
					"filename" : "ej.led.js",
					"embedstate" : [ [ "redrawoff" ], [ "mode", 0 ], [ "circlesize", 0.72 ], [ "blinktime", 500 ], [ "brgb", 174, 185, 192 ], [ "brgb2", 174, 185, 192 ], [ "frgb", 111, 158, 167 ], [ "frgb2", 255, 0, 0 ], [ "redrawon" ] ]
				}

			}
, 			{
				"box" : 				{
					"maxclass" : "jsui",
					"varname" : "ej.lui-2164429[1]",
					"numinlets" : 1,
					"patching_rect" : [ 289.0, 252.0, 17.0, 17.0 ],
					"id" : "obj-28",
					"numoutlets" : 2,
					"outlettype" : [ "", "" ],
					"border" : 0,
					"jsarguments" : [  ],
					"filename" : "ej.led.js",
					"embedstate" : [ [ "redrawoff" ], [ "mode", 0 ], [ "circlesize", 0.72 ], [ "blinktime", 400 ], [ "brgb", 174, 185, 192 ], [ "brgb2", 174, 185, 192 ], [ "frgb", 111, 158, 167 ], [ "frgb2", 255, 0, 0 ], [ "redrawon" ] ]
				}

			}
, 			{
				"box" : 				{
					"maxclass" : "button",
					"numinlets" : 1,
					"patching_rect" : [ 223.0, 211.0, 23.0, 23.0 ],
					"id" : "obj-29",
					"numoutlets" : 1,
					"outlettype" : [ "bang" ]
				}

			}
, 			{
				"box" : 				{
					"maxclass" : "jsui",
					"varname" : "ej.lui-2164429",
					"numinlets" : 1,
					"patching_rect" : [ 333.0, 252.0, 17.0, 17.0 ],
					"id" : "obj-30",
					"numoutlets" : 2,
					"outlettype" : [ "", "" ],
					"border" : 0,
					"jsarguments" : [  ],
					"filename" : "ej.led.js",
					"embedstate" : [ [ "redrawoff" ], [ "mode", 0 ], [ "circlesize", 0.72 ], [ "blinktime", 600 ], [ "brgb", 174, 185, 192 ], [ "brgb2", 174, 185, 192 ], [ "frgb", 111, 158, 167 ], [ "frgb2", 255, 0, 0 ], [ "redrawon" ] ]
				}

			}
, 			{
				"box" : 				{
					"maxclass" : "comment",
					"text" : "ej.led.js",
					"numinlets" : 1,
					"patching_rect" : [ 13.719757, 13.719761, 166.0, 30.0 ],
					"presentation" : 1,
					"id" : "obj-49",
					"fontname" : "Arial",
					"numoutlets" : 0,
					"textcolor" : [ 0.937255, 0.92549, 0.792157, 1.0 ],
					"frgb" : [ 0.937255, 0.92549, 0.792157, 1.0 ],
					"fontface" : 3,
					"fontsize" : 18.0,
					"presentation_rect" : [ 196.0, 197.0, 166.0, 30.0 ]
				}

			}
, 			{
				"box" : 				{
					"maxclass" : "comment",
					"text" : "an alternative LED",
					"numinlets" : 1,
					"patching_rect" : [ 13.719757, 45.0, 365.0, 20.0 ],
					"id" : "obj-55",
					"fontname" : "Arial",
					"numoutlets" : 0,
					"textcolor" : [ 1.0, 1.0, 1.0, 1.0 ],
					"frgb" : [ 1.0, 1.0, 1.0, 1.0 ],
					"fontsize" : 10.0
				}

			}
, 			{
				"box" : 				{
					"maxclass" : "panel",
					"numinlets" : 1,
					"patching_rect" : [ 7.719757, 9.719761, 382.01355, 57.248684 ],
					"presentation" : 1,
					"id" : "obj-83",
					"numoutlets" : 0,
					"bgcolor" : [ 0.015686, 0.388235, 0.501961, 1.0 ],
					"shadow" : -1,
					"presentation_rect" : [ 191.0, 193.0, 632.0, 58.0 ]
				}

			}
, 			{
				"box" : 				{
					"maxclass" : "textbutton",
					"numinlets" : 1,
					"fontlink" : 1,
					"bgovercolor" : [ 0.937255, 0.92549, 0.792157, 1.0 ],
					"patching_rect" : [ 393.0, 24.0, 147.527267, 23.99996 ],
					"id" : "obj-56",
					"fontname" : "Arial",
					"numoutlets" : 3,
					"borderoncolor" : [ 0.937255, 0.92549, 0.792157, 1.0 ],
					"textoveroncolor" : [ 0.015686, 0.388235, 0.501961, 1.0 ],
					"bordercolor" : [ 0.937255, 0.92549, 0.792157, 1.0 ],
					"bgcolor" : [ 0.937255, 0.92549, 0.792157, 1.0 ],
					"outlettype" : [ "int", "", "int" ],
					"textoncolor" : [ 0.184314, 0.65098, 0.792157, 1.0 ],
					"textcolor" : [ 0.015686, 0.388235, 0.501961, 1.0 ],
					"fontface" : 3,
					"fontsize" : 12.0,
					"bgoncolor" : [ 0.937255, 0.92549, 0.792157, 1.0 ],
					"presentation_rect" : [ 15.0, 15.0, 147.527267, 23.99996 ],
					"text" : "open ejies overview",
					"textovercolor" : [ 0.054902, 0.47451, 0.6, 1.0 ],
					"bgoveroncolor" : [ 0.937255, 0.92549, 0.792157, 1.0 ]
				}

			}
, 			{
				"box" : 				{
					"maxclass" : "ubutton",
					"numinlets" : 1,
					"patching_rect" : [ 356.0, 401.0, 159.0, 21.0 ],
					"presentation" : 1,
					"id" : "obj-48",
					"numoutlets" : 4,
					"outlettype" : [ "bang", "bang", "", "int" ],
					"presentation_rect" : [ 671.455444, 498.968689, 155.0, 18.0 ],
					"handoff" : "",
					"hilite" : 0
				}

			}
, 			{
				"box" : 				{
					"maxclass" : "message",
					"text" : ";\rmax launchbrowser mailto:emmanuel.jourdan@ircam.fr?subject=ejies&body=Hi",
					"linecount" : 2,
					"numinlets" : 2,
					"patching_rect" : [ 279.0, 453.0, 417.0, 31.0 ],
					"id" : "obj-57",
					"fontname" : "Arial",
					"numoutlets" : 1,
					"bgcolor" : [ 1.0, 1.0, 1.0, 1.0 ],
					"hidden" : 1,
					"outlettype" : [ "" ],
					"fontsize" : 10.0
				}

			}
, 			{
				"box" : 				{
					"maxclass" : "comment",
					"text" : "© Emmanuel Jourdan, Ircam",
					"numinlets" : 1,
					"patching_rect" : [ 357.0, 402.0, 158.0, 20.0 ],
					"presentation" : 1,
					"id" : "obj-58",
					"fontname" : "Arial",
					"numoutlets" : 0,
					"textcolor" : [ 0.356863, 0.356863, 0.356863, 1.0 ],
					"frgb" : [ 0.356863, 0.356863, 0.356863, 1.0 ],
					"fontsize" : 10.0,
					"presentation_rect" : [ 671.0, 498.0, 158.0, 20.0 ]
				}

			}
, 			{
				"box" : 				{
					"maxclass" : "newobj",
					"text" : "bgcolor 0.937255 0.92549 0.792157 1.",
					"numinlets" : 4,
					"patching_rect" : [ 421.677704, 178.935394, 210.0, 20.0 ],
					"id" : "obj-47",
					"fontname" : "Arial",
					"numoutlets" : 0,
					"hidden" : 1,
					"fontsize" : 10.0
				}

			}
, 			{
				"box" : 				{
					"maxclass" : "message",
					"text" : "load ejies-overview.pat",
					"numinlets" : 2,
					"patching_rect" : [ 526.0, 23.0, 143.0, 18.0 ],
					"id" : "obj-59",
					"fontname" : "Arial",
					"numoutlets" : 1,
					"bgcolor" : [ 1.0, 1.0, 1.0, 1.0 ],
					"hidden" : 1,
					"outlettype" : [ "" ],
					"fontsize" : 10.0
				}

			}
, 			{
				"box" : 				{
					"maxclass" : "newobj",
					"text" : "pcontrol",
					"color" : [ 1.0, 1.0, 1.0, 1.0 ],
					"numinlets" : 1,
					"patching_rect" : [ 526.0, 42.0, 57.0, 20.0 ],
					"id" : "obj-60",
					"fontname" : "Arial",
					"numoutlets" : 1,
					"hidden" : 1,
					"outlettype" : [ "" ],
					"fontsize" : 10.0
				}

			}
, 			{
				"box" : 				{
					"maxclass" : "toggle",
					"numinlets" : 1,
					"patching_rect" : [ 399.5, 150.0, 20.0, 20.0 ],
					"id" : "obj-1",
					"numoutlets" : 1,
					"outlettype" : [ "int" ]
				}

			}
, 			{
				"box" : 				{
					"maxclass" : "message",
					"text" : "toggle",
					"numinlets" : 2,
					"patching_rect" : [ 401.0, 103.0, 46.0, 18.0 ],
					"id" : "obj-2",
					"fontname" : "Arial",
					"numoutlets" : 1,
					"outlettype" : [ "" ],
					"fontsize" : 10.0
				}

			}
, 			{
				"box" : 				{
					"maxclass" : "jsui",
					"varname" : "ej.lui-2164429[7]",
					"numinlets" : 1,
					"patching_rect" : [ 401.0, 127.0, 20.0, 20.0 ],
					"id" : "obj-3",
					"numoutlets" : 2,
					"outlettype" : [ "", "" ],
					"border" : 0,
					"jsarguments" : [  ],
					"filename" : "ej.led.js",
					"embedstate" : [ [ "redrawoff" ], [ "mode", 0 ], [ "circlesize", 0.75 ], [ "blinktime", 150 ], [ "brgb", 84, 84, 84 ], [ "brgb2", 119, 119, 119 ], [ "frgb", 153, 0, 0 ], [ "frgb2", 255, 0, 0 ], [ "redrawon" ] ]
				}

			}
, 			{
				"box" : 				{
					"maxclass" : "button",
					"numinlets" : 1,
					"patching_rect" : [ 497.0, 279.0, 15.0, 15.0 ],
					"id" : "obj-4",
					"numoutlets" : 1,
					"hidden" : 1,
					"outlettype" : [ "bang" ]
				}

			}
, 			{
				"box" : 				{
					"maxclass" : "button",
					"numinlets" : 1,
					"patching_rect" : [ 24.0, 265.0, 15.0, 15.0 ],
					"id" : "obj-5",
					"numoutlets" : 1,
					"hidden" : 1,
					"outlettype" : [ "bang" ]
				}

			}
, 			{
				"box" : 				{
					"maxclass" : "comment",
					"text" : "button mode",
					"numinlets" : 1,
					"patching_rect" : [ 45.0, 282.0, 124.0, 20.0 ],
					"id" : "obj-6",
					"fontname" : "Arial",
					"numoutlets" : 0,
					"frgb" : [ 0.0, 0.0, 0.0, 1.0 ],
					"fontsize" : 10.0
				}

			}
, 			{
				"box" : 				{
					"maxclass" : "comment",
					"text" : "and watch the Max window",
					"linecount" : 2,
					"numinlets" : 1,
					"patching_rect" : [ 389.0, 358.0, 85.0, 33.0 ],
					"id" : "obj-7",
					"fontname" : "Sans Serif",
					"numoutlets" : 0,
					"frgb" : [ 0.0, 0.0, 0.0, 1.0 ],
					"fontsize" : 10.0
				}

			}
, 			{
				"box" : 				{
					"maxclass" : "message",
					"text" : "bang",
					"numinlets" : 2,
					"patching_rect" : [ 355.0, 300.0, 39.0, 18.0 ],
					"id" : "obj-8",
					"fontname" : "Arial",
					"numoutlets" : 1,
					"outlettype" : [ "" ],
					"fontsize" : 10.0
				}

			}
, 			{
				"box" : 				{
					"maxclass" : "newobj",
					"text" : "print",
					"numinlets" : 1,
					"patching_rect" : [ 355.0, 365.0, 33.0, 20.0 ],
					"id" : "obj-9",
					"fontname" : "Arial",
					"numoutlets" : 0,
					"fontsize" : 10.0
				}

			}
, 			{
				"box" : 				{
					"maxclass" : "jsui",
					"numinlets" : 1,
					"patching_rect" : [ 355.0, 329.0, 27.0, 27.0 ],
					"id" : "obj-10",
					"numoutlets" : 2,
					"outlettype" : [ "", "" ],
					"jsarguments" : [  ],
					"filename" : "ej.led.js",
					"embedstate" : [ [ "redrawoff" ], [ "mode", 1 ], [ "circlesize", 0.75 ], [ "blinktime", 150 ], [ "brgb", 221, 221, 221 ], [ "brgb2", 221, 221, 221 ], [ "frgb", 170, 170, 170 ], [ "frgb2", 255, 243, 59 ], [ "redrawon" ] ]
				}

			}
, 			{
				"box" : 				{
					"maxclass" : "message",
					"text" : "wash the dog",
					"numinlets" : 2,
					"patching_rect" : [ 263.0, 300.0, 80.0, 18.0 ],
					"id" : "obj-11",
					"fontname" : "Arial",
					"numoutlets" : 1,
					"outlettype" : [ "" ],
					"fontsize" : 10.0
				}

			}
, 			{
				"box" : 				{
					"maxclass" : "message",
					"text" : "1",
					"numinlets" : 2,
					"patching_rect" : [ 396.0, 300.0, 22.0, 18.0 ],
					"id" : "obj-12",
					"fontname" : "Arial",
					"numoutlets" : 1,
					"outlettype" : [ "" ],
					"fontsize" : 10.0
				}

			}
, 			{
				"box" : 				{
					"maxclass" : "comment",
					"text" : "or click here",
					"numinlets" : 1,
					"patching_rect" : [ 384.0, 332.0, 85.0, 20.0 ],
					"id" : "obj-13",
					"fontname" : "Arial",
					"numoutlets" : 0,
					"frgb" : [ 0.0, 0.0, 0.0, 1.0 ],
					"fontsize" : 10.0
				}

			}
, 			{
				"box" : 				{
					"maxclass" : "number",
					"numinlets" : 1,
					"patching_rect" : [ 85.0, 209.0, 50.0, 20.0 ],
					"id" : "obj-14",
					"fontname" : "Arial",
					"numoutlets" : 2,
					"outlettype" : [ "int", "bang" ],
					"fontsize" : 10.0
				}

			}
, 			{
				"box" : 				{
					"maxclass" : "button",
					"numinlets" : 1,
					"patching_rect" : [ 40.0, 209.0, 20.0, 20.0 ],
					"id" : "obj-15",
					"numoutlets" : 1,
					"outlettype" : [ "bang" ]
				}

			}
, 			{
				"box" : 				{
					"maxclass" : "toggle",
					"numinlets" : 1,
					"patching_rect" : [ 63.0, 209.0, 20.0, 20.0 ],
					"id" : "obj-16",
					"numoutlets" : 1,
					"outlettype" : [ "int" ]
				}

			}
, 			{
				"box" : 				{
					"maxclass" : "jsui",
					"varname" : "ej.lui-2164429[8]",
					"numinlets" : 1,
					"patching_rect" : [ 64.0, 179.0, 20.0, 20.0 ],
					"id" : "obj-17",
					"numoutlets" : 2,
					"outlettype" : [ "", "" ],
					"border" : 0,
					"jsarguments" : [  ],
					"filename" : "ej.led.js",
					"embedstate" : [ [ "redrawoff" ], [ "mode", 0 ], [ "circlesize", 0.75 ], [ "blinktime", 150 ], [ "brgb", 84, 84, 84 ], [ "brgb2", 119, 119, 119 ], [ "frgb", 153, 0, 0 ], [ "frgb2", 255, 0, 0 ], [ "redrawon" ] ]
				}

			}
, 			{
				"box" : 				{
					"maxclass" : "message",
					"text" : "11",
					"numinlets" : 2,
					"patching_rect" : [ 93.0, 159.0, 23.0, 18.0 ],
					"id" : "obj-18",
					"fontname" : "Arial",
					"numoutlets" : 1,
					"outlettype" : [ "" ],
					"fontsize" : 10.0
				}

			}
, 			{
				"box" : 				{
					"maxclass" : "message",
					"text" : "1",
					"numinlets" : 2,
					"patching_rect" : [ 93.0, 140.0, 22.0, 18.0 ],
					"id" : "obj-19",
					"fontname" : "Arial",
					"numoutlets" : 1,
					"outlettype" : [ "" ],
					"fontsize" : 10.0
				}

			}
, 			{
				"box" : 				{
					"maxclass" : "message",
					"text" : "0",
					"numinlets" : 2,
					"patching_rect" : [ 93.0, 121.0, 22.0, 18.0 ],
					"id" : "obj-20",
					"fontname" : "Arial",
					"numoutlets" : 1,
					"outlettype" : [ "" ],
					"fontsize" : 10.0
				}

			}
, 			{
				"box" : 				{
					"maxclass" : "message",
					"text" : "-1",
					"numinlets" : 2,
					"patching_rect" : [ 93.0, 102.0, 23.0, 18.0 ],
					"id" : "obj-21",
					"fontname" : "Arial",
					"numoutlets" : 1,
					"outlettype" : [ "" ],
					"fontsize" : 10.0
				}

			}
, 			{
				"box" : 				{
					"maxclass" : "button",
					"numinlets" : 1,
					"patching_rect" : [ 22.0, 145.0, 20.0, 20.0 ],
					"id" : "obj-22",
					"numoutlets" : 1,
					"outlettype" : [ "bang" ]
				}

			}
, 			{
				"box" : 				{
					"maxclass" : "toggle",
					"numinlets" : 1,
					"patching_rect" : [ 46.0, 145.0, 20.0, 20.0 ],
					"id" : "obj-23",
					"numoutlets" : 1,
					"outlettype" : [ "int" ]
				}

			}
, 			{
				"box" : 				{
					"maxclass" : "jsui",
					"varname" : "ej.lui-2164429[13]",
					"numinlets" : 1,
					"patching_rect" : [ 261.0, 117.0, 20.0, 20.0 ],
					"id" : "obj-31",
					"numoutlets" : 2,
					"outlettype" : [ "", "" ],
					"border" : 0,
					"jsarguments" : [  ],
					"filename" : "ej.led.js",
					"presentation_rect" : [ 0.0, 0.0, 20.0, 20.0 ],
					"embedstate" : [ [ "redrawoff" ], [ "mode", 0 ], [ "circlesize", 0.75 ], [ "blinktime", 150 ], [ "brgb", 84, 84, 84 ], [ "brgb2", 119, 119, 119 ], [ "frgb", 0, 0, 119 ], [ "frgb2", 0, 255, 255 ], [ "redrawon" ] ]
				}

			}
, 			{
				"box" : 				{
					"maxclass" : "jsui",
					"varname" : "ej.lui-2164429[14]",
					"numinlets" : 1,
					"patching_rect" : [ 286.0, 117.0, 20.0, 20.0 ],
					"id" : "obj-32",
					"numoutlets" : 2,
					"outlettype" : [ "", "" ],
					"border" : 0,
					"jsarguments" : [  ],
					"filename" : "ej.led.js",
					"presentation_rect" : [ 0.0, 0.0, 20.0, 20.0 ],
					"embedstate" : [ [ "redrawoff" ], [ "mode", 0 ], [ "circlesize", 0.75 ], [ "blinktime", 150 ], [ "brgb", 84, 84, 84 ], [ "brgb2", 119, 119, 119 ], [ "frgb", 204, 127, 0 ], [ "frgb2", 255, 255, 0 ], [ "redrawon" ] ]
				}

			}
, 			{
				"box" : 				{
					"maxclass" : "jsui",
					"varname" : "ej.lui-2164429[15]",
					"numinlets" : 1,
					"patching_rect" : [ 312.0, 117.0, 20.0, 20.0 ],
					"id" : "obj-33",
					"numoutlets" : 2,
					"outlettype" : [ "", "" ],
					"border" : 0,
					"jsarguments" : [  ],
					"filename" : "ej.led.js",
					"presentation_rect" : [ 0.0, 0.0, 20.0, 20.0 ],
					"embedstate" : [ [ "redrawoff" ], [ "mode", 0 ], [ "circlesize", 0.75 ], [ "blinktime", 150 ], [ "brgb", 0, 0, 0 ], [ "brgb2", 0, 0, 0 ], [ "frgb", 127, 127, 127 ], [ "frgb2", 255, 255, 255 ], [ "redrawon" ] ]
				}

			}
, 			{
				"box" : 				{
					"maxclass" : "jsui",
					"varname" : "ej.lui-2164429[16]",
					"numinlets" : 1,
					"patching_rect" : [ 236.0, 117.0, 20.0, 20.0 ],
					"id" : "obj-34",
					"numoutlets" : 2,
					"outlettype" : [ "", "" ],
					"border" : 0,
					"jsarguments" : [  ],
					"filename" : "ej.led.js",
					"presentation_rect" : [ 0.0, 0.0, 20.0, 20.0 ],
					"embedstate" : [ [ "redrawoff" ], [ "mode", 0 ], [ "circlesize", 0.75 ], [ "blinktime", 150 ], [ "brgb", 84, 84, 84 ], [ "brgb2", 119, 119, 119 ], [ "frgb", 0, 68, 0 ], [ "frgb2", 0, 255, 0 ], [ "redrawon" ] ]
				}

			}
, 			{
				"box" : 				{
					"maxclass" : "toggle",
					"numinlets" : 1,
					"patching_rect" : [ 273.0, 85.0, 20.0, 20.0 ],
					"id" : "obj-35",
					"numoutlets" : 1,
					"outlettype" : [ "int" ]
				}

			}
, 			{
				"box" : 				{
					"maxclass" : "comment",
					"text" : "Color selections",
					"numinlets" : 1,
					"patching_rect" : [ 236.0, 137.0, 131.0, 20.0 ],
					"id" : "obj-36",
					"fontname" : "Arial",
					"numoutlets" : 0,
					"frgb" : [ 0.0, 0.0, 0.0, 1.0 ],
					"fontsize" : 10.0
				}

			}
, 			{
				"box" : 				{
					"maxclass" : "number",
					"numinlets" : 1,
					"patching_rect" : [ 121.0, 141.0, 50.0, 20.0 ],
					"id" : "obj-37",
					"fontname" : "Arial",
					"numoutlets" : 2,
					"outlettype" : [ "int", "bang" ],
					"maximum" : 4,
					"fontsize" : 10.0,
					"presentation_rect" : [ 0.0, 0.0, 50.0, 20.0 ],
					"htextcolor" : [ 0.870588, 0.870588, 0.870588, 1.0 ],
					"minimum" : 0,
					"triscale" : 0.9
				}

			}
, 			{
				"box" : 				{
					"maxclass" : "comment",
					"text" : "Click in the message boxes",
					"linecount" : 3,
					"numinlets" : 1,
					"patching_rect" : [ 116.0, 105.0, 69.0, 46.0 ],
					"id" : "obj-38",
					"fontname" : "Sans Serif",
					"numoutlets" : 0,
					"frgb" : [ 0.0, 0.0, 0.0, 1.0 ],
					"fontsize" : 10.0
				}

			}
, 			{
				"box" : 				{
					"maxclass" : "message",
					"text" : "pict $1",
					"numinlets" : 2,
					"patching_rect" : [ 121.0, 159.0, 48.0, 18.0 ],
					"id" : "obj-39",
					"fontname" : "Arial",
					"numoutlets" : 1,
					"outlettype" : [ "" ],
					"fontsize" : 10.0
				}

			}
, 			{
				"box" : 				{
					"maxclass" : "comment",
					"text" : "Fun \"meter\" effects can be achieved by clever setting of the led \"flash time\" in the Get Info… dialog.",
					"linecount" : 3,
					"numinlets" : 1,
					"patching_rect" : [ 250.0, 192.0, 200.0, 46.0 ],
					"id" : "obj-40",
					"fontname" : "Arial",
					"numoutlets" : 0,
					"frgb" : [ 0.0, 0.0, 0.0, 1.0 ],
					"fontsize" : 10.0
				}

			}
, 			{
				"box" : 				{
					"maxclass" : "comment",
					"text" : "\"pict N\" changes color immediately",
					"numinlets" : 1,
					"patching_rect" : [ 164.0, 160.0, 223.0, 20.0 ],
					"id" : "obj-41",
					"fontname" : "Arial",
					"numoutlets" : 0,
					"frgb" : [ 0.0, 0.0, 0.0, 1.0 ],
					"fontsize" : 10.0
				}

			}
, 			{
				"box" : 				{
					"maxclass" : "comment",
					"text" : "<- click & drag to resize (in edit mode)",
					"linecount" : 2,
					"numinlets" : 1,
					"patching_rect" : [ 106.0, 357.0, 128.0, 33.0 ],
					"id" : "obj-53",
					"fontname" : "Arial",
					"numoutlets" : 0,
					"frgb" : [ 0.0, 0.0, 0.0, 1.0 ],
					"fontsize" : 10.0
				}

			}
, 			{
				"box" : 				{
					"maxclass" : "jsui",
					"varname" : "ej.lui-2164429[9]",
					"numinlets" : 1,
					"patching_rect" : [ 46.0, 316.0, 59.0, 59.0 ],
					"id" : "obj-54",
					"numoutlets" : 2,
					"outlettype" : [ "", "" ],
					"border" : 0,
					"jsarguments" : [  ],
					"filename" : "ej.led.js",
					"embedstate" : [ [ "redrawoff" ], [ "mode", 1 ], [ "circlesize", 0.83 ], [ "blinktime", 150 ], [ "brgb", 239, 236, 202 ], [ "brgb2", 174, 185, 192 ], [ "frgb", 153, 0, 0 ], [ "frgb2", 255, 0, 0 ], [ "redrawon" ] ]
				}

			}
 ],
		"lines" : [ 			{
				"patchline" : 				{
					"source" : [ "obj-29", 0 ],
					"destination" : [ "obj-24", 0 ],
					"hidden" : 0,
					"midpoints" : [ 232.5, 243.0, 232.5, 243.0 ]
				}

			}
, 			{
				"patchline" : 				{
					"source" : [ "obj-29", 0 ],
					"destination" : [ "obj-25", 0 ],
					"hidden" : 0,
					"midpoints" : [ 232.5, 243.0, 254.5, 243.0 ]
				}

			}
, 			{
				"patchline" : 				{
					"source" : [ "obj-29", 0 ],
					"destination" : [ "obj-26", 0 ],
					"hidden" : 0,
					"midpoints" : [ 232.5, 243.0, 276.5, 243.0 ]
				}

			}
, 			{
				"patchline" : 				{
					"source" : [ "obj-29", 0 ],
					"destination" : [ "obj-28", 0 ],
					"hidden" : 0,
					"midpoints" : [ 232.5, 243.0, 298.5, 243.0 ]
				}

			}
, 			{
				"patchline" : 				{
					"source" : [ "obj-29", 0 ],
					"destination" : [ "obj-27", 0 ],
					"hidden" : 0,
					"midpoints" : [ 232.5, 243.0, 320.5, 243.0 ]
				}

			}
, 			{
				"patchline" : 				{
					"source" : [ "obj-29", 0 ],
					"destination" : [ "obj-30", 0 ],
					"hidden" : 0,
					"midpoints" : [ 232.5, 243.0, 342.5, 243.0 ]
				}

			}
, 			{
				"patchline" : 				{
					"source" : [ "obj-12", 0 ],
					"destination" : [ "obj-10", 0 ],
					"hidden" : 0,
					"midpoints" : [ 405.5, 321.0, 364.5, 321.0 ]
				}

			}
, 			{
				"patchline" : 				{
					"source" : [ "obj-8", 0 ],
					"destination" : [ "obj-10", 0 ],
					"hidden" : 0
				}

			}
, 			{
				"patchline" : 				{
					"source" : [ "obj-11", 0 ],
					"destination" : [ "obj-10", 0 ],
					"hidden" : 0
				}

			}
, 			{
				"patchline" : 				{
					"source" : [ "obj-10", 0 ],
					"destination" : [ "obj-9", 0 ],
					"hidden" : 0
				}

			}
, 			{
				"patchline" : 				{
					"source" : [ "obj-17", 0 ],
					"destination" : [ "obj-15", 0 ],
					"hidden" : 0
				}

			}
, 			{
				"patchline" : 				{
					"source" : [ "obj-17", 0 ],
					"destination" : [ "obj-16", 0 ],
					"hidden" : 0
				}

			}
, 			{
				"patchline" : 				{
					"source" : [ "obj-19", 0 ],
					"destination" : [ "obj-17", 0 ],
					"hidden" : 0,
					"midpoints" : [ 102.5, 157.0, 73.5, 157.0 ]
				}

			}
, 			{
				"patchline" : 				{
					"source" : [ "obj-18", 0 ],
					"destination" : [ "obj-17", 0 ],
					"hidden" : 0,
					"midpoints" : [ 102.5, 176.0, 73.5, 176.0 ]
				}

			}
, 			{
				"patchline" : 				{
					"source" : [ "obj-21", 0 ],
					"destination" : [ "obj-17", 0 ],
					"hidden" : 0,
					"midpoints" : [ 102.5, 119.0, 73.5, 119.0 ]
				}

			}
, 			{
				"patchline" : 				{
					"source" : [ "obj-22", 0 ],
					"destination" : [ "obj-17", 0 ],
					"hidden" : 0,
					"midpoints" : [ 31.5, 171.0, 73.5, 171.0 ]
				}

			}
, 			{
				"patchline" : 				{
					"source" : [ "obj-20", 0 ],
					"destination" : [ "obj-17", 0 ],
					"hidden" : 0,
					"midpoints" : [ 102.5, 138.0, 73.5, 138.0 ]
				}

			}
, 			{
				"patchline" : 				{
					"source" : [ "obj-23", 0 ],
					"destination" : [ "obj-17", 0 ],
					"hidden" : 0,
					"midpoints" : [ 55.5, 171.0, 73.5, 171.0 ]
				}

			}
, 			{
				"patchline" : 				{
					"source" : [ "obj-39", 0 ],
					"destination" : [ "obj-17", 0 ],
					"hidden" : 0,
					"midpoints" : [ 130.5, 176.0, 73.5, 176.0 ]
				}

			}
, 			{
				"patchline" : 				{
					"source" : [ "obj-17", 0 ],
					"destination" : [ "obj-14", 0 ],
					"hidden" : 0
				}

			}
, 			{
				"patchline" : 				{
					"source" : [ "obj-3", 0 ],
					"destination" : [ "obj-1", 0 ],
					"hidden" : 0
				}

			}
, 			{
				"patchline" : 				{
					"source" : [ "obj-2", 0 ],
					"destination" : [ "obj-3", 0 ],
					"hidden" : 0
				}

			}
, 			{
				"patchline" : 				{
					"source" : [ "obj-35", 0 ],
					"destination" : [ "obj-33", 0 ],
					"hidden" : 0
				}

			}
, 			{
				"patchline" : 				{
					"source" : [ "obj-35", 0 ],
					"destination" : [ "obj-32", 0 ],
					"hidden" : 0
				}

			}
, 			{
				"patchline" : 				{
					"source" : [ "obj-35", 0 ],
					"destination" : [ "obj-31", 0 ],
					"hidden" : 0
				}

			}
, 			{
				"patchline" : 				{
					"source" : [ "obj-35", 0 ],
					"destination" : [ "obj-34", 0 ],
					"hidden" : 0
				}

			}
, 			{
				"patchline" : 				{
					"source" : [ "obj-56", 0 ],
					"destination" : [ "obj-59", 0 ],
					"hidden" : 1
				}

			}
, 			{
				"patchline" : 				{
					"source" : [ "obj-59", 0 ],
					"destination" : [ "obj-60", 0 ],
					"hidden" : 1
				}

			}
, 			{
				"patchline" : 				{
					"source" : [ "obj-48", 1 ],
					"destination" : [ "obj-57", 0 ],
					"hidden" : 1
				}

			}
, 			{
				"patchline" : 				{
					"source" : [ "obj-5", 0 ],
					"destination" : [ "obj-4", 0 ],
					"hidden" : 0,
					"color" : [ 0.019608, 0.388235, 0.501961, 1.0 ]
				}

			}
, 			{
				"patchline" : 				{
					"source" : [ "obj-37", 0 ],
					"destination" : [ "obj-39", 0 ],
					"hidden" : 0
				}

			}
 ]
	}

}
